CrickxDroite.ufo
<glyph name="exclam" format="1">
  <advance width="1000"/>
  <unicode hex="0021"/>
  <outline>
    <contour>
      <point x="219" y="666" type="line" smooth="no"/>
      <point x="219" y="185" type="line" smooth="no"/>
      <point x="76" y="185" type="line" smooth="no"/>
      <point x="78" y="666" type="line" smooth="no"/>
    </contour>
    <contour>
      <point x="218" y="134" type="line" smooth="no"/>
      <point x="218" y="0" type="line" smooth="no"/>
      <point x="77" y="0" type="line" smooth="no"/>
      <point x="77" y="134" type="line" smooth="no"/>
    </contour>
  </outline>
</glyph>
<glyph name="dollar" format="1">
  <advance width="596"/>
  <unicode hex="0024"/>
  <outline>
    <contour>
      <point x="382.493" y="658.583" type="line" smooth="no"/>
      <point x="497.424" y="612.659"/>
      <point x="477.791" y="464.64"/>
      <point x="478.6" y="464.64" type="curve" smooth="yes"/>
      <point x="344.2" y="464.64" type="line" smooth="no"/>
      <point x="344.2" y="495.36" type="line" smooth="yes"/>
      <point x="345.16" y="495.36"/>
      <point x="346.12" y="533.76"/>
      <point x="299.08" y="533.76" type="curve" smooth="yes"/>
      <point x="246.28" y="533.76"/>
      <point x="254.92" y="468.48"/>
      <point x="254.92" y="468.48" type="curve" smooth="no"/>
      <point x="254.92" y="389.76"/>
      <point x="474.76" y="410.88"/>
      <point x="476.68" y="294.72" type="curve" smooth="no"/>
      <point x="476.68" y="132.48" type="line" smooth="no"/>
      <point x="476.68" y="132.48"/>
      <point x="466.222" y="41.6238"/>
      <point x="364.402" y="9.85189" type="curve" smooth="no"/>
      <point x="364.402" y="9.85189" type="line" smooth="no"/>
      <point x="360" y="-98" type="line" smooth="no"/>
      <point x="202" y="-98" type="line" smooth="no"/>
      <point x="205.785" y="13.2702" type="line" smooth="no"/>
      <point x="205.785" y="13.2702" type="line" smooth="no"/>
      <point x="127.427" y="45.4346"/>
      <point x="121.48" y="120.96"/>
      <point x="121.48" y="120.96" type="curve" smooth="yes"/>
      <point x="121.48" y="221.76" type="line" smooth="no"/>
      <point x="253.96" y="221.76" type="line" smooth="no"/>
      <point x="253.96" y="221.76"/>
      <point x="240.52" y="144.96"/>
      <point x="291.4" y="144.96" type="curve" smooth="no"/>
      <point x="347.08" y="142.08"/>
      <point x="342.28" y="214.08"/>
      <point x="342.28" y="215.04" type="curve" smooth="yes"/>
      <point x="342.28" y="337.92"/>
      <point x="117.64" y="241.92"/>
      <point x="117.64" y="432" type="curve" smooth="yes"/>
      <point x="117.64" y="531.84" type="line" smooth="no"/>
      <point x="117.64" y="531.84"/>
      <point x="130.324" y="623.799"/>
      <point x="224.25" y="658.746" type="curve" smooth="no"/>
      <point x="224.25" y="658.746" type="line" smooth="no"/>
      <point x="228" y="769" type="line" smooth="no"/>
      <point x="387" y="769" type="line" smooth="no"/>
      <point x="382.493" y="658.583" type="line" smooth="no"/>
    </contour>
  </outline>
</glyph>
<glyph name="percent" format="1">
  <advance width="636"/>
  <unicode hex="0025"/>
  <outline>
    <contour>
      <point x="480" y="672" type="line" smooth="no"/>
      <point x="591" y="608" type="line" smooth="no"/>
      <point x="359" y="241" type="line" smooth="no"/>
      <point x="409" y="130" type="line" smooth="no"/>
      <point x="407.667" y="129.333"/>
      <point x="406.667" y="128.333"/>
      <point x="406" y="127" type="curve" smooth="yes"/>
      <point x="404.667" y="124.333"/>
      <point x="404" y="121.333"/>
      <point x="404" y="118" type="curve" smooth="yes"/>
      <point x="404" y="111.333"/>
      <point x="406.5" y="105"/>
      <point x="411.5" y="99" type="curve" smooth="yes"/>
      <point x="416.5" y="93"/>
      <point x="423.333" y="90"/>
      <point x="432" y="90" type="curve" smooth="yes"/>
      <point x="440" y="90"/>
      <point x="446.667" y="93.5"/>
      <point x="452" y="100.5" type="curve" smooth="yes"/>
      <point x="457.333" y="107.5"/>
      <point x="460" y="113.333"/>
      <point x="460" y="118" type="curve" smooth="yes"/>
      <point x="460" y="124.667"/>
      <point x="457.833" y="130.833"/>
      <point x="453.5" y="136.5" type="curve" smooth="yes"/>
      <point x="449.167" y="142.167"/>
      <point x="443" y="145"/>
      <point x="435" y="145" type="curve" smooth="yes"/>
      <point x="431.667" y="145"/>
      <point x="428.667" y="144.5"/>
      <point x="426" y="143.5" type="curve" smooth="yes"/>
      <point x="423.333" y="142.5"/>
      <point x="421.333" y="141.333"/>
      <point x="420" y="140" type="curve" smooth="yes"/>
      <point x="418" y="138.667"/>
      <point x="416.333" y="137.333"/>
      <point x="415" y="136" type="curve" smooth="no"/>
      <point x="368" y="245" type="line" smooth="no"/>
      <point x="371.333" y="249"/>
      <point x="376.667" y="252.333"/>
      <point x="384" y="255" type="curve" smooth="no"/>
      <point x="389.333" y="257.667"/>
      <point x="396.833" y="260"/>
      <point x="406.5" y="262" type="curve" smooth="yes"/>
      <point x="416.167" y="264"/>
      <point x="428.333" y="265"/>
      <point x="443" y="265" type="curve" smooth="yes"/>
      <point x="464.333" y="265"/>
      <point x="483.167" y="260.833"/>
      <point x="499.5" y="252.5" type="curve" smooth="yes"/>
      <point x="515.833" y="244.167"/>
      <point x="529.5" y="233.167"/>
      <point x="540.5" y="219.5" type="curve" smooth="yes"/>
      <point x="551.5" y="205.833"/>
      <point x="559.833" y="190.667"/>
      <point x="565.5" y="174" type="curve" smooth="yes"/>
      <point x="571.167" y="157.333"/>
      <point x="574" y="141"/>
      <point x="574" y="125" type="curve" smooth="yes"/>
      <point x="574" y="111"/>
      <point x="571.167" y="96"/>
      <point x="565.5" y="80" type="curve" smooth="yes"/>
      <point x="559.833" y="64"/>
      <point x="551.167" y="49.1667"/>
      <point x="539.5" y="35.5" type="curve" smooth="yes"/>
      <point x="527.833" y="21.8333"/>
      <point x="512.667" y="10.5"/>
      <point x="494" y="1.5" type="curve" smooth="yes"/>
      <point x="475.333" y="-7.5"/>
      <point x="453" y="-12"/>
      <point x="427" y="-12" type="curve" smooth="yes"/>
      <point x="395" y="-12"/>
      <point x="369.167" y="-5.16667"/>
      <point x="349.5" y="8.5" type="curve" smooth="yes"/>
      <point x="329.833" y="22.1667"/>
      <point x="314.833" y="37.8333"/>
      <point x="304.5" y="55.5" type="curve" smooth="yes"/>
      <point x="294.167" y="73.1667"/>
      <point x="287.5" y="90.3333"/>
      <point x="284.5" y="107" type="curve" smooth="yes"/>
      <point x="281.5" y="123.667"/>
      <point x="280.667" y="134.667"/>
      <point x="282" y="140" type="curve" smooth="no"/>
      <point x="165" y="-25" type="line" smooth="no"/>
      <point x="49" y="47" type="line" smooth="no"/>
      <point x="303" y="414" type="line" smooth="no"/>
      <point x="259" y="517" type="line" smooth="no"/>
      <point x="262.333" y="517.667"/>
      <point x="265.333" y="519.333"/>
      <point x="268" y="522" type="curve" smooth="yes"/>
      <point x="270" y="524"/>
      <point x="272" y="526.833"/>
      <point x="274" y="530.5" type="curve" smooth="yes"/>
      <point x="276" y="534.167"/>
      <point x="277" y="538.667"/>
      <point x="277" y="544" type="curve" smooth="yes"/>
      <point x="277" y="552"/>
      <point x="274.5" y="558.5"/>
      <point x="269.5" y="563.5" type="curve" smooth="yes"/>
      <point x="264.5" y="568.5"/>
      <point x="258.333" y="571"/>
      <point x="251" y="571" type="curve" smooth="yes"/>
      <point x="243.667" y="571"/>
      <point x="237.167" y="568.667"/>
      <point x="231.5" y="564" type="curve" smooth="yes"/>
      <point x="225.833" y="559.333"/>
      <point x="223" y="552.667"/>
      <point x="223" y="544" type="curve" smooth="yes"/>
      <point x="223" y="533.333"/>
      <point x="226.5" y="525.833"/>
      <point x="233.5" y="521.5" type="curve" smooth="yes"/>
      <point x="240.5" y="517.167"/>
      <point x="246.333" y="515.667"/>
      <point x="251" y="517" type="curve" smooth="no"/>
      <point x="294" y="412" type="line" smooth="no"/>
      <point x="288" y="408"/>
      <point x="281" y="404.5"/>
      <point x="273" y="401.5" type="curve" smooth="yes"/>
      <point x="265" y="398.5"/>
      <point x="257" y="397"/>
      <point x="249" y="397" type="curve" smooth="yes"/>
      <point x="232.333" y="397"/>
      <point x="215.167" y="399.833"/>
      <point x="197.5" y="405.5" type="curve" smooth="yes"/>
      <point x="179.833" y="411.167"/>
      <point x="163.833" y="419.833"/>
      <point x="149.5" y="431.5" type="curve" smooth="yes"/>
      <point x="135.167" y="443.167"/>
      <point x="123.333" y="457.833"/>
      <point x="114" y="475.5" type="curve" smooth="yes"/>
      <point x="104.667" y="493.167"/>
      <point x="100" y="514"/>
      <point x="100" y="538" type="curve" smooth="yes"/>
      <point x="100" y="582"/>
      <point x="114.167" y="615.333"/>
      <point x="142.5" y="638" type="curve" smooth="yes"/>
      <point x="170.833" y="660.667"/>
      <point x="207" y="672"/>
      <point x="251" y="672" type="curve" smooth="yes"/>
      <point x="281" y="672"/>
      <point x="305.167" y="666.5"/>
      <point x="323.5" y="655.5" type="curve" smooth="yes"/>
      <point x="341.833" y="644.5"/>
      <point x="356" y="631.667"/>
      <point x="366" y="617" type="curve" smooth="yes"/>
      <point x="376" y="602.333"/>
      <point x="382.667" y="588"/>
      <point x="386" y="574" type="curve" smooth="yes"/>
      <point x="389.333" y="560"/>
      <point x="391" y="549.667"/>
      <point x="391" y="543" type="curve" smooth="no"/>
    </contour>
  </outline>
</glyph>
<glyph name="ampersand" format="1">
  <advance width="613"/>
  <unicode hex="0026"/>
  <outline>
    <contour>
      <point x="565" y="159" type="curve" smooth="no"/>
      <point x="565" y="159"/>
      <point x="608.679" y="86.9141"/>
      <point x="658" y="55" type="curve" smooth="no"/>
      <point x="528" y="-23" type="line" smooth="no"/>
      <point x="486" y="15"/>
      <point x="455" y="72"/>
      <point x="455.374" y="71.9609" type="curve" smooth="no"/>
      <point x="455" y="73"/>
      <point x="408" y="0"/>
      <point x="299.2" y="-0.959961" type="curve" smooth="no"/>
      <point x="128" y="0"/>
      <point x="120.64" y="128"/>
      <point x="120.64" y="240.96" type="curve" smooth="no"/>
      <point x="117.76" y="435.84"/>
      <point x="343.36" y="384"/>
      <point x="343.36" y="473.28" type="curve" smooth="yes"/>
      <point x="343.36" y="500.16"/>
      <point x="350.08" y="566.4"/>
      <point x="296.32" y="563.52" type="curve" smooth="yes"/>
      <point x="243.596" y="560.695"/>
      <point x="246.4" y="508.8"/>
      <point x="246.4" y="508.8" type="curve" smooth="yes"/>
      <point x="246.4" y="463.68"/>
      <point x="255.04" y="453.12"/>
      <point x="282.88" y="424.32" type="curve" smooth="no"/>
      <point x="244.48" y="410.88"/>
      <point x="193.6" y="392.64"/>
      <point x="167.68" y="371.52" type="curve" smooth="no"/>
      <point x="166.72" y="372.48"/>
      <point x="114.88" y="396.48"/>
      <point x="116.8" y="537.6" type="curve" smooth="yes"/>
      <point x="118.576" y="668.147"/>
      <point x="249.28" y="691.2"/>
      <point x="291.52" y="691.2" type="curve" smooth="no"/>
      <point x="489.28" y="691.2"/>
      <point x="489.28" y="565.44"/>
      <point x="489.28" y="453.12" type="curve" smooth="no"/>
      <point x="489.28" y="340.8"/>
      <point x="258.88" y="341.76"/>
      <point x="258.88" y="256.32" type="curve" smooth="no"/>
      <point x="259.712" y="205.892"/>
      <point x="246.4" y="149.76"/>
      <point x="307.84" y="149.76" type="curve" smooth="no"/>
      <point x="362.56" y="149.76"/>
      <point x="381" y="187"/>
      <point x="381" y="187" type="curve" smooth="no"/>
      <point x="381" y="187"/>
      <point x="380" y="238"/>
      <point x="296.498" y="295.627" type="curve" smooth="no"/>
      <point x="341" y="322"/>
      <point x="374" y="332"/>
      <point x="407" y="352" type="curve" smooth="no"/>
      <point x="481" y="308"/>
      <point x="503" y="257"/>
      <point x="504.789" y="254.189" type="curve" smooth="no"/>
      <point x="504" y="254"/>
      <point x="564" y="302"/>
      <point x="612" y="329" type="curve" smooth="no"/>
      <point x="612" y="189" type="line" smooth="no"/>
      <point x="612" y="188"/>
      <point x="593" y="182"/>
    </contour>
  </outline>
</glyph>
<glyph name="quotesingle" format="1">
  <advance width="283"/>
  <unicode hex="0027"/>
  <outline>
    <contour>
      <point x="92" y="383" type="line" smooth="no"/>
      <point x="111" y="505" type="line" smooth="no"/>
      <point x="59" y="505" type="line" smooth="no"/>
      <point x="68" y="666" type="line" smooth="no"/>
      <point x="229" y="666" type="line" smooth="no"/>
      <point x="178" y="384" type="line" smooth="no"/>
    </contour>
  </outline>
</glyph>
<glyph name="parenleft" format="1">
  <advance width="408"/>
  <unicode hex="0028"/>
  <outline>
    <contour>
      <point x="289.638" y="618.405" type="line" smooth="no"/>
      <point x="264.896" y="608.412"/>
      <point x="244.361" y="589.973"/>
      <point x="228.033" y="563.087" type="curve" smooth="yes"/>
      <point x="211.704" y="536.202"/>
      <point x="199.051" y="506.354"/>
      <point x="190.072" y="473.547" type="curve" smooth="yes"/>
      <point x="181.095" y="440.738"/>
      <point x="175.322" y="407.932"/>
      <point x="172.756" y="375.126" type="curve" smooth="yes"/>
      <point x="170.189" y="342.32"/>
      <point x="170.627" y="315.054"/>
      <point x="174.068" y="293.324" type="curve" smooth="yes"/>
      <point x="176.885" y="275.546"/>
      <point x="181.009" y="256.962"/>
      <point x="186.442" y="237.573" type="curve" smooth="yes"/>
      <point x="191.876" y="218.185"/>
      <point x="198.877" y="199.551"/>
      <point x="207.446" y="181.671" type="curve" smooth="yes"/>
      <point x="216.016" y="163.791"/>
      <point x="226.403" y="147.212"/>
      <point x="238.61" y="131.934" type="curve" smooth="yes"/>
      <point x="250.817" y="116.655"/>
      <point x="264.998" y="104.896"/>
      <point x="281.153" y="96.6543" type="curve" smooth="no"/>
      <point x="281.481" y="-46.0508" type="line" smooth="no"/>
      <point x="244.947" y="-36.9883"/>
      <point x="212.682" y="-21.8496"/>
      <point x="184.685" y="-0.634766" type="curve" smooth="yes"/>
      <point x="156.688" y="20.5801"/>
      <point x="132.476" y="45.6006"/>
      <point x="112.048" y="74.4268" type="curve" smooth="yes"/>
      <point x="91.6201" y="103.253"/>
      <point x="75.3506" y="134.594"/>
      <point x="63.2393" y="168.449" type="curve" smooth="yes"/>
      <point x="51.127" y="202.305"/>
      <point x="42.3076" y="236.682"/>
      <point x="36.7803" y="271.58" type="curve" smooth="yes"/>
      <point x="31.9824" y="301.869"/>
      <point x="30.2949" y="333.832"/>
      <point x="31.7178" y="367.469" type="curve" smooth="yes"/>
      <point x="33.1396" y="401.104"/>
      <point x="37.7422" y="434.907"/>
      <point x="45.5234" y="468.877" type="curve" smooth="yes"/>
      <point x="53.3057" y="502.846"/>
      <point x="64.1201" y="535.776"/>
      <point x="77.9688" y="567.668" type="curve" smooth="yes"/>
      <point x="91.8164" y="599.561"/>
      <point x="108.768" y="628.907"/>
      <point x="128.822" y="655.708" type="curve" smooth="yes"/>
      <point x="148.877" y="682.508"/>
      <point x="172.165" y="705.939"/>
      <point x="198.686" y="726.002" type="curve" smooth="yes"/>
      <point x="225.207" y="746.064"/>
      <point x="255.223" y="761.112"/>
      <point x="288.732" y="771.145" type="curve" smooth="no"/>
    </contour>
  </outline>
</glyph>
<glyph name="parenright" format="1">
  <advance width="368"/>
  <unicode hex="0029"/>
  <outline>
    <contour>
      <point x="31.7178" y="618.405" type="line" smooth="no"/>
      <point x="56.459" y="608.412"/>
      <point x="76.9941" y="589.973"/>
      <point x="93.3223" y="563.087" type="curve" smooth="yes"/>
      <point x="109.651" y="536.202"/>
      <point x="122.305" y="506.354"/>
      <point x="131.283" y="473.547" type="curve" smooth="yes"/>
      <point x="140.261" y="440.738"/>
      <point x="146.033" y="407.932"/>
      <point x="148.6" y="375.126" type="curve" smooth="yes"/>
      <point x="151.166" y="342.32"/>
      <point x="150.729" y="315.054"/>
      <point x="147.287" y="293.324" type="curve" smooth="yes"/>
      <point x="144.471" y="275.546"/>
      <point x="140.347" y="256.962"/>
      <point x="134.913" y="237.573" type="curve" smooth="yes"/>
      <point x="129.479" y="218.185"/>
      <point x="122.479" y="199.551"/>
      <point x="113.909" y="181.671" type="curve" smooth="yes"/>
      <point x="105.34" y="163.791"/>
      <point x="94.9521" y="147.212"/>
      <point x="82.7451" y="131.934" type="curve" smooth="yes"/>
      <point x="70.5381" y="116.655"/>
      <point x="56.3574" y="104.896"/>
      <point x="40.2021" y="96.6543" type="curve" smooth="no"/>
      <point x="39.874" y="-46.0508" type="line" smooth="no"/>
      <point x="76.4082" y="-36.9883"/>
      <point x="108.674" y="-21.8496"/>
      <point x="136.671" y="-0.634766" type="curve" smooth="yes"/>
      <point x="164.668" y="20.5801"/>
      <point x="188.88" y="45.6006"/>
      <point x="209.308" y="74.4268" type="curve" smooth="yes"/>
      <point x="229.735" y="103.253"/>
      <point x="246.005" y="134.594"/>
      <point x="258.116" y="168.449" type="curve" smooth="yes"/>
      <point x="270.229" y="202.305"/>
      <point x="279.048" y="236.682"/>
      <point x="284.575" y="271.58" type="curve" smooth="yes"/>
      <point x="289.373" y="301.869"/>
      <point x="291.061" y="333.832"/>
      <point x="289.638" y="367.469" type="curve" smooth="yes"/>
      <point x="288.216" y="401.104"/>
      <point x="283.613" y="434.907"/>
      <point x="275.832" y="468.877" type="curve" smooth="yes"/>
      <point x="268.05" y="502.846"/>
      <point x="257.235" y="535.776"/>
      <point x="243.387" y="567.668" type="curve" smooth="yes"/>
      <point x="229.539" y="599.561"/>
      <point x="212.588" y="628.907"/>
      <point x="192.533" y="655.708" type="curve" smooth="yes"/>
      <point x="172.479" y="682.508"/>
      <point x="149.19" y="705.939"/>
      <point x="122.67" y="726.002" type="curve" smooth="yes"/>
      <point x="96.1484" y="746.064"/>
      <point x="66.1328" y="761.112"/>
      <point x="32.623" y="771.145" type="curve" smooth="no"/>
    </contour>
  </outline>
</glyph>
<glyph name="asterisk" format="1">
  <advance width="1000"/>
  <unicode hex="002a"/>
  <outline>
    <contour>
      <point x="185" y="256" type="line" smooth="no"/>
      <point x="135" y="335" type="line" smooth="no"/>
      <point x="235" y="395" type="line" smooth="no"/>
      <point x="292" y="305" type="line" smooth="no"/>
      <point x="362" y="397" type="line" smooth="no"/>
      <point x="453" y="329" type="line" smooth="no"/>
      <point x="397" y="261" type="line" smooth="no"/>
      <point x="487" y="262" type="line" smooth="no"/>
      <point x="470" y="154" type="line" smooth="no"/>
      <point x="390" y="154" type="line" smooth="no"/>
      <point x="428" y="88" type="line" smooth="no"/>
      <point x="332" y="17" type="line" smooth="no"/>
      <point x="279" y="109" type="line" smooth="no"/>
      <point x="214" y="18" type="line" smooth="no"/>
      <point x="120" y="86" type="line" smooth="no"/>
      <point x="172" y="148" type="line" smooth="no"/>
      <point x="145.333" y="147.333"/>
      <point x="123.333" y="147.333"/>
      <point x="106" y="148" type="curve" smooth="yes"/>
      <point x="88.6667" y="148.667"/>
      <point x="79.6667" y="148.667"/>
      <point x="79" y="148" type="curve" smooth="yes"/>
      <point x="78.3333" y="147.333"/>
      <point x="79" y="152.833"/>
      <point x="81" y="164.5" type="curve" smooth="yes"/>
      <point x="83" y="176.167"/>
      <point x="85.3333" y="188.667"/>
      <point x="88" y="202" type="curve" smooth="yes"/>
      <point x="97" y="256" type="line" smooth="no"/>
    </contour>
  </outline>
</glyph>
<glyph name="plus" format="1">
  <advance width="1000"/>
  <unicode hex="002b"/>
  <outline>
    <contour>
      <point x="276" y="356" type="line" smooth="no"/>
      <point x="276" y="242" type="line" smooth="no"/>
      <point x="392.16" y="242" type="line" smooth="no"/>
      <point x="392" y="122" type="line" smooth="no"/>
      <point x="275" y="122" type="line" smooth="no"/>
      <point x="275" y="-1" type="line" smooth="no"/>
      <point x="148" y="0" type="line" smooth="no"/>
      <point x="148" y="120" type="line" smooth="no"/>
      <point x="33" y="120" type="line" smooth="no"/>
      <point x="33" y="242" type="line" smooth="no"/>
      <point x="148" y="242" type="line" smooth="no"/>
      <point x="148" y="356" type="line" smooth="no"/>
    </contour>
  </outline>
</glyph>
<glyph name="comma" format="1">
  <advance width="306"/>
  <unicode hex="002c"/>
  <outline>
    <contour>
      <point x="112" y="-118" type="line" smooth="no"/>
      <point x="136" y="0" type="line" smooth="no"/>
      <point x="76" y="0" type="line" smooth="no"/>
      <point x="76" y="158" type="line" smooth="no"/>
      <point x="225" y="158" type="line" smooth="no"/>
      <point x="225.667" y="136.667"/>
      <point x="225.667" y="115.667"/>
      <point x="225" y="95" type="curve" smooth="yes"/>
      <point x="224.333" y="77.6667"/>
      <point x="223.333" y="59.5"/>
      <point x="222" y="40.5" type="curve" smooth="yes"/>
      <point x="220.667" y="21.5"/>
      <point x="218.667" y="5.33333"/>
      <point x="216" y="-8" type="curve" smooth="yes"/>
      <point x="214" y="-19.3333"/>
      <point x="211.667" y="-29"/>
      <point x="209" y="-37" type="curve" smooth="yes"/>
      <point x="206.333" y="-45"/>
      <point x="203.5" y="-52.8333"/>
      <point x="200.5" y="-60.5" type="curve" smooth="yes"/>
      <point x="197.5" y="-68.1667"/>
      <point x="194" y="-76.3333"/>
      <point x="190" y="-85" type="curve" smooth="yes"/>
      <point x="186" y="-93.6667"/>
      <point x="181.667" y="-104.333"/>
      <point x="177" y="-117" type="curve" smooth="no"/>
    </contour>
  </outline>
</glyph>
<glyph name="hyphen" format="1">
  <advance width="1000"/>
  <unicode hex="002d"/>
  <outline>
    <contour>
      <point x="33" y="120" type="line" smooth="no"/>
      <point x="33" y="242" type="line" smooth="no"/>
      <point x="392.16" y="242" type="line" smooth="no"/>
      <point x="392" y="121" type="line" smooth="no"/>
    </contour>
  </outline>
</glyph>
<glyph name="period" format="1">
  <advance width="266"/>
  <unicode hex="002e"/>
  <outline>
    <contour>
      <point x="209" y="147" type="line" smooth="no"/>
      <point x="208" y="0" type="line" smooth="no"/>
      <point x="50" y="0" type="line" smooth="no"/>
      <point x="50" y="147" type="line" smooth="no"/>
    </contour>
  </outline>
</glyph>
<glyph name="slash" format="1">
  <advance width="488"/>
  <unicode hex="002f"/>
  <outline>
    <contour>
      <point x="453" y="684" type="line" smooth="no"/>
      <point x="196" y="-1" type="line" smooth="no"/>
      <point x="50" y="1" type="line" smooth="no"/>
      <point x="311" y="684" type="line" smooth="no"/>
    </contour>
  </outline>
</glyph>
<glyph name="zero" format="1">
  <advance width="540"/>
  <unicode hex="0030"/>
  <outline>
    <contour>
      <point x="311.11" y="675.175" type="line" smooth="no"/>
      <point x="311.11" y="675.175"/>
      <point x="65.335" y="728.428"/>
      <point x="65.335" y="363.263" type="curve" smooth="yes"/>
      <point x="65.335" y="39.9395"/>
      <point x="177.978" y="-13.3125"/>
      <point x="267.367" y="-7.6084" type="curve" smooth="yes"/>
      <point x="394.593" y="0.512695"/>
      <point x="492.202" y="49.4492"/>
      <point x="492.202" y="329.028" type="curve" smooth="no"/>
      <point x="492.202" y="473.573"/>
      <point x="495.595" y="635.234"/>
      <point x="324.424" y="675.175" type="curve" smooth="no"/>
      <point x="324.424" y="188.288" type="line" smooth="no"/>
      <point x="324.424" y="188.288"/>
      <point x="311.11" y="163.563"/>
      <point x="274.975" y="163.563" type="curve" smooth="yes"/>
      <point x="225.524" y="163.563"/>
      <point x="229.329" y="197.798"/>
      <point x="229.329" y="197.798" type="curve" smooth="no"/>
      <point x="229.329" y="464.063" type="line" smooth="no"/>
      <point x="229.329" y="462.162"/>
      <point x="233.133" y="509.709"/>
      <point x="269.269" y="509.709" type="curve" smooth="yes"/>
      <point x="305.404" y="509.709"/>
      <point x="294.792" y="502.748"/>
      <point x="311.11" y="498.298" type="curve" smooth="no"/>
    </contour>
  </outline>
</glyph>
<glyph name="uni0031" format="1">
  <advance width="481"/>
  <unicode hex="0031"/>
  <outline>
    <contour>
      <point x="107.04" y="355.2" type="line" smooth="no"/>
      <point x="107.04" y="487.68" type="line" smooth="no"/>
      <point x="228" y="668.16" type="line" smooth="no"/>
      <point x="354.72" y="670.08" type="line" smooth="no"/>
      <point x="360.48" y="0" type="line" smooth="no"/>
      <point x="214.56" y="0" type="line" smooth="no"/>
      <point x="214.56" y="422.4" type="line" smooth="no"/>
    </contour>
  </outline>
</glyph>
<glyph name="uni0032" format="1">
  <advance width="607"/>
  <unicode hex="0032"/>
  <outline>
    <contour>
      <point x="485.4" y="0" type="line" smooth="no"/>
      <point x="486.36" y="126.72" type="line" smooth="no"/>
      <point x="276.12" y="126.72" type="line" smooth="yes"/>
      <point x="276.12" y="201.6"/>
      <point x="488.28" y="336.96"/>
      <point x="488.28" y="499.2" type="curve" smooth="yes"/>
      <point x="488.28" y="585.6"/>
      <point x="436.44" y="676.8"/>
      <point x="336.6" y="676.8" type="curve" smooth="yes"/>
      <point x="119.64" y="676.8"/>
      <point x="135.96" y="443.52"/>
      <point x="135" y="443.52" type="curve" smooth="no"/>
      <point x="255.96" y="437.76" type="line" smooth="no"/>
      <point x="255.96" y="437.76"/>
      <point x="246.36" y="531.84"/>
      <point x="305.88" y="531.84" type="curve" smooth="no"/>
      <point x="351.96" y="531.84"/>
      <point x="350.04" y="477.12"/>
      <point x="350.04" y="477.12" type="curve" smooth="yes"/>
      <point x="350.04" y="349.44"/>
      <point x="111.96" y="318.72"/>
      <point x="111.96" y="55.6797" type="curve" smooth="yes"/>
      <point x="111.96" y="0" type="line" smooth="no"/>
    </contour>
  </outline>
</glyph>
<glyph name="uni0033" format="1">
  <advance width="621"/>
  <unicode hex="0033"/>
  <outline>
    <contour>
      <point x="127.24" y="668.16" type="line" smooth="no"/>
      <point x="123.4" y="533.76" type="line" smooth="no"/>
      <point x="273.16" y="533.76" type="line" smooth="no"/>
      <point x="133" y="382.08" type="line" smooth="no"/>
      <point x="221.32" y="291.84" type="line" smooth="no"/>
      <point x="221.32" y="292.8"/>
      <point x="263.56" y="335.04"/>
      <point x="301.96" y="335.04" type="curve" smooth="no"/>
      <point x="352.84" y="335.04"/>
      <point x="353.016" y="287.827"/>
      <point x="351.88" y="288" type="curve" smooth="no"/>
      <point x="351.88" y="198.72" type="line" smooth="no"/>
      <point x="351.88" y="198.72"/>
      <point x="355.72" y="146.88"/>
      <point x="305.8" y="146.88" type="curve" smooth="no"/>
      <point x="261.64" y="146.88"/>
      <point x="263.56" y="188.16"/>
      <point x="263.56" y="188.16" type="curve" smooth="no"/>
      <point x="263.56" y="218.88" type="line" smooth="no"/>
      <point x="113.8" y="218.88" type="line" smooth="no"/>
      <point x="113.8" y="218.88"/>
      <point x="99.4004" y="0"/>
      <point x="307.72" y="-1.91992" type="curve" smooth="yes"/>
      <point x="515.08" y="-3.83105"/>
      <point x="503.56" y="172.8"/>
      <point x="503.56" y="170.88" type="curve" smooth="no"/>
      <point x="499.72" y="376.32" type="line" smooth="no"/>
      <point x="499.72" y="376.32"/>
      <point x="496.84" y="445.44"/>
      <point x="379.72" y="445.44" type="curve" smooth="yes"/>
      <point x="495.88" y="556.8" type="line" smooth="no"/>
      <point x="493.96" y="668.16" type="line" smooth="no"/>
    </contour>
  </outline>
</glyph>
<glyph name="uni0034" format="1">
  <advance width="666"/>
  <unicode hex="0034"/>
  <outline>
    <contour>
      <point x="345.24" y="483.84" type="line" smooth="no"/>
      <point x="238.68" y="305.28" type="line" smooth="no"/>
      <point x="346.2" y="305.28" type="line" smooth="no"/>
    </contour>
    <contour>
      <point x="336.6" y="677.76" type="line" smooth="no"/>
      <point x="494.04" y="676.8" type="line" smooth="no"/>
      <point x="492.12" y="299.52" type="line" smooth="no"/>
      <point x="557.4" y="297.6" type="line" smooth="no"/>
      <point x="553.56" y="155.52" type="line" smooth="no"/>
      <point x="492.12" y="155.52" type="line" smooth="no"/>
      <point x="492.12" y="0" type="line" smooth="no"/>
      <point x="353.88" y="0" type="line" smooth="no"/>
      <point x="351.96" y="157.44" type="line" smooth="no"/>
      <point x="104.28" y="157.44" type="line" smooth="no"/>
      <point x="102.36" y="293.76" type="line" smooth="no"/>
    </contour>
  </outline>
</glyph>
<glyph name="uni0035" format="1">
  <advance width="615"/>
  <unicode hex="0035"/>
  <outline>
    <contour>
      <point x="120.64" y="679.68" type="line" smooth="no"/>
      <point x="120.64" y="299.52" type="line" smooth="no"/>
      <point x="262.72" y="299.52" type="line" smooth="no"/>
      <point x="261.76" y="300.48"/>
      <point x="277.253" y="333.12"/>
      <point x="304.96" y="333.12" type="curve" smooth="no"/>
      <point x="362.56" y="335.04"/>
      <point x="358.72" y="276.756"/>
      <point x="358.72" y="278.4" type="curve" smooth="no"/>
      <point x="356.8" y="197.76" type="line" smooth="no"/>
      <point x="356.8" y="197.76"/>
      <point x="357.76" y="145.92"/>
      <point x="303.04" y="145.92" type="curve" smooth="yes"/>
      <point x="258.88" y="145.92"/>
      <point x="258.88" y="188.16"/>
      <point x="258.88" y="188.16" type="curve" smooth="no"/>
      <point x="258.88" y="216.96" type="line" smooth="no"/>
      <point x="122.56" y="219.84" type="line" smooth="no"/>
      <point x="122.56" y="130.56" type="line" smooth="no"/>
      <point x="122.56" y="130.56"/>
      <point x="136.96" y="0"/>
      <point x="317.44" y="-0.959961" type="curve" smooth="yes"/>
      <point x="480.637" y="-1.82812"/>
      <point x="493.12" y="154.56"/>
      <point x="493.12" y="154.56" type="curve" smooth="no"/>
      <point x="496.96" y="342.72" type="line" smooth="no"/>
      <point x="496.96" y="342.72"/>
      <point x="490.24" y="456"/>
      <point x="372.16" y="456" type="curve" smooth="yes"/>
      <point x="319.36" y="456"/>
      <point x="266.56" y="426.24"/>
      <point x="266.56" y="426.24" type="curve" smooth="no"/>
      <point x="266.56" y="539.52" type="line" smooth="no"/>
      <point x="496.96" y="545.28" type="line" smooth="no"/>
      <point x="496.96" y="679.68" type="line" smooth="no"/>
    </contour>
  </outline>
</glyph>
<glyph name="uni0036" format="1">
  <advance width="610"/>
  <unicode hex="0036"/>
  <outline>
    <contour>
      <point x="359.68" y="388.8" type="curve" smooth="no"/>
      <point x="321.78" y="390.431"/>
      <point x="304.882" y="379.149"/>
      <point x="270.4" y="364.8" type="curve" smooth="no"/>
      <point x="270.4" y="249.6" type="line" smooth="no"/>
      <point x="270.4" y="249.6"/>
      <point x="276.16" y="263.04"/>
      <point x="308.8" y="263.04" type="curve" smooth="yes"/>
      <point x="341.44" y="263.04"/>
      <point x="347.2" y="224.64"/>
      <point x="347.2" y="224.64" type="curve" smooth="yes"/>
      <point x="347.2" y="224.64"/>
      <point x="362.56" y="138.24"/>
      <point x="301.12" y="138.24" type="curve" smooth="yes"/>
      <point x="258.837" y="138.24"/>
      <point x="260.8" y="184.32"/>
      <point x="260.8" y="184.32" type="curve" smooth="no"/>
      <point x="260.8" y="474.24" type="line" smooth="no"/>
      <point x="260.8" y="474.24"/>
      <point x="260.8" y="532.8"/>
      <point x="308.8" y="532.8" type="curve" smooth="no"/>
      <point x="374.08" y="532.8"/>
      <point x="360.64" y="452.16"/>
      <point x="360.64" y="452.16" type="curve" smooth="no"/>
      <point x="493.12" y="456.96" type="line" smooth="no"/>
      <point x="493.12" y="524.16" type="line" smooth="no"/>
      <point x="492.16" y="524.16"/>
      <point x="491.2" y="668.16"/>
      <point x="316.48" y="668.16" type="curve" smooth="yes"/>
      <point x="157.12" y="668.16"/>
      <point x="118.72" y="543.36"/>
      <point x="118.72" y="501.12" type="curve" smooth="no"/>
      <point x="118.72" y="159.36" type="line" smooth="no"/>
      <point x="118.72" y="159.36"/>
      <point x="127.36" y="0"/>
      <point x="293.44" y="0" type="curve" smooth="yes"/>
      <point x="475.84" y="0"/>
      <point x="491.2" y="182.4"/>
      <point x="491.2" y="182.4" type="curve" smooth="no"/>
      <point x="491.2" y="272.64"/>
      <point x="483.52" y="388.8"/>
    </contour>
  </outline>
</glyph>
<glyph name="uni0037" format="1">
  <advance width="559"/>
  <unicode hex="0037"/>
  <outline>
    <contour>
      <point x="129.96" y="529.92" type="line" smooth="no"/>
      <point x="131.88" y="666.24" type="line" smooth="no"/>
      <point x="464.04" y="666.24" type="line" smooth="no"/>
      <point x="462.12" y="557.76" type="line" smooth="no"/>
      <point x="235.56" y="-0.959961" type="line" smooth="no"/>
      <point x="93.4805" y="0" type="line" smooth="no"/>
      <point x="298.92" y="531.84" type="line" smooth="no"/>
    </contour>
  </outline>
</glyph>
<glyph name="uni0038" format="1">
  <advance width="613"/>
  <unicode hex="0038"/>
  <outline>
    <contour>
      <point x="258.88" y="256.32" type="curve" smooth="no"/>
      <point x="258.88" y="341.76"/>
      <point x="489.28" y="340.8"/>
      <point x="489.28" y="453.12" type="curve" smooth="no"/>
      <point x="489.28" y="565.44"/>
      <point x="489.28" y="691.2"/>
      <point x="291.52" y="691.2" type="curve" smooth="no"/>
      <point x="249.28" y="691.2"/>
      <point x="118.576" y="668.147"/>
      <point x="116.8" y="537.6" type="curve" smooth="yes"/>
      <point x="114.88" y="396.48"/>
      <point x="166.72" y="372.48"/>
      <point x="167.68" y="371.52" type="curve" smooth="no"/>
      <point x="193.6" y="392.64"/>
      <point x="244.48" y="410.88"/>
      <point x="282.88" y="424.32" type="curve" smooth="no"/>
      <point x="255.04" y="453.12"/>
      <point x="246.4" y="463.68"/>
      <point x="246.4" y="508.8" type="curve" smooth="yes"/>
      <point x="246.4" y="508.8"/>
      <point x="243.596" y="560.695"/>
      <point x="296.32" y="563.52" type="curve" smooth="yes"/>
      <point x="350.08" y="566.4"/>
      <point x="343.36" y="500.16"/>
      <point x="343.36" y="473.28" type="curve" smooth="yes"/>
      <point x="343.36" y="384"/>
      <point x="117.76" y="435.84"/>
      <point x="120.64" y="240.96" type="curve" smooth="yes"/>
      <point x="122.172" y="137.291"/>
      <point x="126.405" y="-2.26953"/>
      <point x="299.2" y="-0.959961" type="curve" smooth="yes"/>
      <point x="425.92" y="0"/>
      <point x="496.96" y="87.3604"/>
      <point x="496.96" y="209.28" type="curve" smooth="yes"/>
      <point x="496.96" y="336.96"/>
      <point x="447.04" y="374.4"/>
      <point x="447.04" y="374.4" type="curve" smooth="no"/>
      <point x="399.04" y="337.92"/>
      <point x="358.72" y="336.96"/>
      <point x="310.72" y="307.2" type="curve" smooth="no"/>
      <point x="331.84" y="286.08"/>
      <point x="353.92" y="264.96"/>
      <point x="353.92" y="232.32" type="curve" smooth="yes"/>
      <point x="353.92" y="199.68"/>
      <point x="362.56" y="149.76"/>
      <point x="307.84" y="149.76" type="curve" smooth="no"/>
      <point x="246.4" y="149.76"/>
      <point x="259.712" y="205.892"/>
    </contour>
  </outline>
</glyph>
<glyph name="uni0039" format="1">
  <advance width="609"/>
  <unicode hex="0039"/>
  <outline>
    <contour>
      <point x="250.16" y="279.36" type="curve" smooth="no"/>
      <point x="288.06" y="277.729"/>
      <point x="307.838" y="289.012"/>
      <point x="342.32" y="303.36" type="curve" smooth="no"/>
      <point x="342.32" y="418.56" type="line" smooth="no"/>
      <point x="342.32" y="418.56"/>
      <point x="333.68" y="405.12"/>
      <point x="301.04" y="405.12" type="curve" smooth="yes"/>
      <point x="268.4" y="405.12"/>
      <point x="262.64" y="443.52"/>
      <point x="262.64" y="443.52" type="curve" smooth="yes"/>
      <point x="262.64" y="443.52"/>
      <point x="247.28" y="529.92"/>
      <point x="308.72" y="529.92" type="curve" smooth="yes"/>
      <point x="351.003" y="529.92"/>
      <point x="350.96" y="483.84"/>
      <point x="350.96" y="483.84" type="curve" smooth="no"/>
      <point x="350.96" y="193.92" type="line" smooth="no"/>
      <point x="350.96" y="193.92"/>
      <point x="349.04" y="135.36"/>
      <point x="301.04" y="135.36" type="curve" smooth="no"/>
      <point x="235.76" y="135.36"/>
      <point x="249.2" y="216"/>
      <point x="249.2" y="216" type="curve" smooth="no"/>
      <point x="116.72" y="211.2" type="line" smooth="no"/>
      <point x="116.72" y="144" type="line" smooth="no"/>
      <point x="117.68" y="144"/>
      <point x="118.64" y="0"/>
      <point x="293.36" y="0" type="curve" smooth="yes"/>
      <point x="452.72" y="0"/>
      <point x="491.12" y="124.8"/>
      <point x="491.12" y="167.04" type="curve" smooth="no"/>
      <point x="491.12" y="508.8" type="line" smooth="no"/>
      <point x="491.12" y="508.8"/>
      <point x="482.48" y="668.16"/>
      <point x="316.4" y="668.16" type="curve" smooth="yes"/>
      <point x="116.72" y="668.16"/>
      <point x="118.64" y="485.76"/>
      <point x="118.64" y="485.76" type="curve" smooth="no"/>
      <point x="118.64" y="395.52"/>
      <point x="126.32" y="279.36"/>
    </contour>
  </outline>
</glyph>
<glyph name="semicolon" format="1">
  <advance width="319"/>
  <unicode hex="003b"/>
  <outline>
    <contour>
      <point x="239" y="397" type="line" smooth="no"/>
      <point x="238" y="250" type="line" smooth="no"/>
      <point x="80" y="250" type="line" smooth="no"/>
      <point x="80" y="397" type="line" smooth="no"/>
    </contour>
    <contour>
      <point x="121" y="-118" type="line" smooth="no"/>
      <point x="145" y="0" type="line" smooth="no"/>
      <point x="85" y="0" type="line" smooth="no"/>
      <point x="85" y="158" type="line" smooth="no"/>
      <point x="234" y="158" type="line" smooth="no"/>
      <point x="234.667" y="136.667"/>
      <point x="234.667" y="115.667"/>
      <point x="234" y="95" type="curve" smooth="yes"/>
      <point x="233.333" y="77.667"/>
      <point x="232.333" y="59.5"/>
      <point x="231" y="40.5" type="curve" smooth="yes"/>
      <point x="229.667" y="21.5"/>
      <point x="227.667" y="5.33301"/>
      <point x="225" y="-8" type="curve" smooth="yes"/>
      <point x="223" y="-19.333"/>
      <point x="220.667" y="-29"/>
      <point x="218" y="-37" type="curve" smooth="yes"/>
      <point x="215.333" y="-45"/>
      <point x="212.5" y="-52.833"/>
      <point x="209.5" y="-60.5" type="curve" smooth="yes"/>
      <point x="206.5" y="-68.167"/>
      <point x="203" y="-76.333"/>
      <point x="199" y="-85" type="curve" smooth="yes"/>
      <point x="195" y="-93.667"/>
      <point x="190.667" y="-104.333"/>
      <point x="186" y="-117" type="curve" smooth="no"/>
    </contour>
  </outline>
</glyph>
<glyph name="less" format="1">
  <advance width="466"/>
  <unicode hex="003c"/>
  <outline>
    <contour>
      <point x="205" y="197" type="line" smooth="no"/>
      <point x="402" y="400" type="line" smooth="no"/>
      <point x="262" y="400" type="line" smooth="no"/>
      <point x="61" y="196" type="line" smooth="no"/>
      <point x="259" y="0" type="line" smooth="no"/>
      <point x="406" y="0" type="line" smooth="no"/>
    </contour>
  </outline>
</glyph>
<glyph name="equal" format="1">
  <advance width="454"/>
  <unicode hex="003d"/>
  <outline>
    <contour>
      <point x="33" y="227" type="line" smooth="no"/>
      <point x="33" y="349" type="line" smooth="no"/>
      <point x="392.16" y="349" type="line" smooth="no"/>
      <point x="392" y="228" type="line" smooth="no"/>
    </contour>
    <contour>
      <point x="33" y="58" type="line" smooth="no"/>
      <point x="33" y="180" type="line" smooth="no"/>
      <point x="392.16" y="180" type="line" smooth="no"/>
      <point x="392" y="59" type="line" smooth="no"/>
    </contour>
  </outline>
</glyph>
<glyph name="greater" format="1">
  <advance width="466"/>
  <unicode hex="003e"/>
  <outline>
    <contour>
      <point x="262" y="197" type="line" smooth="no"/>
      <point x="65" y="400" type="line" smooth="no"/>
      <point x="205" y="400" type="line" smooth="no"/>
      <point x="406" y="196" type="line" smooth="no"/>
      <point x="208" y="0" type="line" smooth="no"/>
      <point x="61" y="0" type="line" smooth="no"/>
    </contour>
  </outline>
</glyph>
<glyph name="question" format="1">
  <advance width="607"/>
  <unicode hex="003f"/>
  <outline>
    <contour>
      <point x="227" y="136" type="line" smooth="no"/>
      <point x="164" y="136" type="line" smooth="no"/>
      <point x="163.96" y="193.68" type="line" smooth="no"/>
      <point x="165.906" y="353.208"/>
      <point x="316.04" y="372"/>
      <point x="316.04" y="477.12" type="curve" smooth="no"/>
      <point x="316.04" y="477.12"/>
      <point x="317.933" y="533.412"/>
      <point x="271.88" y="531.84" type="curve" smooth="yes"/>
      <point x="218" y="530"/>
      <point x="218.96" y="460.76"/>
      <point x="218.96" y="460.76" type="curve" smooth="no"/>
      <point x="110" y="507" type="line" smooth="yes"/>
      <point x="109.117" y="507.393"/>
      <point x="99" y="676.8"/>
      <point x="295.6" y="676.8" type="curve" smooth="yes"/>
      <point x="395.44" y="676.8"/>
      <point x="456.28" y="585.6"/>
      <point x="456.28" y="499.2" type="curve" smooth="yes"/>
      <point x="456.28" y="336.96"/>
      <point x="303.12" y="290"/>
      <point x="303.12" y="214.72" type="curve" smooth="yes"/>
      <point x="303.12" y="136" type="line" smooth="no"/>
      <point x="240" y="136" type="line" smooth="no"/>
      <point x="240" y="121" type="line" smooth="no"/>
      <point x="305" y="121" type="line" smooth="no"/>
      <point x="304" y="0" type="line" smooth="no"/>
      <point x="165" y="0" type="line" smooth="no"/>
      <point x="165" y="121" type="line" smooth="no"/>
      <point x="227" y="121" type="line" smooth="no"/>
    </contour>
  </outline>
</glyph>
<glyph name="uni0041" format="1">
  <advance width="507"/>
  <unicode hex="0041"/>
  <outline>
    <contour>
      <point x="222.04" y="211.2" type="line" smooth="no"/>
      <point x="289.24" y="213.12" type="line" smooth="no"/>
      <point x="253.721" y="337.92" type="line" smooth="no"/>
    </contour>
    <contour>
      <point x="317.08" y="669.12" type="line" smooth="no"/>
      <point x="487" y="0" type="line" smooth="no"/>
      <point x="337.24" y="0" type="line" smooth="no"/>
      <point x="310.36" y="109.44" type="line" smooth="no"/>
      <point x="197.08" y="107.52" type="line" smooth="no"/>
      <point x="172.12" y="0" type="line" smooth="no"/>
      <point x="20.4395" y="0" type="line" smooth="no"/>
      <point x="191.32" y="668.16" type="line" smooth="no"/>
    </contour>
  </outline>
</glyph>
<glyph name="uni0042" format="1">
  <advance width="471"/>
  <unicode hex="0042"/>
  <outline>
    <contour>
      <point x="203.64" y="288" type="curve" smooth="no"/>
      <point x="203.64" y="128.64" type="line" smooth="no"/>
      <point x="234.359" y="128.64"/>
      <point x="269.88" y="123.84"/>
      <point x="269.88" y="172.8" type="curve" smooth="yes"/>
      <point x="269.88" y="242.88" type="line" smooth="no"/>
      <point x="267.479" y="293.76"/>
      <point x="250.2" y="288"/>
    </contour>
    <contour>
      <point x="271.8" y="491.52" type="curve" smooth="no"/>
      <point x="271.8" y="552.96"/>
      <point x="246.359" y="543.36"/>
      <point x="202.68" y="543.36" type="curve" smooth="no"/>
      <point x="202.68" y="424.32" type="line" smooth="no"/>
      <point x="237.72" y="424.32"/>
      <point x="271.8" y="414.72"/>
    </contour>
    <contour>
      <point x="70.2002" y="669.12" type="line" smooth="no"/>
      <point x="289.08" y="669.12" type="line" smooth="no"/>
      <point x="394.68" y="668.16"/>
      <point x="411" y="574.08"/>
      <point x="411" y="511.68" type="curve" smooth="no"/>
      <point x="411" y="398.4"/>
      <point x="340.92" y="372.48"/>
      <point x="340.92" y="372.48" type="curve" smooth="yes"/>
      <point x="340.92" y="372.48"/>
      <point x="411" y="349.44"/>
      <point x="411" y="258.24" type="curve" smooth="yes"/>
      <point x="411" y="133.44" type="line" smooth="no"/>
      <point x="411" y="13.4404"/>
      <point x="350.52" y="0"/>
      <point x="254.52" y="0" type="curve" smooth="no"/>
      <point x="70.2002" y="0" type="line" smooth="no"/>
    </contour>
  </outline>
</glyph>
<glyph name="uni0043" format="1">
  <advance width="476"/>
  <unicode hex="0043"/>
  <outline>
    <contour>
      <point x="424.658" y="445.44" type="curve" smooth="no"/>
      <point x="290.258" y="445.44" type="line" smooth="no"/>
      <point x="290.258" y="491.52" type="line" smooth="no"/>
      <point x="290.258" y="491.52"/>
      <point x="294.098" y="534.72"/>
      <point x="240.338" y="534.72" type="curve" smooth="yes"/>
      <point x="193.298" y="534.72"/>
      <point x="195.218" y="466.56"/>
      <point x="195.218" y="466.56" type="curve" smooth="no"/>
      <point x="196.178" y="199.68" type="line" smooth="no"/>
      <point x="196.178" y="199.68"/>
      <point x="192.338" y="137.28"/>
      <point x="238.418" y="137.28" type="curve" smooth="no"/>
      <point x="298.897" y="135.36"/>
      <point x="290.258" y="222.72"/>
      <point x="288.338" y="259.2" type="curve" smooth="no"/>
      <point x="418.897" y="259.2" type="line" smooth="no"/>
      <point x="418.897" y="160.32" type="line" smooth="no"/>
      <point x="418.897" y="160.32"/>
      <point x="424.676" y="1.125"/>
      <point x="227.857" y="0" type="curve" smooth="yes"/>
      <point x="59.8574" y="-0.959961"/>
      <point x="59.8574" y="163.2"/>
      <point x="59.8574" y="163.2" type="curve" smooth="no"/>
      <point x="61.7773" y="529.92" type="line" smooth="no"/>
      <point x="61.7773" y="528.74"/>
      <point x="71.3779" y="668.16"/>
      <point x="244.178" y="668.16" type="curve" smooth="no"/>
      <point x="453.458" y="668.16"/>
      <point x="424.658" y="445.44"/>
    </contour>
  </outline>
</glyph>
<glyph name="uni0044" format="1">
  <advance width="496"/>
  <unicode hex="0044"/>
  <outline>
    <contour>
      <point x="210.159" y="130.56" type="line" smooth="no"/>
      <point x="286.96" y="130.56"/>
      <point x="289.84" y="133.44"/>
      <point x="289.84" y="191.04" type="curve" smooth="no"/>
      <point x="298.479" y="503.04" type="line" smooth="no"/>
      <point x="298.479" y="545.28"/>
      <point x="286.479" y="544.32"/>
      <point x="216.88" y="544.32" type="curve" smooth="no"/>
    </contour>
    <contour>
      <point x="435.76" y="389.76" type="curve" smooth="no"/>
      <point x="435.76" y="-12.4805"/>
      <point x="412.72" y="0"/>
      <point x="271.6" y="0" type="curve" smooth="no"/>
      <point x="70" y="0" type="line" smooth="no"/>
      <point x="70" y="668.16" type="line" smooth="no"/>
      <point x="193.84" y="668.16" type="line" smooth="no"/>
      <point x="461.68" y="668.16"/>
      <point x="435.76" y="640.32"/>
    </contour>
  </outline>
</glyph>
<glyph name="uni0045" format="1">
  <advance width="440"/>
  <unicode hex="0045"/>
  <outline>
    <contour>
      <point x="69.7207" y="667.2" type="line" smooth="no"/>
      <point x="375" y="668.16" type="line" smooth="no"/>
      <point x="373.08" y="545.28" type="line" smooth="no"/>
      <point x="217.561" y="541.44" type="line" smooth="no"/>
      <point x="219.48" y="414.72" type="line" smooth="no"/>
      <point x="375" y="414.72" type="line" smooth="no"/>
      <point x="373.08" y="284.16" type="line" smooth="no"/>
      <point x="219.48" y="280.32" type="line" smooth="no"/>
      <point x="219.48" y="126.72" type="line" smooth="no"/>
      <point x="375" y="124.8" type="line" smooth="no"/>
      <point x="371.16" y="0" type="line" smooth="no"/>
      <point x="70.6807" y="0" type="line" smooth="no"/>
    </contour>
  </outline>
</glyph>
<glyph name="uni0046" format="1">
  <advance width="541"/>
  <unicode hex="0046"/>
  <outline>
    <contour>
      <point x="122.28" y="662.4" type="line" smooth="no"/>
      <point x="416.04" y="672" type="line" smooth="no"/>
      <point x="419.88" y="537.6" type="line" smooth="no"/>
      <point x="270.12" y="531.84" type="line" smooth="no"/>
      <point x="269.16" y="401.28" type="line" smooth="no"/>
      <point x="423.72" y="407.04" type="line" smooth="no"/>
      <point x="420.84" y="261.12" type="line" smooth="no"/>
      <point x="268.2" y="257.28" type="line" smooth="no"/>
      <point x="266.28" y="0" type="line" smooth="no"/>
      <point x="122.28" y="0" type="line" smooth="no"/>
    </contour>
  </outline>
</glyph>
<glyph name="uni0047" format="1">
  <advance width="616"/>
  <unicode hex="0047"/>
  <outline>
    <contour>
      <point x="118.72" y="509.76" type="curve" smooth="no"/>
      <point x="118.72" y="165.12" type="line" smooth="no"/>
      <point x="118.72" y="165.12"/>
      <point x="118.72" y="0"/>
      <point x="283.84" y="0" type="curve" smooth="yes"/>
      <point x="498.88" y="0"/>
      <point x="493.12" y="153.6"/>
      <point x="493.12" y="154.56" type="curve" smooth="no"/>
      <point x="494.08" y="316.8" type="line" smooth="no"/>
      <point x="314.56" y="316.8" type="line" smooth="no"/>
      <point x="314.56" y="213.12" type="line" smooth="no"/>
      <point x="352.96" y="213.12" type="line" smooth="no"/>
      <point x="352.96" y="210.24"/>
      <point x="362.56" y="134.4"/>
      <point x="306.88" y="134.4" type="curve" smooth="yes"/>
      <point x="262.679" y="134.4"/>
      <point x="262.72" y="190.08"/>
      <point x="262.72" y="190.08" type="curve" smooth="no"/>
      <point x="262.72" y="477.12" type="line" smooth="no"/>
      <point x="263.68" y="477.12"/>
      <point x="258.88" y="532.8"/>
      <point x="304.96" y="532.8" type="curve" smooth="yes"/>
      <point x="360.64" y="532.8"/>
      <point x="350.08" y="438.72"/>
      <point x="351.04" y="438.72" type="curve" smooth="no"/>
      <point x="497.92" y="432" type="line" smooth="no"/>
      <point x="497.92" y="432.96"/>
      <point x="531.52" y="668.16"/>
      <point x="307.84" y="668.16" type="curve" smooth="no"/>
      <point x="118.72" y="668.16"/>
      <point x="118.72" y="509.76"/>
    </contour>
  </outline>
</glyph>
<glyph name="uni0048" format="1">
  <advance width="587"/>
  <unicode hex="0048"/>
  <outline>
    <contour>
      <point x="122.24" y="666.24" type="line" smooth="no"/>
      <point x="258.56" y="665.28" type="line" smooth="no"/>
      <point x="256.64" y="397.44" type="line" smooth="no"/>
      <point x="335.36" y="399.36" type="line" smooth="no"/>
      <point x="337.28" y="668.16" type="line" smooth="no"/>
      <point x="465.92" y="664.32" type="line" smooth="no"/>
      <point x="461.12" y="0" type="line" smooth="no"/>
      <point x="335.36" y="0" type="line" smooth="no"/>
      <point x="331.52" y="264.96" type="line" smooth="no"/>
      <point x="258.56" y="266.88" type="line" smooth="no"/>
      <point x="254.72" y="0" type="line" smooth="no"/>
      <point x="122.24" y="0" type="line" smooth="no"/>
    </contour>
  </outline>
</glyph>
<glyph name="uni0049" format="1">
  <advance width="384"/>
  <unicode hex="0049"/>
  <outline>
    <contour>
      <point x="122.24" y="666.24" type="line" smooth="no"/>
      <point x="266.24" y="666.24" type="line" smooth="no"/>
      <point x="252.8" y="0" type="line" smooth="no"/>
      <point x="122.24" y="0" type="line" smooth="no"/>
    </contour>
  </outline>
</glyph>
<glyph name="uni004A" format="1">
  <advance width="590"/>
  <unicode hex="004a"/>
  <outline>
    <contour>
      <point x="240.2" y="272.64" type="line" smooth="no"/>
      <point x="240.2" y="192" type="line" smooth="no"/>
      <point x="240.2" y="192"/>
      <point x="244.04" y="151.68"/>
      <point x="280.52" y="151.68" type="curve" smooth="yes"/>
      <point x="336.2" y="151.68"/>
      <point x="332.36" y="220.8"/>
      <point x="332.36" y="220.8" type="curve" smooth="no"/>
      <point x="334.28" y="541.44" type="line" smooth="no"/>
      <point x="242.12" y="541.44" type="line" smooth="no"/>
      <point x="242.12" y="668.16" type="line" smooth="no"/>
      <point x="468.68" y="668.16" type="line" smooth="no"/>
      <point x="468.68" y="182.4" type="line" smooth="no"/>
      <point x="468.68" y="130.56"/>
      <point x="445.64" y="0"/>
      <point x="280.52" y="0" type="curve" smooth="no"/>
      <point x="92.3604" y="0"/>
      <point x="103.88" y="193.92"/>
      <point x="103.88" y="193.92" type="curve" smooth="no"/>
      <point x="103.88" y="274.56" type="line" smooth="no"/>
    </contour>
  </outline>
</glyph>
<glyph name="uni004B" format="1">
  <advance width="663"/>
  <unicode hex="004b"/>
  <outline>
    <contour>
      <point x="122.24" y="667.2" type="line" smooth="no"/>
      <point x="122.24" y="0" type="line" smooth="no"/>
      <point x="264.32" y="0" type="line" smooth="no"/>
      <point x="272.96" y="276.48" type="line" smooth="no"/>
      <point x="389.12" y="0" type="line" smooth="no"/>
      <point x="548.48" y="0" type="line" smooth="no"/>
      <point x="392.96" y="393.6" type="line" smooth="no"/>
      <point x="556.16" y="555.84" type="line" smooth="no"/>
      <point x="464.96" y="676.8" type="line" smooth="no"/>
      <point x="270.08" y="476.16" type="line" smooth="no"/>
      <point x="270.08" y="667.2" type="line" smooth="no"/>
    </contour>
  </outline>
</glyph>
<glyph name="uni004C" format="1">
  <advance width="535"/>
  <unicode hex="004c"/>
  <outline>
    <contour>
      <point x="121.32" y="672" type="line" smooth="no"/>
      <point x="269.16" y="666.24" type="line" smooth="no"/>
      <point x="269.16" y="149.76" type="line" smooth="no"/>
      <point x="430.44" y="144" type="line" smooth="no"/>
      <point x="427.56" y="0" type="line" smooth="no"/>
      <point x="125.16" y="0" type="line" smooth="no"/>
    </contour>
  </outline>
</glyph>
<glyph name="uni004D" format="1">
  <advance width="720"/>
  <unicode hex="004d"/>
  <outline>
    <contour>
      <point x="124.2" y="2.87988" type="line" smooth="no"/>
      <point x="122.28" y="669.12" type="line" smooth="no"/>
      <point x="272.04" y="667.2" type="line" smooth="no"/>
      <point x="358.44" y="521.28" type="line" smooth="no"/>
      <point x="433.32" y="667.2" type="line" smooth="no"/>
      <point x="592.68" y="661.44" type="line" smooth="no"/>
      <point x="600.36" y="0" type="line" smooth="no"/>
      <point x="452.52" y="0" type="line" smooth="no"/>
      <point x="445.8" y="359.04" type="line" smooth="no"/>
      <point x="370.84" y="236.16" type="line" smooth="no"/>
      <point x="268.2" y="352.32" type="line" smooth="no"/>
      <point x="272.04" y="0" type="line" smooth="no"/>
    </contour>
  </outline>
</glyph>
<glyph name="uni004E" format="1">
  <advance width="531"/>
  <unicode hex="004e"/>
  <outline>
    <contour>
      <point x="80.4404" y="664.32" type="line" smooth="no"/>
      <point x="203.316" y="666.24" type="line" smooth="no"/>
      <point x="307" y="489.6" type="line" smooth="no"/>
      <point x="310.84" y="668.16" type="line" smooth="no"/>
      <point x="451" y="666.24" type="line" smooth="no"/>
      <point x="447.156" y="0.959961" type="line" smooth="no"/>
      <point x="314.68" y="0.959961" type="line" smooth="no"/>
      <point x="312.76" y="168.96" type="line" smooth="no"/>
      <point x="228.276" y="299.52" type="line" smooth="no"/>
      <point x="230.196" y="-1.91992" type="line" smooth="no"/>
      <point x="84.2803" y="-1.91992" type="line" smooth="no"/>
    </contour>
  </outline>
</glyph>
<glyph name="uni0050" format="1">
  <advance width="596"/>
  <unicode hex="0050"/>
  <outline>
    <contour>
      <point x="271.64" y="407.52" type="curve" smooth="no"/>
      <point x="271.12" y="281.28" type="line" smooth="no"/>
      <point x="383.48" y="281.28" type="line" smooth="no"/>
      <point x="383.48" y="281.28"/>
      <point x="483.32" y="282.24"/>
      <point x="482.36" y="394.56" type="curve" smooth="yes"/>
      <point x="481.573" y="486.716"/>
      <point x="482.36" y="492.94"/>
      <point x="482.36" y="555.84" type="curve" smooth="no"/>
      <point x="482.36" y="601.92"/>
      <point x="456.44" y="668.16"/>
      <point x="350.84" y="668.16" type="curve" smooth="yes"/>
      <point x="122.36" y="668.16" type="line" smooth="no"/>
      <point x="122.36" y="0" type="line" smooth="no"/>
      <point x="260.6" y="0" type="line" smooth="no"/>
      <point x="260.6" y="520.32" type="line" smooth="no"/>
      <point x="332.12" y="520.32"/>
      <point x="340.76" y="527.04"/>
      <point x="340.76" y="468.48" type="curve" smooth="yes"/>
      <point x="340.76" y="399.84"/>
      <point x="332.6" y="407.52"/>
    </contour>
  </outline>
</glyph>
<glyph name="uni0051" format="1">
  <advance width="704"/>
  <unicode hex="0051"/>
  <outline>
    <contour>
      <point x="286.68" y="233.28" type="line" smooth="no"/>
      <point x="394.2" y="230.4" type="line" smooth="no"/>
      <point x="393.24" y="466.56" type="line" smooth="no"/>
      <point x="393.24" y="466.56"/>
      <point x="398.04" y="553.92"/>
      <point x="351.96" y="552.96" type="curve" smooth="no"/>
      <point x="306.84" y="552.96"/>
      <point x="285.72" y="504.96"/>
      <point x="285.72" y="430.08" type="curve" smooth="no"/>
    </contour>
    <contour>
      <point x="117.72" y="478.08" type="line" smooth="no"/>
      <point x="117.72" y="517.44"/>
      <point x="201.237" y="692.16"/>
      <point x="395.16" y="692.16" type="curve" smooth="no"/>
      <point x="428.76" y="692.16"/>
      <point x="533.4" y="672"/>
      <point x="533.4" y="546.24" type="curve" smooth="no"/>
      <point x="515.16" y="165.12" type="line" smooth="no"/>
      <point x="599.64" y="45.1201" type="line" smooth="no"/>
      <point x="474.84" y="1.91992" type="line" smooth="no"/>
      <point x="434.52" y="49.9199" type="line" smooth="no"/>
      <point x="434.52" y="49.9199"/>
      <point x="392.28" y="0"/>
      <point x="283.8" y="0.959961" type="curve" smooth="yes"/>
      <point x="157.085" y="2.08105"/>
      <point x="117.72" y="119.04"/>
      <point x="117.72" y="120.96" type="curve" smooth="no"/>
    </contour>
  </outline>
</glyph>
<glyph name="uni0052" format="1">
  <advance width="609"/>
  <unicode hex="0052"/>
  <outline>
    <contour>
      <point x="339.36" y="437.76" type="curve" smooth="yes"/>
      <point x="339.36" y="482.88" type="line" smooth="no"/>
      <point x="339.36" y="528.96"/>
      <point x="338.4" y="522.24"/>
      <point x="260.64" y="522.24" type="curve" smooth="no"/>
      <point x="260.64" y="0" type="line" smooth="no"/>
      <point x="122.4" y="0" type="line" smooth="no"/>
      <point x="124.32" y="667.2" type="line" smooth="no"/>
      <point x="366.24" y="667.2" type="line" smooth="yes"/>
      <point x="445.92" y="667.2"/>
      <point x="488.16" y="607.68"/>
      <point x="488.16" y="561.6" type="curve" smooth="no"/>
      <point x="488.16" y="410.88" type="line" smooth="yes"/>
      <point x="488.16" y="357.12"/>
      <point x="444" y="320.64"/>
      <point x="442.08" y="320.64" type="curve" smooth="yes"/>
      <point x="434.4" y="320.64"/>
      <point x="488.16" y="308.16"/>
      <point x="487.2" y="220.8" type="curve" smooth="no"/>
      <point x="487.2" y="0" type="line" smooth="no"/>
      <point x="347.04" y="0" type="line" smooth="no"/>
      <point x="347.789" y="88.7324"/>
      <point x="348.96" y="191.04"/>
      <point x="348.96" y="227.52" type="curve" smooth="yes"/>
      <point x="348.96" y="259.2"/>
      <point x="327.84" y="291.84"/>
      <point x="267.36" y="279.36" type="curve" smooth="no"/>
      <point x="267.36" y="398.4" type="line" smooth="no"/>
      <point x="303.84" y="398.4"/>
      <point x="339.36" y="395.52"/>
    </contour>
  </outline>
</glyph>
<glyph name="uni0053" format="1">
  <advance width="596"/>
  <unicode hex="0053"/>
  <outline>
    <contour>
      <point x="253.96" y="221.76" type="curve" smooth="no"/>
      <point x="121.48" y="221.76" type="line" smooth="no"/>
      <point x="121.48" y="120.96" type="line" smooth="no"/>
      <point x="120.52" y="120.96"/>
      <point x="131.08" y="-0.959961"/>
      <point x="286.6" y="-0.959961" type="curve" smooth="yes"/>
      <point x="461.32" y="-0.959961"/>
      <point x="476.68" y="132.48"/>
      <point x="476.68" y="132.48" type="curve" smooth="no"/>
      <point x="476.68" y="294.72" type="line" smooth="no"/>
      <point x="474.76" y="410.88"/>
      <point x="254.92" y="389.76"/>
      <point x="254.92" y="468.48" type="curve" smooth="yes"/>
      <point x="254.92" y="468.48"/>
      <point x="246.28" y="533.76"/>
      <point x="299.08" y="533.76" type="curve" smooth="yes"/>
      <point x="346.12" y="533.76"/>
      <point x="345.16" y="495.36"/>
      <point x="344.2" y="495.36" type="curve" smooth="no"/>
      <point x="344.2" y="464.64" type="line" smooth="no"/>
      <point x="478.6" y="464.64" type="line" smooth="no"/>
      <point x="477.64" y="464.64"/>
      <point x="505.478" y="673.171"/>
      <point x="302.92" y="672" type="curve" smooth="yes"/>
      <point x="136.84" y="671.04"/>
      <point x="117.64" y="531.84"/>
      <point x="117.64" y="531.84" type="curve" smooth="no"/>
      <point x="117.64" y="432" type="line" smooth="no"/>
      <point x="117.64" y="241.92"/>
      <point x="342.28" y="337.92"/>
      <point x="342.28" y="215.04" type="curve" smooth="no"/>
      <point x="342.28" y="214.08"/>
      <point x="347.08" y="142.08"/>
      <point x="291.4" y="144.96" type="curve" smooth="no"/>
      <point x="240.52" y="144.96"/>
      <point x="253.96" y="221.76"/>
    </contour>
  </outline>
</glyph>
<glyph name="uni0054" format="1">
  <advance width="494"/>
  <unicode hex="0054"/>
  <outline>
    <contour>
      <point x="80.04" y="667.2" type="line" smooth="no"/>
      <point x="433.32" y="667.2" type="line" smooth="no"/>
      <point x="425.64" y="542.4" type="line" smooth="no"/>
      <point x="313.32" y="540.48" type="line" smooth="no"/>
      <point x="310.44" y="0" type="line" smooth="no"/>
      <point x="168.36" y="0" type="line" smooth="no"/>
      <point x="168.36" y="541.44" type="line" smooth="no"/>
      <point x="78.1201" y="540.48" type="line" smooth="no"/>
    </contour>
  </outline>
</glyph>
<glyph name="uni0056" format="1">
  <advance width="624"/>
  <unicode hex="0056"/>
  <outline>
    <contour>
      <point x="82.4404" y="662.4" type="line" smooth="no"/>
      <point x="237.96" y="662.4" type="line" smooth="no"/>
      <point x="314.76" y="349.44" type="line" smooth="no"/>
      <point x="385.8" y="668.16" type="line" smooth="no"/>
      <point x="535.56" y="668.16" type="line" smooth="no"/>
      <point x="378.12" y="0" type="line" smooth="no"/>
      <point x="259.08" y="0" type="line" smooth="no"/>
    </contour>
  </outline>
</glyph>
<glyph name="uni0057" format="1">
  <advance width="916"/>
  <unicode hex="0057"/>
  <outline>
    <contour>
      <point x="76.7598" y="668.16" type="line" smooth="no"/>
      <point x="280.28" y="0" type="line" smooth="no"/>
      <point x="399.32" y="0" type="line" smooth="no"/>
      <point x="466.52" y="172.8" type="line" smooth="no"/>
      <point x="518.36" y="0" type="line" smooth="no"/>
      <point x="650.84" y="0" type="line" smooth="no"/>
      <point x="833.24" y="663.36" type="line" smooth="no"/>
      <point x="691.16" y="667.2" type="line" smooth="no"/>
      <point x="583.64" y="322.56" type="line" smooth="no"/>
      <point x="497.24" y="665.28" type="line" smooth="no"/>
      <point x="428.12" y="665.28" type="line" smooth="no"/>
      <point x="341.72" y="303.36" type="line" smooth="no"/>
      <point x="232.28" y="668.16" type="line" smooth="no"/>
    </contour>
  </outline>
</glyph>
<glyph name="uni0058" format="1">
  <advance width="681"/>
  <unicode hex="0058"/>
  <outline>
    <contour>
      <point x="121.16" y="660.48" type="line" smooth="no"/>
      <point x="278.6" y="660.48" type="line" smooth="no"/>
      <point x="343.88" y="512.64" type="line" smooth="no"/>
      <point x="422.6" y="667.2" type="line" smooth="no"/>
      <point x="587.72" y="666.24" type="line" smooth="no"/>
      <point x="422.6" y="337.92" type="line" smooth="no"/>
      <point x="563.72" y="0" type="line" smooth="no"/>
      <point x="397.64" y="0" type="line" smooth="no"/>
      <point x="330.44" y="161.28" type="line" smooth="no"/>
      <point x="255.56" y="0" type="line" smooth="no"/>
      <point x="94.2803" y="0" type="line" smooth="no"/>
      <point x="259.4" y="337.92" type="line" smooth="no"/>
    </contour>
  </outline>
</glyph>
<glyph name="uni0059" format="1">
  <advance width="553"/>
  <unicode hex="0059"/>
  <outline>
    <contour>
      <point x="20.3604" y="666.24" type="line" smooth="no"/>
      <point x="183.561" y="668.16" type="line" smooth="no"/>
      <point x="279.561" y="489.6" type="line" smooth="no"/>
      <point x="373.641" y="668.16" type="line" smooth="no"/>
      <point x="533" y="662.4" type="line" smooth="no"/>
      <point x="352.521" y="341.76" type="line" smooth="no"/>
      <point x="352.521" y="0" type="line" smooth="no"/>
      <point x="202.761" y="0" type="line" smooth="no"/>
      <point x="202.761" y="343.68" type="line" smooth="no"/>
    </contour>
  </outline>
</glyph>
<glyph name="uni005A" format="1">
  <advance width="594"/>
  <unicode hex="005a"/>
  <outline>
    <contour>
      <point x="138.64" y="670.08" type="line" smooth="no"/>
      <point x="123.28" y="556.8" type="line" smooth="no"/>
      <point x="321.04" y="551.04" type="line" smooth="no"/>
      <point x="114.64" y="111.36" type="line" smooth="no"/>
      <point x="104.08" y="0" type="line" smooth="no"/>
      <point x="463.12" y="0" type="line" smooth="no"/>
      <point x="466.96" y="144" type="line" smooth="no"/>
      <point x="283.6" y="148.8" type="line" smooth="no"/>
      <point x="480.4" y="551.04" type="line" smooth="no"/>
      <point x="482.32" y="670.08" type="line" smooth="no"/>
    </contour>
  </outline>
</glyph>
<glyph name="bracketleft" format="1">
  <advance width="366"/>
  <unicode hex="005b"/>
  <outline>
    <contour>
      <point x="269.332" y="616.863" type="line" smooth="yes"/>
      <point x="265.381" y="616.238"/>
      <point x="260.989" y="615.205"/>
      <point x="256.154" y="613.764" type="curve" smooth="yes"/>
      <point x="251.32" y="612.323"/>
      <point x="246.886" y="609.428"/>
      <point x="242.85" y="605.076" type="curve" smooth="yes"/>
      <point x="238.814" y="600.725"/>
      <point x="235.473" y="594.12"/>
      <point x="232.826" y="585.264" type="curve" smooth="yes"/>
      <point x="230.179" y="576.407"/>
      <point x="228.737" y="564.198"/>
      <point x="228.503" y="548.637" type="curve" smooth="yes"/>
      <point x="226.018" y="199.955" type="line" smooth="yes"/>
      <point x="226.441" y="184.497"/>
      <point x="227.851" y="172.402"/>
      <point x="230.246" y="163.67" type="curve" smooth="yes"/>
      <point x="232.642" y="154.937"/>
      <point x="235.902" y="148.197"/>
      <point x="240.029" y="143.451" type="curve" smooth="yes"/>
      <point x="244.156" y="138.705"/>
      <point x="248.681" y="135.709"/>
      <point x="253.603" y="134.464" type="curve" smooth="yes"/>
      <point x="258.524" y="133.219"/>
      <point x="263.065" y="132.25"/>
      <point x="267.225" y="131.559" type="curve" smooth="yes"/>
      <point x="268.607" y="-43.3789" type="line" smooth="yes"/>
      <point x="234.57" y="-37.2949"/>
      <point x="203.806" y="-26.3057"/>
      <point x="176.314" y="-10.4102" type="curve" smooth="yes"/>
      <point x="164.527" y="-4.17773"/>
      <point x="153" y="3.61523"/>
      <point x="141.731" y="12.9678" type="curve" smooth="yes"/>
      <point x="130.463" y="22.3193"/>
      <point x="120.441" y="33.3887"/>
      <point x="111.667" y="46.1729" type="curve" smooth="yes"/>
      <point x="102.892" y="58.958"/>
      <point x="95.8584" y="73.5371"/>
      <point x="90.5645" y="89.9102" type="curve" smooth="yes"/>
      <point x="85.2715" y="106.284"/>
      <point x="82.707" y="124.608"/>
      <point x="82.8701" y="144.884" type="curve" smooth="yes"/>
      <point x="84.373" y="371.914" type="line" smooth="yes"/>
      <point x="84.8018" y="455.51" type="line" smooth="yes"/>
      <point x="84.8965" y="528.423" type="line" smooth="yes"/>
      <point x="85.3135" y="580.124" type="line" smooth="yes"/>
      <point x="85.7197" y="599.932" type="line" smooth="yes"/>
      <point x="85.7793" y="620.865"/>
      <point x="88.5605" y="639.53"/>
      <point x="94.0635" y="655.927" type="curve" smooth="yes"/>
      <point x="99.5664" y="672.322"/>
      <point x="106.725" y="686.787"/>
      <point x="115.539" y="699.32" type="curve" smooth="yes"/>
      <point x="124.354" y="711.854"/>
      <point x="134.278" y="722.706"/>
      <point x="145.312" y="731.879" type="curve" smooth="yes"/>
      <point x="156.347" y="741.051"/>
      <point x="167.426" y="748.881"/>
      <point x="178.548" y="755.367" type="curve" smooth="yes"/>
      <point x="205.192" y="770.387"/>
      <point x="235.635" y="780.608"/>
      <point x="269.875" y="786.031" type="curve" smooth="yes"/>
    </contour>
  </outline>
</glyph>
<glyph name="backslash" format="1">
  <advance width="1000"/>
  <unicode hex="005c"/>
  <outline>
    <contour>
      <point x="50" y="684" type="line" smooth="no"/>
      <point x="307" y="-1" type="line" smooth="no"/>
      <point x="453" y="1" type="line" smooth="no"/>
      <point x="192" y="684" type="line" smooth="no"/>
    </contour>
  </outline>
</glyph>
<glyph name="bracketright" format="1">
  <advance width="366"/>
  <unicode hex="005d"/>
  <outline>
    <contour>
      <point x="83.4131" y="616.863" type="line" smooth="yes"/>
      <point x="87.3643" y="616.238"/>
      <point x="91.7559" y="615.205"/>
      <point x="96.5908" y="613.764" type="curve" smooth="yes"/>
      <point x="101.425" y="612.323"/>
      <point x="105.859" y="609.428"/>
      <point x="109.896" y="605.076" type="curve" smooth="yes"/>
      <point x="113.931" y="600.725"/>
      <point x="117.272" y="594.12"/>
      <point x="119.919" y="585.264" type="curve" smooth="yes"/>
      <point x="122.566" y="576.407"/>
      <point x="124.008" y="564.198"/>
      <point x="124.242" y="548.637" type="curve" smooth="yes"/>
      <point x="126.728" y="199.955" type="line" smooth="yes"/>
      <point x="126.304" y="184.497"/>
      <point x="124.895" y="172.402"/>
      <point x="122.499" y="163.67" type="curve" smooth="yes"/>
      <point x="120.104" y="154.937"/>
      <point x="116.843" y="148.197"/>
      <point x="112.716" y="143.451" type="curve" smooth="yes"/>
      <point x="108.589" y="138.705"/>
      <point x="104.064" y="135.709"/>
      <point x="99.1426" y="134.464" type="curve" smooth="yes"/>
      <point x="94.2207" y="133.219"/>
      <point x="89.6797" y="132.25"/>
      <point x="85.5205" y="131.559" type="curve" smooth="yes"/>
      <point x="84.1377" y="-43.3789" type="line" smooth="yes"/>
      <point x="118.175" y="-37.2949"/>
      <point x="148.939" y="-26.3057"/>
      <point x="176.431" y="-10.4102" type="curve" smooth="yes"/>
      <point x="188.218" y="-4.17773"/>
      <point x="199.745" y="3.61523"/>
      <point x="211.014" y="12.9678" type="curve" smooth="yes"/>
      <point x="222.282" y="22.3193"/>
      <point x="232.304" y="33.3887"/>
      <point x="241.078" y="46.1729" type="curve" smooth="yes"/>
      <point x="249.854" y="58.958"/>
      <point x="256.887" y="73.5371"/>
      <point x="262.181" y="89.9102" type="curve" smooth="yes"/>
      <point x="267.474" y="106.284"/>
      <point x="270.038" y="124.608"/>
      <point x="269.875" y="144.884" type="curve" smooth="yes"/>
      <point x="268.372" y="371.914" type="line" smooth="yes"/>
      <point x="267.943" y="455.51" type="line" smooth="yes"/>
      <point x="267.849" y="528.423" type="line" smooth="yes"/>
      <point x="267.432" y="580.124" type="line" smooth="yes"/>
      <point x="267.025" y="599.932" type="line" smooth="yes"/>
      <point x="266.966" y="620.865"/>
      <point x="264.185" y="639.53"/>
      <point x="258.682" y="655.927" type="curve" smooth="yes"/>
      <point x="253.179" y="672.322"/>
      <point x="246.021" y="686.787"/>
      <point x="237.206" y="699.32" type="curve" smooth="yes"/>
      <point x="228.391" y="711.854"/>
      <point x="218.467" y="722.706"/>
      <point x="207.433" y="731.879" type="curve" smooth="yes"/>
      <point x="196.398" y="741.051"/>
      <point x="185.319" y="748.881"/>
      <point x="174.197" y="755.367" type="curve" smooth="yes"/>
      <point x="147.553" y="770.387"/>
      <point x="117.11" y="780.608"/>
      <point x="82.8701" y="786.031" type="curve" smooth="yes"/>
    </contour>
  </outline>
</glyph>
<glyph name="asciicircum" format="1">
  <advance width="584"/>
  <unicode hex="005e"/>
  <outline>
    <contour>
      <point x="298.5" y="676" type="line" smooth="no"/>
      <point x="376.5" y="639" type="line" smooth="no"/>
      <point x="419.5" y="719" type="line" smooth="no"/>
      <point x="299.5" y="770" type="line" smooth="no"/>
      <point x="171.5" y="719" type="line" smooth="no"/>
      <point x="214.5" y="639" type="line" smooth="no"/>
    </contour>
  </outline>
</glyph>
<glyph name="underscore" format="1">
  <advance width="1000"/>
  <unicode hex="005f"/>
  <outline>
    <contour>
      <point x="76" y="-21" type="line" smooth="no"/>
      <point x="650" y="-21" type="line" smooth="no"/>
      <point x="651" y="-162" type="line" smooth="no"/>
      <point x="76" y="-162" type="line" smooth="no"/>
    </contour>
  </outline>
</glyph>
<glyph name="uni0061" format="1">
  <advance width="467"/>
  <unicode hex="0061"/>
  <outline>
    <contour>
      <point x="19.6715" y="0" type="line" smooth="no"/>
      <point x="154.992" y="501.399" type="line" smooth="no"/>
      <point x="290.313" y="498.55" type="line" smooth="no"/>
      <point x="447" y="0" type="line" smooth="no"/>
      <point x="315.953" y="0" type="line" smooth="no"/>
      <point x="226.214" y="247.851" type="line" smooth="no"/>
      <point x="204.847" y="162.385" type="line" smooth="no"/>
      <point x="241.853" y="160.961" type="line" smooth="no"/>
      <point x="267.493" y="84.0414" type="line" smooth="no"/>
      <point x="174.934" y="81.1925" type="line" smooth="no"/>
      <point x="152.143" y="0" type="line" smooth="no"/>
    </contour>
  </outline>
</glyph>
<glyph name="uni0062" format="1">
  <advance width="569"/>
  <unicode hex="0062"/>
  <outline>
    <contour>
      <point x="247.166" y="502.824" type="line" smooth="no"/>
      <point x="124.664" y="502.824" type="line" smooth="no"/>
      <point x="126.089" y="0" type="line" smooth="no"/>
      <point x="345.451" y="0" type="line" smooth="no"/>
      <point x="381.062" y="0"/>
      <point x="448.01" y="22.792"/>
      <point x="448.01" y="95.4365" type="curve" smooth="yes"/>
      <point x="448.01" y="213.664" type="line" smooth="no"/>
      <point x="448.01" y="263.52"/>
      <point x="408.125" y="287.734"/>
      <point x="408.125" y="287.734" type="curve" smooth="yes"/>
      <point x="408.125" y="287.734"/>
      <point x="445.161" y="323.346"/>
      <point x="445.161" y="388.869" type="curve" smooth="yes"/>
      <point x="445.161" y="499.976"/>
      <point x="349.725" y="502.824"/>
      <point x="349.725" y="502.824" type="curve" smooth="no"/>
      <point x="257.137" y="502.824" type="line" smooth="no"/>
      <point x="257.137" y="388.869" type="line" smooth="no"/>
      <point x="282.776" y="388.869"/>
      <point x="308.416" y="393.143"/>
      <point x="308.416" y="363.229" type="curve" smooth="no"/>
      <point x="309.84" y="321.922"/>
      <point x="289.346" y="335.039"/>
      <point x="257.137" y="329.044" type="curve" smooth="no"/>
      <point x="257.137" y="200.845" type="line" smooth="no"/>
      <point x="281.352" y="200.845"/>
      <point x="316.962" y="209.391"/>
      <point x="316.962" y="169.507" type="curve" smooth="yes"/>
      <point x="316.962" y="129.623"/>
      <point x="272.805" y="138.17"/>
      <point x="247.166" y="138.17" type="curve" smooth="no"/>
    </contour>
  </outline>
</glyph>
<glyph name="uni0063" format="1">
  <advance width="568"/>
  <unicode hex="0063"/>
  <outline>
    <contour>
      <point x="450.505" y="316.224" type="line" smooth="no"/>
      <point x="450.505" y="316.224"/>
      <point x="459.031" y="505.583"/>
      <point x="280.998" y="502.824" type="curve" smooth="yes"/>
      <point x="97.2471" y="499.976"/>
      <point x="115.764" y="307.677"/>
      <point x="115.764" y="307.677" type="curve" smooth="no"/>
      <point x="118.613" y="146.717" type="line" smooth="no"/>
      <point x="118.613" y="146.717"/>
      <point x="131.434" y="0"/>
      <point x="263.905" y="0" type="curve" smooth="yes"/>
      <point x="467.599" y="0"/>
      <point x="449.081" y="202.269"/>
      <point x="449.081" y="202.269" type="curve" smooth="no"/>
      <point x="316.609" y="200.845" type="line" smooth="no"/>
      <point x="316.609" y="168.083"/>
      <point x="319.458" y="135.321"/>
      <point x="279.573" y="135.321" type="curve" smooth="no"/>
      <point x="242.539" y="135.321"/>
      <point x="243.963" y="179.479"/>
      <point x="243.963" y="179.479" type="curve" smooth="no"/>
      <point x="243.963" y="341.863" type="line" smooth="no"/>
      <point x="243.963" y="341.863"/>
      <point x="243.963" y="380.322"/>
      <point x="278.149" y="380.322" type="curve" smooth="no"/>
      <point x="315.185" y="380.322"/>
      <point x="316.609" y="347.561"/>
      <point x="316.609" y="310.525" type="curve" smooth="no"/>
    </contour>
  </outline>
</glyph>
<glyph name="uni0064" format="1">
  <advance width="584"/>
  <unicode hex="0064"/>
  <outline>
    <contour>
      <point x="123.968" y="497.127" type="line" smooth="no"/>
      <point x="126.816" y="0" type="line" smooth="no"/>
      <point x="279.23" y="0" type="line" smooth="no"/>
      <point x="350.453" y="0"/>
      <point x="457.285" y="-11.3955"/>
      <point x="458.709" y="142.443" type="curve" smooth="no"/>
      <point x="463.694" y="346.849" type="line" smooth="no"/>
      <point x="464.407" y="437.3"/>
      <point x="451.587" y="501.399"/>
      <point x="270.685" y="501.399" type="curve" smooth="no"/>
      <point x="267.836" y="368.927" type="line" smooth="no"/>
      <point x="326.237" y="368.927"/>
      <point x="336.209" y="370.352"/>
      <point x="336.209" y="310.525" type="curve" smooth="no"/>
      <point x="336.209" y="243.578"/>
      <point x="331.936" y="199.42"/>
      <point x="331.936" y="199.42" type="curve" smooth="no"/>
      <point x="326.237" y="123.213"/>
      <point x="297.036" y="138.17"/>
      <point x="256.44" y="142.443" type="curve" smooth="yes"/>
      <point x="255.021" y="142.593"/>
      <point x="260.001" y="501.399"/>
      <point x="260.714" y="501.399" type="curve" smooth="no"/>
    </contour>
  </outline>
</glyph>
<glyph name="uni0065" format="1">
  <advance width="487"/>
  <unicode hex="0065"/>
  <outline>
    <contour>
      <point x="124.654" y="498.551" type="line" smooth="no"/>
      <point x="127.503" y="2.84863" type="line" smooth="no"/>
      <point x="361.109" y="-1.4248" type="line" smooth="no"/>
      <point x="362.533" y="106.832" type="line" smooth="no"/>
      <point x="252.853" y="106.832" type="line" smooth="no"/>
      <point x="252.853" y="193.723" type="line" smooth="no"/>
      <point x="362.533" y="197.995" type="line" smooth="no"/>
      <point x="362.533" y="300.555" type="line" smooth="no"/>
      <point x="252.853" y="300.555" type="line" smooth="no"/>
      <point x="252.853" y="395.991" type="line" smooth="no"/>
      <point x="362.533" y="395.991" type="line" smooth="no"/>
      <point x="362.533" y="502.824" type="line" smooth="no"/>
    </contour>
  </outline>
</glyph>
<glyph name="uni0066" format="1">
  <advance width="489"/>
  <unicode hex="0066"/>
  <outline>
    <contour>
      <point x="124.654" y="501.399" type="line" smooth="no"/>
      <point x="127.503" y="0" type="line" smooth="no"/>
      <point x="271.37" y="0" type="line" smooth="no"/>
      <point x="267.097" y="200.845" type="line" smooth="no"/>
      <point x="365.382" y="205.117" type="line" smooth="no"/>
      <point x="368.23" y="317.648" type="line" smooth="no"/>
      <point x="262.823" y="313.375" type="line" smooth="no"/>
      <point x="261.398" y="388.869" type="line" smooth="no"/>
      <point x="369.655" y="391.718" type="line" smooth="no"/>
      <point x="371.08" y="501.399" type="line" smooth="no"/>
    </contour>
  </outline>
</glyph>
<glyph name="uni0067" format="1">
  <advance width="527"/>
  <unicode hex="0067"/>
  <outline>
    <contour>
      <point x="119.285" y="380.769" type="curve" smooth="no"/>
      <point x="119.285" y="124.305" type="line" smooth="no"/>
      <point x="119.285" y="124.305"/>
      <point x="119.285" y="-1.01172"/>
      <point x="244.603" y="-1.01172" type="curve" smooth="yes"/>
      <point x="407.807" y="-1.01172"/>
      <point x="403.437" y="115.562"/>
      <point x="403.437" y="116.29" type="curve" smooth="no"/>
      <point x="404.165" y="239.424" type="line" smooth="no"/>
      <point x="267.918" y="239.424" type="line" smooth="no"/>
      <point x="267.918" y="160.733" type="line" smooth="no"/>
      <point x="297.062" y="160.733" type="line" smooth="no"/>
      <point x="297.062" y="158.548"/>
      <point x="304.349" y="100.99"/>
      <point x="262.088" y="100.99" type="curve" smooth="yes"/>
      <point x="228.544" y="100.99"/>
      <point x="228.573" y="143.248"/>
      <point x="228.573" y="143.248" type="curve" smooth="no"/>
      <point x="228.573" y="355.998" type="line" smooth="no"/>
      <point x="229.302" y="355.998"/>
      <point x="225.659" y="398.255"/>
      <point x="260.632" y="398.255" type="curve" smooth="yes"/>
      <point x="302.891" y="398.255"/>
      <point x="294.876" y="332.683"/>
      <point x="295.605" y="332.683" type="curve" smooth="no"/>
      <point x="407.08" y="327.583" type="line" smooth="no"/>
      <point x="407.08" y="328.312"/>
      <point x="432.582" y="500.987"/>
      <point x="262.818" y="500.987" type="curve" smooth="no"/>
      <point x="119.285" y="500.987"/>
      <point x="119.285" y="380.769"/>
    </contour>
  </outline>
</glyph>
<glyph name="uni0068" format="1">
  <advance width="572"/>
  <unicode hex="0068"/>
  <outline>
    <contour>
      <point x="124.632" y="498.551" type="line" smooth="no"/>
      <point x="124.632" y="0" type="line" smooth="no"/>
      <point x="249.981" y="0" type="line" smooth="no"/>
      <point x="249.981" y="233.606" type="line" smooth="no"/>
      <point x="314.081" y="235.031" type="line" smooth="no"/>
      <point x="322.628" y="0" type="line" smooth="no"/>
      <point x="445.129" y="0" type="line" smooth="no"/>
      <point x="445.129" y="497.127" type="line" smooth="no"/>
      <point x="328.325" y="498.551" type="line" smooth="no"/>
      <point x="326.901" y="361.805" type="line" smooth="no"/>
      <point x="261.378" y="360.381" type="line" smooth="no"/>
      <point x="259.953" y="501.399" type="line" smooth="no"/>
    </contour>
  </outline>
</glyph>
<glyph name="uni0069" format="1">
  <advance width="374"/>
  <unicode hex="0069"/>
  <outline>
    <contour>
      <point x="126.432" y="497.127" type="line" smooth="no"/>
      <point x="123.582" y="1.4248" type="line" smooth="no"/>
      <point x="248.933" y="0" type="line" smooth="no"/>
      <point x="247.509" y="499.976" type="line" smooth="no"/>
    </contour>
  </outline>
</glyph>
<glyph name="uni006A" format="1">
  <advance width="559"/>
  <unicode hex="006a"/>
  <outline>
    <contour>
      <point x="438.05" y="505.673" type="curve" smooth="no"/>
      <point x="297.031" y="504.248" type="line" smooth="no"/>
      <point x="305.578" y="168.083"/>
      <point x="302.729" y="145.292"/>
      <point x="261.421" y="145.292" type="curve" smooth="no"/>
      <point x="210.141" y="145.292"/>
      <point x="228.658" y="273.49"/>
      <point x="228.658" y="273.49" type="curve" smooth="no"/>
      <point x="114.704" y="267.793" type="line" smooth="no"/>
      <point x="114.704" y="267.793"/>
      <point x="59.1523" y="0"/>
      <point x="262.846" y="0" type="curve" smooth="yes"/>
      <point x="466.538" y="0"/>
      <point x="426.654" y="172.356"/>
    </contour>
  </outline>
</glyph>
<glyph name="uni006B" format="1">
  <advance width="566"/>
  <unicode hex="006b"/>
  <outline>
    <contour>
      <point x="124.322" y="501.737" type="line" smooth="no"/>
      <point x="124.322" y="-1.79297" type="line" smooth="no"/>
      <point x="230.179" y="-1.79297" type="line" smooth="no"/>
      <point x="236.617" y="204.198" type="line" smooth="no"/>
      <point x="323.16" y="-1.79297" type="line" smooth="no"/>
      <point x="441.891" y="-1.79297" type="line" smooth="no"/>
      <point x="326.021" y="291.455" type="line" smooth="no"/>
      <point x="447.611" y="418.769" type="line" smooth="no"/>
      <point x="379.664" y="508.891" type="line" smooth="no"/>
      <point x="234.471" y="359.403" type="line" smooth="no"/>
      <point x="234.471" y="504.599" type="line" smooth="no"/>
    </contour>
  </outline>
</glyph>
<glyph name="uni006C" format="1">
  <advance width="479"/>
  <unicode hex="006c"/>
  <outline>
    <contour>
      <point x="126.432" y="498.551" type="line" smooth="no"/>
      <point x="123.582" y="0" type="line" smooth="no"/>
      <point x="364.312" y="2.84863" type="line" smooth="no"/>
      <point x="368.585" y="136.746" type="line" smooth="no"/>
      <point x="254.631" y="135.321" type="line" smooth="no"/>
      <point x="256.055" y="498.551" type="line" smooth="no"/>
    </contour>
  </outline>
</glyph>
<glyph name="uni006D" format="1">
  <advance width="633"/>
  <unicode hex="006d"/>
  <outline>
    <contour>
      <point x="126.078" y="499.976" type="line" smooth="no"/>
      <point x="124.654" y="0" type="line" smooth="no"/>
      <point x="254.276" y="0" type="line" smooth="no"/>
      <point x="252.853" y="267.793" type="line" smooth="no"/>
      <point x="319.801" y="213.664" type="line" smooth="no"/>
      <point x="372.504" y="270.642" type="line" smooth="no"/>
      <point x="382.475" y="0" type="line" smooth="no"/>
      <point x="509.25" y="2.84863" type="line" smooth="no"/>
      <point x="503.553" y="501.399" type="line" smooth="no"/>
      <point x="372.504" y="501.399" type="line" smooth="no"/>
      <point x="318.377" y="398.84" type="line" smooth="no"/>
      <point x="250.004" y="499.976" type="line" smooth="no"/>
    </contour>
  </outline>
</glyph>
<glyph name="uni006E" format="1">
  <advance width="593"/>
  <unicode hex="006e"/>
  <outline>
    <contour>
      <point x="124.654" y="498.551" type="line" smooth="no"/>
      <point x="127.503" y="0" type="line" smooth="no"/>
      <point x="264.248" y="0" type="line" smooth="no"/>
      <point x="259.975" y="253.549" type="line" smooth="no"/>
      <point x="329.771" y="176.629" type="line" smooth="no"/>
      <point x="335.47" y="0" type="line" smooth="no"/>
      <point x="467.941" y="0" type="line" smooth="no"/>
      <point x="465.092" y="499.976" type="line" smooth="no"/>
      <point x="328.348" y="499.976" type="line" smooth="no"/>
      <point x="326.923" y="380.322" type="line" smooth="no"/>
      <point x="227.213" y="499.976" type="line" smooth="no"/>
    </contour>
  </outline>
</glyph>
<glyph name="uni006F" format="1">
  <advance width="580"/>
  <unicode hex="006f"/>
  <outline>
    <contour>
      <point x="318.387" y="505.673" type="line" smooth="no"/>
      <point x="318.387" y="505.673"/>
      <point x="111.845" y="545.557"/>
      <point x="111.845" y="272.066" type="curve" smooth="yes"/>
      <point x="111.845" y="29.9131"/>
      <point x="218.677" y="-9.9707"/>
      <point x="285.625" y="-5.69727" type="curve" smooth="yes"/>
      <point x="380.911" y="0.383789"/>
      <point x="462.254" y="37.0361"/>
      <point x="462.254" y="246.427" type="curve" smooth="no"/>
      <point x="462.254" y="354.683"/>
      <point x="456.557" y="475.76"/>
      <point x="328.358" y="505.673" type="curve" smooth="no"/>
      <point x="328.358" y="141.019" type="line" smooth="no"/>
      <point x="328.358" y="141.019"/>
      <point x="318.387" y="122.501"/>
      <point x="291.322" y="122.501" type="curve" smooth="yes"/>
      <point x="254.288" y="122.501"/>
      <point x="257.137" y="148.141"/>
      <point x="257.137" y="148.141" type="curve" smooth="no"/>
      <point x="257.137" y="347.561" type="line" smooth="no"/>
      <point x="257.137" y="346.137"/>
      <point x="259.985" y="381.747"/>
      <point x="287.049" y="381.747" type="curve" smooth="yes"/>
      <point x="314.113" y="381.747"/>
      <point x="306.164" y="376.533"/>
      <point x="318.387" y="373.2" type="curve" smooth="no"/>
    </contour>
  </outline>
</glyph>
<glyph name="uni0070" format="1">
  <advance width="562"/>
  <unicode hex="0070"/>
  <outline>
    <contour>
      <point x="257.5" y="395.991" type="curve" smooth="no"/>
      <point x="256.076" y="321.922" type="line" smooth="no"/>
      <point x="256.076" y="321.922"/>
      <point x="317.326" y="309.101"/>
      <point x="317.326" y="367.503" type="curve" smooth="yes"/>
      <point x="317.326" y="405.963"/>
      <point x="294.536" y="395.991"/>
    </contour>
    <contour>
      <point x="126.453" y="498.551" type="line" smooth="no"/>
      <point x="377.153" y="498.551"/>
      <point x="448.374" y="537.01"/>
      <point x="448.374" y="358.956" type="curve" smooth="no"/>
      <point x="448.374" y="217.938"/>
      <point x="344.391" y="223.635"/>
      <point x="256.076" y="223.635" type="curve" smooth="no"/>
      <point x="260.349" y="0" type="line" smooth="no"/>
      <point x="123.604" y="0" type="line" smooth="no"/>
    </contour>
  </outline>
</glyph>
<glyph name="uni0071" format="1">
  <advance width="617"/>
  <unicode hex="0071"/>
  <outline>
    <contour>
      <point x="513.181" y="72.6465" type="curve" smooth="no"/>
      <point x="404.924" y="24.2158" type="line" smooth="no"/>
      <point x="363.615" y="52.7041" type="line" smooth="no"/>
      <point x="363.615" y="52.7041"/>
      <point x="320.862" y="4.60938"/>
      <point x="242.539" y="2.84863" type="curve" smooth="yes"/>
      <point x="115.764" y="0"/>
      <point x="118.613" y="128.198"/>
      <point x="117.188" y="128.198" type="curve" smooth="no"/>
      <point x="118.613" y="358.956" type="line" smooth="yes"/>
      <point x="118.613" y="357.532"/>
      <point x="131.434" y="507.098"/>
      <point x="285.271" y="507.098" type="curve" smooth="yes"/>
      <point x="457.627" y="507.098"/>
      <point x="423.441" y="297.705"/>
      <point x="423.441" y="153.839" type="curve" smooth="no"/>
      <point x="380.708" y="172.356"/>
      <point x="359.342" y="170.22"/>
      <point x="309.487" y="166.658" type="curve" smooth="no"/>
      <point x="306.638" y="330.468" type="line" smooth="yes"/>
      <point x="306.638" y="330.468"/>
      <point x="303.789" y="364.654"/>
      <point x="280.998" y="364.654" type="curve" smooth="yes"/>
      <point x="255.358" y="364.654"/>
      <point x="255.358" y="333.316"/>
      <point x="255.358" y="333.316" type="curve" smooth="no"/>
      <point x="252.51" y="152.414" type="line" smooth="no"/>
      <point x="323.731" y="164.521"/>
      <point x="383.951" y="167.898"/>
      <point x="423.441" y="146.005" type="curve" smooth="no"/>
      <point x="424.318" y="145.51"/>
      <point x="513.893" y="71.9336"/>
    </contour>
  </outline>
</glyph>
<glyph name="uni0072" format="1">
  <advance width="553"/>
  <unicode hex="0072"/>
  <outline>
    <contour>
      <point x="303.757" y="353.259" type="curve" smooth="no"/>
      <point x="303.757" y="394.566"/>
      <point x="291.649" y="390.293"/>
      <point x="246.78" y="390.293" type="curve" smooth="no"/>
      <point x="246.78" y="321.922" type="line" smooth="no"/>
      <point x="277.405" y="321.922"/>
      <point x="303.757" y="315.512"/>
    </contour>
    <contour>
      <point x="393.496" y="254.973" type="curve" smooth="no"/>
      <point x="393.496" y="254.261"/>
      <point x="431.956" y="224.349"/>
      <point x="431.956" y="188.737" type="curve" smooth="no"/>
      <point x="431.956" y="0" type="line" smooth="no"/>
      <point x="313.728" y="0" type="line" smooth="no"/>
      <point x="313.451" y="68.0518"/>
      <point x="313.016" y="123.213"/>
      <point x="313.016" y="174.493" type="curve" smooth="yes"/>
      <point x="313.016" y="217.463"/>
      <point x="285.239" y="210.815"/>
      <point x="245.355" y="210.815" type="curve" smooth="no"/>
      <point x="245.355" y="0" type="line" smooth="no"/>
      <point x="124.278" y="0" type="line" smooth="no"/>
      <point x="124.278" y="499.976" type="line" smooth="no"/>
      <point x="315.152" y="499.976" type="line" smooth="yes"/>
      <point x="413.438" y="499.976"/>
      <point x="431.956" y="410.948"/>
      <point x="431.956" y="368.927" type="curve" smooth="no"/>
      <point x="431.956" y="279.9"/>
      <point x="393.496" y="254.973"/>
    </contour>
  </outline>
</glyph>
<glyph name="uni0073" format="1">
  <advance width="561"/>
  <unicode hex="0073"/>
  <outline>
    <contour>
      <point x="118.613" y="377.474" type="curve" smooth="no"/>
      <point x="118.613" y="293.433" type="line" smooth="no"/>
      <point x="118.613" y="215.089"/>
      <point x="302.364" y="229.334"/>
      <point x="302.364" y="162.385" type="curve" smooth="yes"/>
      <point x="302.364" y="162.385"/>
      <point x="308.062" y="125.35"/>
      <point x="271.027" y="125.35" type="curve" smooth="yes"/>
      <point x="219.748" y="125.35"/>
      <point x="228.295" y="175.205"/>
      <point x="228.295" y="175.205" type="curve" smooth="no"/>
      <point x="118.613" y="175.205" type="line" smooth="no"/>
      <point x="118.613" y="175.205"/>
      <point x="88.7002" y="0"/>
      <point x="280.998" y="0" type="curve" smooth="yes"/>
      <point x="466.174" y="0"/>
      <point x="439.11" y="168.083"/>
      <point x="439.11" y="168.083" type="curve" smooth="yes"/>
      <point x="439.11" y="293.433"/>
      <point x="246.812" y="280.612"/>
      <point x="246.812" y="341.863" type="curve" smooth="yes"/>
      <point x="246.812" y="341.863"/>
      <point x="242.539" y="377.474"/>
      <point x="288.12" y="377.474" type="curve" smooth="yes"/>
      <point x="325.156" y="377.474"/>
      <point x="320.883" y="331.893"/>
      <point x="320.883" y="331.893" type="curve" smooth="no"/>
      <point x="440.534" y="327.619" type="line" smooth="no"/>
      <point x="440.534" y="327.619"/>
      <point x="460.477" y="499.976"/>
      <point x="273.876" y="499.976" type="curve" smooth="yes"/>
      <point x="137.131" y="499.976"/>
      <point x="118.613" y="377.474"/>
    </contour>
  </outline>
</glyph>
<glyph name="uni0074" format="1">
  <advance width="561"/>
  <unicode hex="0074"/>
  <outline>
    <contour>
      <point x="111.845" y="498.551" type="line" smooth="no"/>
      <point x="113.269" y="373.2" type="line" smooth="no"/>
      <point x="211.555" y="371.776" type="line" smooth="no"/>
      <point x="217.252" y="0" type="line" smooth="no"/>
      <point x="361.12" y="5.69727" type="line" smooth="no"/>
      <point x="353.998" y="378.898" type="line" smooth="no"/>
      <point x="445.161" y="384.596" type="line" smooth="no"/>
      <point x="442.312" y="504.248" type="line" smooth="no"/>
    </contour>
  </outline>
</glyph>
<glyph name="uni0075" format="1">
  <advance width="567"/>
  <unicode hex="0075"/>
  <outline>
    <contour>
      <point x="128.231" y="499.976" type="line" smooth="no"/>
      <point x="119.685" y="237.88" type="line" smooth="no"/>
      <point x="119.685" y="170.932"/>
      <point x="105.44" y="0"/>
      <point x="276.371" y="0" type="curve" smooth="yes"/>
      <point x="457.273" y="0"/>
      <point x="443.029" y="149.565"/>
      <point x="443.029" y="196.571" type="curve" smooth="no"/>
      <point x="443.029" y="499.976" type="line" smooth="no"/>
      <point x="321.953" y="499.976" type="line" smooth="no"/>
      <point x="321.953" y="180.902" type="line" smooth="no"/>
      <point x="321.953" y="180.902"/>
      <point x="330.5" y="126.773"/>
      <point x="284.918" y="126.773" type="curve" smooth="yes"/>
      <point x="239.336" y="126.773"/>
      <point x="249.308" y="195.146"/>
      <point x="249.308" y="223.635" type="curve" smooth="no"/>
      <point x="255.005" y="499.976" type="line" smooth="no"/>
    </contour>
  </outline>
</glyph>
<glyph name="uni0076" format="1">
  <advance width="633"/>
  <unicode hex="0076"/>
  <outline>
    <contour>
      <point x="107.571" y="498.551" type="line" smooth="no"/>
      <point x="259.985" y="0" type="line" smooth="no"/>
      <point x="376.788" y="0" type="line" smooth="no"/>
      <point x="524.93" y="491.429" type="line" smooth="no"/>
      <point x="389.608" y="494.277" type="line" smooth="no"/>
      <point x="318.387" y="282.037" type="line" smooth="no"/>
      <point x="250.015" y="498.551" type="line" smooth="no"/>
    </contour>
  </outline>
</glyph>
<glyph name="uni0077" format="1">
  <advance width="832"/>
  <unicode hex="0077"/>
  <outline>
    <contour>
      <point x="109.703" y="498.551" type="line" smooth="no"/>
      <point x="230.779" y="0" type="line" smooth="no"/>
      <point x="353.279" y="0" type="line" smooth="no"/>
      <point x="401.711" y="155.263" type="line" smooth="no"/>
      <point x="437.321" y="0" type="line" smooth="no"/>
      <point x="558.398" y="0" type="line" smooth="no"/>
      <point x="723.632" y="499.976" type="line" smooth="no"/>
      <point x="595.433" y="501.399" type="line" smooth="no"/>
      <point x="512.816" y="303.403" type="line" smooth="no"/>
      <point x="464.386" y="499.976" type="line" smooth="no"/>
      <point x="371.798" y="498.551" type="line" smooth="no"/>
      <point x="297.728" y="307.677" type="line" smooth="no"/>
      <point x="243.599" y="498.551" type="line" smooth="no"/>
    </contour>
  </outline>
</glyph>
<glyph name="uni0078" format="1">
  <advance width="632"/>
  <unicode hex="0078"/>
  <outline>
    <contour>
      <point x="117.222" y="499.976" type="line" smooth="no"/>
      <point x="253.966" y="499.976" type="line" smooth="no"/>
      <point x="312.368" y="390.293" type="line" smooth="no"/>
      <point x="377.892" y="499.976" type="line" smooth="no"/>
      <point x="503.241" y="499.976" type="line" smooth="no"/>
      <point x="377.892" y="257.822" type="line" smooth="no"/>
      <point x="518.91" y="0" type="line" smooth="no"/>
      <point x="367.92" y="0" type="line" smooth="no"/>
      <point x="312.368" y="125.35" type="line" smooth="no"/>
      <point x="251.117" y="0" type="line" smooth="no"/>
      <point x="122.919" y="0" type="line" smooth="no"/>
      <point x="248.269" y="242.153" type="line" smooth="no"/>
    </contour>
  </outline>
</glyph>
<glyph name="y" format="1">
  <advance width="640"/>
  <unicode hex="0079"/>
  <outline>
    <contour>
      <point x="261.764" y="502.824" type="line" smooth="no"/>
      <point x="308.77" y="381.747" type="line" smooth="no"/>
      <point x="381.415" y="501.399" type="line" smooth="no"/>
      <point x="538.103" y="499.976" type="line" smooth="no"/>
      <point x="377.142" y="232.183" type="line" smooth="no"/>
      <point x="374.293" y="0" type="line" smooth="no"/>
      <point x="230.426" y="0" type="line" smooth="no"/>
      <point x="236.123" y="240.729" type="line" smooth="no"/>
      <point x="105.076" y="495.702" type="line" smooth="no"/>
    </contour>
  </outline>
</glyph>
<glyph name="z" format="1">
  <advance width="542"/>
  <unicode hex="007a"/>
  <outline>
    <contour>
      <point x="133.2" y="502.824" type="line" smooth="no"/>
      <point x="127.503" y="373.2" type="line" smooth="no"/>
      <point x="269.945" y="380.322" type="line" smooth="no"/>
      <point x="124.654" y="125.35" type="line" smooth="no"/>
      <point x="118.955" y="0" type="line" smooth="no"/>
      <point x="413.813" y="7.12207" type="line" smooth="no"/>
      <point x="416.662" y="123.925" type="line" smooth="no"/>
      <point x="292.736" y="111.105" type="line" smooth="no"/>
      <point x="415.237" y="351.834" type="line" smooth="no"/>
      <point x="418.086" y="501.399" type="line" smooth="no"/>
    </contour>
  </outline>
</glyph>
<glyph name="braceleft" format="1">
  <advance width="426"/>
  <unicode hex="007b"/>
  <outline>
    <contour>
      <point x="262.542" y="519.249" type="line" smooth="yes"/>
      <point x="262.235" y="508.4"/>
      <point x="259.702" y="496.693"/>
      <point x="254.942" y="484.127" type="curve" smooth="yes"/>
      <point x="250.184" y="471.562"/>
      <point x="244.081" y="458.951"/>
      <point x="236.635" y="446.298" type="curve" smooth="yes"/>
      <point x="229.189" y="433.644"/>
      <point x="220.704" y="421.163"/>
      <point x="211.18" y="408.854" type="curve" smooth="yes"/>
      <point x="201.654" y="396.546"/>
      <point x="191.644" y="385.174"/>
      <point x="181.146" y="374.736" type="curve" smooth="no"/>
      <point x="208.64" y="338.592" type="line" smooth="no"/>
      <point x="235.301" y="301.304" type="line" smooth="no"/>
      <point x="254.917" y="266.949" type="line" smooth="no"/>
      <point x="262.104" y="240.751" type="line" smooth="no"/>
      <point x="261.483" y="231.878"/>
      <point x="261.071" y="224.895"/>
      <point x="260.865" y="219.8" type="curve" smooth="yes"/>
      <point x="260.66" y="214.705"/>
      <point x="260.567" y="209.965"/>
      <point x="260.587" y="205.581" type="curve" smooth="yes"/>
      <point x="260.645" y="192.428" type="line" smooth="no"/>
      <point x="260.576" y="173.687" type="line" smooth="yes"/>
      <point x="260.967" y="154.174"/>
      <point x="266.623" y="138.702"/>
      <point x="277.546" y="127.27" type="curve" smooth="yes"/>
      <point x="288.469" y="115.838"/>
      <point x="299.667" y="107.993"/>
      <point x="311.141" y="103.735" type="curve" smooth="no"/>
      <point x="314.334" y="-50.666" type="line" smooth="no"/>
      <point x="281.06" y="-45.1367"/>
      <point x="250.729" y="-34.7539"/>
      <point x="223.341" y="-19.5166" type="curve" smooth="yes"/>
      <point x="199.663" y="-6.39258"/>
      <point x="177.594" y="12.5547"/>
      <point x="157.134" y="37.3262" type="curve" smooth="yes"/>
      <point x="136.674" y="62.0967"/>
      <point x="124.856" y="95.1553"/>
      <point x="121.683" y="136.501" type="curve" smooth="yes"/>
      <point x="121.436" y="146.587"/>
      <point x="121.569" y="156.395"/>
      <point x="122.085" y="165.926" type="curve" smooth="yes"/>
      <point x="122.359" y="189.763" type="line" smooth="no"/>
      <point x="123.26" y="209.648" type="line" smooth="no"/>
      <point x="123.012" y="219.733"/>
      <point x="119.488" y="231.325"/>
      <point x="112.689" y="244.423" type="curve" smooth="yes"/>
      <point x="105.89" y="257.521"/>
      <point x="97.748" y="270.574"/>
      <point x="88.2627" y="283.584" type="curve" smooth="yes"/>
      <point x="78.7773" y="296.594"/>
      <point x="68.5215" y="309.144"/>
      <point x="57.4941" y="321.234" type="curve" smooth="yes"/>
      <point x="46.4668" y="333.324"/>
      <point x="36.2725" y="343.354"/>
      <point x="26.9111" y="351.32" type="curve" smooth="no"/>
      <point x="34.4277" y="359.261"/>
      <point x="43.6074" y="369.489"/>
      <point x="54.4492" y="382.006" type="curve" smooth="yes"/>
      <point x="65.292" y="394.522"/>
      <point x="75.8125" y="408.001"/>
      <point x="86.0127" y="422.441" type="curve" smooth="yes"/>
      <point x="96.2129" y="436.882"/>
      <point x="104.905" y="451.252"/>
      <point x="112.09" y="465.552" type="curve" smooth="yes"/>
      <point x="119.274" y="479.852"/>
      <point x="123.298" y="492.807"/>
      <point x="124.158" y="504.418" type="curve" smooth="no"/>
      <point x="124.22" y="593.524" type="line" smooth="yes"/>
      <point x="124.279" y="614.458"/>
      <point x="127.061" y="633.123"/>
      <point x="132.563" y="649.52" type="curve" smooth="yes"/>
      <point x="138.066" y="665.915"/>
      <point x="145.198" y="680.545"/>
      <point x="153.961" y="693.407" type="curve" smooth="yes"/>
      <point x="162.724" y="706.27"/>
      <point x="172.761" y="717.478"/>
      <point x="184.071" y="727.031" type="curve" smooth="yes"/>
      <point x="195.383" y="736.585"/>
      <point x="207.206" y="745.039"/>
      <point x="219.541" y="752.393" type="curve" smooth="yes"/>
      <point x="247.295" y="768.938"/>
      <point x="279.175" y="780.736"/>
      <point x="315.182" y="787.789" type="curve" smooth="no"/>
      <point x="312.185" y="640.507" type="line" smooth="no"/>
      <point x="303.383" y="636.413"/>
      <point x="293.423" y="627.917"/>
      <point x="282.304" y="615.02" type="curve" smooth="yes"/>
      <point x="271.185" y="602.121"/>
      <point x="264.33" y="584.667"/>
      <point x="261.741" y="562.658" type="curve" smooth="no"/>
      <point x="262.27" y="546.542" type="line" smooth="no"/>
      <point x="262.562" y="531.907" type="line" smooth="no"/>
    </contour>
  </outline>
</glyph>
<glyph name="bar" format="1">
  <advance width="220"/>
  <unicode hex="007c"/>
  <outline>
    <contour>
      <point x="180" y="697" type="line" smooth="no"/>
      <point x="181" y="0" type="line" smooth="no"/>
      <point x="39" y="0" type="line" smooth="no"/>
      <point x="40" y="697" type="line" smooth="no"/>
    </contour>
  </outline>
</glyph>
<glyph name="braceright" format="1">
  <advance width="1000"/>
  <unicode hex="007d"/>
  <outline>
    <contour>
      <point x="79.5508" y="519.249" type="line" smooth="yes"/>
      <point x="79.8574" y="508.4"/>
      <point x="82.3906" y="496.693"/>
      <point x="87.1504" y="484.127" type="curve" smooth="yes"/>
      <point x="91.9092" y="471.562"/>
      <point x="98.0117" y="458.951"/>
      <point x="105.458" y="446.298" type="curve" smooth="yes"/>
      <point x="112.903" y="433.644"/>
      <point x="121.389" y="421.163"/>
      <point x="130.913" y="408.854" type="curve" smooth="yes"/>
      <point x="140.438" y="396.546"/>
      <point x="150.449" y="385.174"/>
      <point x="160.946" y="374.736" type="curve" smooth="no"/>
      <point x="133.453" y="338.592" type="line" smooth="no"/>
      <point x="106.792" y="301.304" type="line" smooth="no"/>
      <point x="87.1758" y="266.949" type="line" smooth="no"/>
      <point x="79.9893" y="240.751" type="line" smooth="no"/>
      <point x="80.6094" y="231.878"/>
      <point x="81.0215" y="224.895"/>
      <point x="81.2275" y="219.8" type="curve" smooth="yes"/>
      <point x="81.4326" y="214.705"/>
      <point x="81.5254" y="209.965"/>
      <point x="81.5059" y="205.581" type="curve" smooth="yes"/>
      <point x="81.4482" y="192.428" type="line" smooth="no"/>
      <point x="81.5166" y="173.687" type="line" smooth="yes"/>
      <point x="81.126" y="154.174"/>
      <point x="75.4697" y="138.702"/>
      <point x="64.5469" y="127.27" type="curve" smooth="yes"/>
      <point x="53.624" y="115.838"/>
      <point x="42.4258" y="107.993"/>
      <point x="30.9521" y="103.735" type="curve" smooth="no"/>
      <point x="27.7588" y="-50.666" type="line" smooth="no"/>
      <point x="61.0332" y="-45.1367"/>
      <point x="91.3643" y="-34.7539"/>
      <point x="118.752" y="-19.5166" type="curve" smooth="yes"/>
      <point x="142.43" y="-6.39258"/>
      <point x="164.499" y="12.5547"/>
      <point x="184.959" y="37.3262" type="curve" smooth="yes"/>
      <point x="205.419" y="62.0967"/>
      <point x="217.236" y="95.1553"/>
      <point x="220.41" y="136.501" type="curve" smooth="yes"/>
      <point x="220.657" y="146.587"/>
      <point x="220.523" y="156.395"/>
      <point x="220.008" y="165.926" type="curve" smooth="yes"/>
      <point x="219.733" y="189.763" type="line" smooth="no"/>
      <point x="218.833" y="209.648" type="line" smooth="no"/>
      <point x="219.081" y="219.733"/>
      <point x="222.604" y="231.325"/>
      <point x="229.403" y="244.423" type="curve" smooth="yes"/>
      <point x="236.203" y="257.521"/>
      <point x="244.345" y="270.574"/>
      <point x="253.83" y="283.584" type="curve" smooth="yes"/>
      <point x="263.315" y="296.594"/>
      <point x="273.571" y="309.144"/>
      <point x="284.599" y="321.234" type="curve" smooth="yes"/>
      <point x="295.626" y="333.324"/>
      <point x="305.82" y="343.354"/>
      <point x="315.182" y="351.32" type="curve" smooth="no"/>
      <point x="307.665" y="359.261"/>
      <point x="298.485" y="369.489"/>
      <point x="287.644" y="382.006" type="curve" smooth="yes"/>
      <point x="276.801" y="394.522"/>
      <point x="266.28" y="408.001"/>
      <point x="256.08" y="422.441" type="curve" smooth="yes"/>
      <point x="245.88" y="436.882"/>
      <point x="237.188" y="451.252"/>
      <point x="230.003" y="465.552" type="curve" smooth="yes"/>
      <point x="222.818" y="479.852"/>
      <point x="218.795" y="492.807"/>
      <point x="217.935" y="504.418" type="curve" smooth="no"/>
      <point x="217.873" y="593.524" type="line" smooth="yes"/>
      <point x="217.813" y="614.458"/>
      <point x="215.032" y="633.123"/>
      <point x="209.529" y="649.52" type="curve" smooth="yes"/>
      <point x="204.026" y="665.915"/>
      <point x="196.895" y="680.545"/>
      <point x="188.132" y="693.407" type="curve" smooth="yes"/>
      <point x="179.369" y="706.27"/>
      <point x="169.332" y="717.478"/>
      <point x="158.021" y="727.031" type="curve" smooth="yes"/>
      <point x="146.71" y="736.585"/>
      <point x="134.887" y="745.039"/>
      <point x="122.552" y="752.393" type="curve" smooth="yes"/>
      <point x="94.7979" y="768.938"/>
      <point x="62.918" y="780.736"/>
      <point x="26.9111" y="787.789" type="curve" smooth="no"/>
      <point x="29.9082" y="640.507" type="line" smooth="no"/>
      <point x="38.71" y="636.413"/>
      <point x="48.6699" y="627.917"/>
      <point x="59.7891" y="615.02" type="curve" smooth="yes"/>
      <point x="70.9082" y="602.121"/>
      <point x="77.7627" y="584.667"/>
      <point x="80.3516" y="562.658" type="curve" smooth="no"/>
      <point x="79.8232" y="546.542" type="line" smooth="no"/>
      <point x="79.5303" y="531.907" type="line" smooth="no"/>
    </contour>
  </outline>
</glyph>
<glyph name="exclamdown" format="1">
  <advance width="1000"/>
  <unicode hex="00a1"/>
  <outline>
    <contour>
      <point x="219" y="0" type="line" smooth="no"/>
      <point x="219" y="481" type="line" smooth="no"/>
      <point x="76" y="481" type="line" smooth="no"/>
      <point x="77" y="0" type="line" smooth="no"/>
    </contour>
    <contour>
      <point x="218" y="532" type="line" smooth="no"/>
      <point x="218" y="666" type="line" smooth="no"/>
      <point x="77" y="666" type="line" smooth="no"/>
      <point x="77" y="532" type="line" smooth="no"/>
    </contour>
  </outline>
</glyph>
<glyph name="sterling" format="1">
  <advance width="590"/>
  <unicode hex="00a3"/>
  <outline>
    <contour>
      <point x="240.131" y="436" type="curve" smooth="no"/>
      <point x="308.16" y="436" type="line" smooth="no"/>
      <point x="308" y="315" type="line" smooth="no"/>
      <point x="239.404" y="314.575" type="line" smooth="no"/>
      <point x="239.173" y="288" type="line" smooth="no"/>
      <point x="308.16" y="288" type="line" smooth="no"/>
      <point x="308" y="167" type="line" smooth="no"/>
      <point x="238.446" y="166.572" type="line" smooth="no"/>
      <point x="238.279" y="126.72" type="line" smooth="no"/>
      <point x="500" y="126.72" type="line" smooth="no"/>
      <point x="500" y="0" type="line" smooth="no"/>
      <point x="103.88" y="0" type="line" smooth="no"/>
      <point x="103.88" y="166.197" type="line" smooth="no"/>
      <point x="33" y="166" type="line" smooth="no"/>
      <point x="33" y="288" type="line" smooth="no"/>
      <point x="103.88" y="288" type="line" smooth="no"/>
      <point x="103.88" y="314.197" type="line" smooth="no"/>
      <point x="33" y="314" type="line" smooth="no"/>
      <point x="33" y="436" type="line" smooth="no"/>
      <point x="103.88" y="436" type="line" smooth="no"/>
      <point x="103.88" y="485.76" type="line" smooth="yes"/>
      <point x="103.88" y="537.601"/>
      <point x="126.92" y="668.16"/>
      <point x="292.04" y="668.16" type="curve" smooth="yes"/>
      <point x="448" y="668.16"/>
      <point x="468.68" y="516"/>
      <point x="468.68" y="516" type="curve" smooth="no"/>
      <point x="332.359" y="484.16" type="line" smooth="no"/>
      <point x="332.359" y="484.16"/>
      <point x="328.497" y="517.772"/>
      <point x="292.04" y="516.48" type="curve" smooth="no"/>
      <point x="242" y="516.48"/>
      <point x="240.075" y="489.493"/>
    </contour>
  </outline>
</glyph>
<glyph name="currency" format="1">
  <advance width="476"/>
  <unicode hex="00a4"/>
  <outline>
    <contour>
      <point x="418.897" y="119.32" type="line" smooth="no"/>
      <point x="418.897" y="119.32"/>
      <point x="374" y="0"/>
      <point x="227.857" y="0" type="curve" smooth="yes"/>
      <point x="59.8547" y="0"/>
      <point x="59.8574" y="163.2"/>
      <point x="59.8574" y="163.2" type="curve" smooth="no"/>
      <point x="60.1821" y="225.214" type="line" smooth="no"/>
      <point x="5" y="225" type="line" smooth="no"/>
      <point x="5" y="324" type="line" smooth="no"/>
      <point x="60.6992" y="324" type="line" smooth="no"/>
      <point x="60.8103" y="345.216" type="line" smooth="no"/>
      <point x="5" y="345" type="line" smooth="no"/>
      <point x="5" y="444" type="line" smooth="no"/>
      <point x="61.3275" y="444" type="line" smooth="no"/>
      <point x="61.7773" y="529.92" type="line" smooth="yes"/>
      <point x="61.7773" y="528.74"/>
      <point x="71.3779" y="668.16"/>
      <point x="244.178" y="668.16" type="curve" smooth="no"/>
      <point x="408" y="666"/>
      <point x="418" y="540"/>
      <point x="418" y="540" type="curve" smooth="no"/>
      <point x="290.258" y="491.52" type="line" smooth="no"/>
      <point x="290.258" y="491.52"/>
      <point x="294.098" y="534.72"/>
      <point x="240.338" y="534.72" type="curve" smooth="yes"/>
      <point x="193.298" y="534.72"/>
      <point x="195.218" y="466.56"/>
      <point x="195.218" y="466.56" type="curve" smooth="no"/>
      <point x="195.299" y="444" type="line" smooth="no"/>
      <point x="263.16" y="444" type="line" smooth="no"/>
      <point x="263" y="346" type="line" smooth="no"/>
      <point x="195.653" y="345.739" type="line" smooth="no"/>
      <point x="195.731" y="324" type="line" smooth="no"/>
      <point x="263.16" y="324" type="line" smooth="no"/>
      <point x="263" y="226" type="line" smooth="no"/>
      <point x="196.084" y="225.741" type="line" smooth="no"/>
      <point x="196.178" y="199.68" type="line" smooth="no"/>
      <point x="196.178" y="199.68"/>
      <point x="192.338" y="137.28"/>
      <point x="238.418" y="137.28" type="curve" smooth="yes"/>
      <point x="274" y="137.28"/>
      <point x="296.338" y="156"/>
      <point x="296.338" y="185.2" type="curve" smooth="no"/>
    </contour>
  </outline>
</glyph>
<glyph name="dieresis" format="1">
  <advance width="450"/>
  <unicode hex="00a8"/>
  <outline>
    <contour>
      <point x="360.2" y="784.3" type="line" smooth="no"/>
      <point x="359.4" y="666.7" type="line" smooth="no"/>
      <point x="239.4" y="666.7" type="line" smooth="no"/>
      <point x="239.4" y="784.3" type="line" smooth="no"/>
    </contour>
    <contour>
      <point x="209.6" y="784.3" type="line" smooth="no"/>
      <point x="208.8" y="666.7" type="line" smooth="no"/>
      <point x="88.7998" y="666.7" type="line" smooth="no"/>
      <point x="88.7998" y="784.3" type="line" smooth="no"/>
    </contour>
  </outline>
</glyph>
<glyph name="copyright" format="1">
  <advance width="531"/>
  <unicode hex="00a9"/>
  <outline>
    <contour>
      <point x="254" y="663" type="curve" smooth="yes"/>
      <point x="323.639" y="665.7"/>
      <point x="392.989" y="634.512"/>
      <point x="440.193" y="583.241" type="curve" smooth="yes"/>
      <point x="487.396" y="531.97"/>
      <point x="513.363" y="462.642"/>
      <point x="516" y="393" type="curve" smooth="yes"/>
      <point x="518.801" y="319.041"/>
      <point x="495.347" y="243.504"/>
      <point x="447.445" y="187.083" type="curve" smooth="yes"/>
      <point x="423.495" y="158.873"/>
      <point x="393.557" y="135.653"/>
      <point x="359.91" y="120.248" type="curve" smooth="yes"/>
      <point x="326.263" y="104.842"/>
      <point x="288.971" y="97.3721"/>
      <point x="252" y="99" type="curve" smooth="yes"/>
      <point x="180.561" y="102.145"/>
      <point x="112.475" y="140.56"/>
      <point x="69.0967" y="197.409" type="curve" smooth="yes"/>
      <point x="25.7188" y="254.259"/>
      <point x="5.73828" y="327.618"/>
      <point x="10" y="399" type="curve" smooth="yes"/>
      <point x="13.916" y="464.592"/>
      <point x="38.3545" y="529.447"/>
      <point x="81.749" y="578.789" type="curve" smooth="yes"/>
      <point x="125.143" y="628.131"/>
      <point x="188.341" y="660.454"/>
    </contour>
    <contour>
      <point x="381.89" y="423.824" type="line" smooth="no"/>
      <point x="382.092" y="436.862"/>
      <point x="381.091" y="449.926"/>
      <point x="378.77" y="462.757" type="curve" smooth="yes"/>
      <point x="374.474" y="486.506"/>
      <point x="365.208" y="509.915"/>
      <point x="348.667" y="527.489" type="curve" smooth="yes"/>
      <point x="337.606" y="539.242"/>
      <point x="323.566" y="548.06"/>
      <point x="308.377" y="553.519" type="curve" smooth="yes"/>
      <point x="293.189" y="558.977"/>
      <point x="276.952" y="561.285"/>
      <point x="260.813" y="561.11" type="curve" smooth="yes"/>
      <point x="244.279" y="560.931"/>
      <point x="227.697" y="558.151"/>
      <point x="212.3" y="552.122" type="curve" smooth="yes"/>
      <point x="196.903" y="546.093"/>
      <point x="182.802" y="536.59"/>
      <point x="171.933" y="524.129" type="curve" smooth="yes"/>
      <point x="155.858" y="505.699"/>
      <point x="147.449" y="481.584"/>
      <point x="144.212" y="457.344" type="curve" smooth="yes"/>
      <point x="142.637" y="445.548"/>
      <point x="142.191" y="433.606"/>
      <point x="142.788" y="421.72" type="curve" smooth="yes"/>
      <point x="144.824" y="306.747" type="line" smooth="no"/>
      <point x="146.074" y="297.572"/>
      <point x="148.017" y="288.49"/>
      <point x="150.688" y="279.624" type="curve" smooth="yes"/>
      <point x="156.353" y="260.816"/>
      <point x="165.546" y="242.703"/>
      <point x="179.689" y="229.073" type="curve" smooth="yes"/>
      <point x="188.779" y="220.313"/>
      <point x="199.761" y="213.579"/>
      <point x="211.581" y="209.146" type="curve" smooth="yes"/>
      <point x="223.401" y="204.714"/>
      <point x="235.991" y="202.488"/>
      <point x="248.603" y="201.95" type="curve" smooth="yes"/>
      <point x="266.767" y="201.175"/>
      <point x="285.113" y="203.756"/>
      <point x="302.229" y="209.886" type="curve" smooth="yes"/>
      <point x="319.345" y="216.016"/>
      <point x="335.161" y="225.992"/>
      <point x="347.501" y="239.343" type="curve" smooth="yes"/>
      <point x="365.056" y="258.336"/>
      <point x="374.959" y="283.477"/>
      <point x="378.922" y="309.035" type="curve" smooth="yes"/>
      <point x="380.838" y="321.39"/>
      <point x="381.464" y="333.94"/>
      <point x="380.872" y="346.428" type="curve" smooth="no"/>
      <point x="286.25" y="345.41" type="line" smooth="no"/>
      <point x="286.595" y="337.903"/>
      <point x="286.658" y="330.353"/>
      <point x="285.724" y="322.897" type="curve" smooth="yes"/>
      <point x="284.947" y="316.691"/>
      <point x="283.247" y="310.384"/>
      <point x="279.304" y="305.529" type="curve" smooth="yes"/>
      <point x="277.007" y="302.702"/>
      <point x="273.976" y="300.452"/>
      <point x="270.551" y="299.212" type="curve" smooth="yes"/>
      <point x="267.126" y="297.972"/>
      <point x="263.336" y="297.753"/>
      <point x="259.795" y="298.608" type="curve" smooth="no"/>
      <point x="256.323" y="298.346"/>
      <point x="252.79" y="298.975"/>
      <point x="249.616" y="300.406" type="curve" smooth="yes"/>
      <point x="246.443" y="301.838"/>
      <point x="243.646" y="304.065"/>
      <point x="241.455" y="306.771" type="curve" smooth="yes"/>
      <point x="237.956" y="311.092"/>
      <point x="236.019" y="316.507"/>
      <point x="235.073" y="321.986" type="curve" smooth="yes"/>
      <point x="234.608" y="324.681"/>
      <point x="234.374" y="327.415"/>
      <point x="234.359" y="330.149" type="curve" smooth="yes"/>
      <point x="234.359" y="446.138" type="line" smooth="yes"/>
      <point x="234.449" y="448.528"/>
      <point x="234.748" y="450.912"/>
      <point x="235.261" y="453.248" type="curve" smooth="yes"/>
      <point x="236.323" y="458.082"/>
      <point x="238.333" y="462.785"/>
      <point x="241.605" y="466.499" type="curve" smooth="yes"/>
      <point x="243.73" y="468.911"/>
      <point x="246.381" y="470.869"/>
      <point x="249.346" y="472.112" type="curve" smooth="yes"/>
      <point x="252.311" y="473.354"/>
      <point x="255.576" y="473.876"/>
      <point x="258.779" y="473.609" type="curve" smooth="yes"/>
      <point x="262.239" y="474.18"/>
      <point x="265.848" y="473.813"/>
      <point x="269.128" y="472.571" type="curve" smooth="yes"/>
      <point x="272.407" y="471.328"/>
      <point x="275.338" y="469.218"/>
      <point x="277.645" y="466.576" type="curve" smooth="yes"/>
      <point x="282" y="461.588"/>
      <point x="284.004" y="454.96"/>
      <point x="285.009" y="448.415" type="curve" smooth="yes"/>
      <point x="286.26" y="440.271"/>
      <point x="286.385" y="431.992"/>
      <point x="286.25" y="423.754" type="curve" smooth="no"/>
    </contour>
  </outline>
</glyph>
<glyph name="guillemotleft" format="1">
  <advance width="572"/>
  <unicode hex="00ab"/>
  <outline>
    <contour>
      <point x="352" y="0" type="line" smooth="no"/>
      <point x="492" y="0" type="line" smooth="no"/>
      <point x="394" y="195" type="line" smooth="no"/>
      <point x="502" y="399" type="line" smooth="no"/>
      <point x="358" y="399" type="line" smooth="no"/>
      <point x="248" y="211" type="line" smooth="no"/>
      <point x="196" y="211" type="line" smooth="no"/>
      <point x="282" y="400" type="line" smooth="no"/>
      <point x="142" y="400" type="line" smooth="no"/>
      <point x="44" y="196" type="line" smooth="no"/>
      <point x="139" y="0" type="line" smooth="no"/>
      <point x="286" y="0" type="line" smooth="no"/>
      <point x="204" y="174" type="line" smooth="no"/>
      <point x="255" y="174" type="line" smooth="no"/>
    </contour>
  </outline>
</glyph>
<glyph name="uni00AD" format="1">
  <advance width="326"/>
  <unicode hex="00ad"/>
  <outline>
    <contour>
      <point x="39.8398" y="120" type="line" smooth="no"/>
      <point x="39.8398" y="229.5" type="line" smooth="no"/>
      <point x="286" y="229.5" type="line" smooth="no"/>
      <point x="285.84" y="121" type="line" smooth="no"/>
    </contour>
  </outline>
</glyph>
<glyph name="registered" format="1">
  <advance width="531"/>
  <unicode hex="00ae"/>
  <outline>
    <contour>
      <point x="288.715" y="451.38" type="curve" smooth="no"/>
      <point x="288.715" y="424.946"/>
      <point x="270.262" y="429.435"/>
      <point x="248.815" y="429.435" type="curve" smooth="no"/>
      <point x="248.815" y="477.315" type="line" smooth="no"/>
      <point x="280.236" y="477.315"/>
      <point x="288.715" y="480.308"/>
    </contour>
    <contour>
      <point x="351.558" y="382.553" type="curve" smooth="no"/>
      <point x="351.558" y="382.553"/>
      <point x="378.49" y="400.009"/>
      <point x="378.49" y="462.353" type="curve" smooth="no"/>
      <point x="378.49" y="491.778"/>
      <point x="365.522" y="554.122"/>
      <point x="296.695" y="554.122" type="curve" smooth="yes"/>
      <point x="163.03" y="554.122" type="line" smooth="no"/>
      <point x="163.03" y="204" type="line" smooth="no"/>
      <point x="247.817" y="204" type="line" smooth="no"/>
      <point x="247.817" y="351.63" type="line" smooth="no"/>
      <point x="275.747" y="351.63"/>
      <point x="295.199" y="356.285"/>
      <point x="295.199" y="326.193" type="curve" smooth="yes"/>
      <point x="295.199" y="290.284"/>
      <point x="295.503" y="251.655"/>
      <point x="295.697" y="204" type="curve" smooth="no"/>
      <point x="378.49" y="204" type="line" smooth="no"/>
      <point x="378.49" y="336.169" type="line" smooth="no"/>
      <point x="378.49" y="361.106"/>
      <point x="351.558" y="382.054"/>
    </contour>
    <contour>
      <point x="254" y="664" type="curve" smooth="yes"/>
      <point x="323.639" y="666.7"/>
      <point x="392.989" y="635.512"/>
      <point x="440.193" y="584.241" type="curve" smooth="yes"/>
      <point x="487.396" y="532.97"/>
      <point x="513.363" y="463.642"/>
      <point x="516" y="394" type="curve" smooth="yes"/>
      <point x="518.801" y="320.041"/>
      <point x="495.347" y="244.504"/>
      <point x="447.445" y="188.083" type="curve" smooth="yes"/>
      <point x="423.495" y="159.873"/>
      <point x="393.557" y="136.653"/>
      <point x="359.91" y="121.248" type="curve" smooth="yes"/>
      <point x="326.263" y="105.842"/>
      <point x="288.971" y="98.3721"/>
      <point x="252" y="100" type="curve" smooth="yes"/>
      <point x="180.561" y="103.145"/>
      <point x="112.475" y="141.56"/>
      <point x="69.0967" y="198.409" type="curve" smooth="yes"/>
      <point x="25.7188" y="255.259"/>
      <point x="5.73828" y="328.618"/>
      <point x="10" y="400" type="curve" smooth="yes"/>
      <point x="13.916" y="465.592"/>
      <point x="38.3545" y="530.447"/>
      <point x="81.749" y="579.789" type="curve" smooth="yes"/>
      <point x="125.143" y="629.131"/>
      <point x="188.341" y="661.454"/>
    </contour>
  </outline>
</glyph>
<glyph name="macron" format="1">
  <advance width="376"/>
  <unicode hex="00af"/>
  <outline>
    <contour>
      <point x="72" y="673" type="line" smooth="no"/>
      <point x="72" y="782.5" type="line" smooth="no"/>
      <point x="318.16" y="782.5" type="line" smooth="no"/>
      <point x="318" y="674" type="line" smooth="no"/>
    </contour>
  </outline>
</glyph>
<glyph name="plusminus" format="1">
  <advance width="470"/>
  <unicode hex="00b1"/>
  <outline>
    <contour>
      <point x="33" y="38" type="line" smooth="no"/>
      <point x="33" y="160" type="line" smooth="no"/>
      <point x="392.16" y="160" type="line" smooth="no"/>
      <point x="393" y="38" type="line" smooth="no"/>
    </contour>
    <contour>
      <point x="276" y="557" type="line" smooth="no"/>
      <point x="276" y="443" type="line" smooth="no"/>
      <point x="392.16" y="443" type="line" smooth="no"/>
      <point x="392" y="323" type="line" smooth="no"/>
      <point x="275" y="323" type="line" smooth="no"/>
      <point x="275" y="200" type="line" smooth="no"/>
      <point x="148" y="201" type="line" smooth="no"/>
      <point x="148" y="321" type="line" smooth="no"/>
      <point x="33" y="321" type="line" smooth="no"/>
      <point x="33" y="443" type="line" smooth="no"/>
      <point x="148" y="443" type="line" smooth="no"/>
      <point x="148" y="557" type="line" smooth="no"/>
    </contour>
  </outline>
</glyph>
<glyph name="paragraph" format="1">
  <advance width="596"/>
  <unicode hex="00b6"/>
  <outline>
    <contour>
      <point x="480" y="520" type="line" smooth="no"/>
      <point x="479.12" y="0" type="line" smooth="no"/>
      <point x="583.36" y="0" type="line" smooth="no"/>
      <point x="583.36" y="668.16" type="line" smooth="no"/>
      <point x="253.88" y="668.16" type="line" smooth="yes"/>
      <point x="148.28" y="668.16"/>
      <point x="122.36" y="601.92"/>
      <point x="122.36" y="555.84" type="curve" smooth="yes"/>
      <point x="122.36" y="492.94"/>
      <point x="123.146" y="486.716"/>
      <point x="122.36" y="394.56" type="curve" smooth="yes"/>
      <point x="121.402" y="282.24"/>
      <point x="221.24" y="281.28"/>
      <point x="221.24" y="281.28" type="curve" smooth="no"/>
      <point x="333.6" y="281.28" type="line" smooth="no"/>
      <point x="333.08" y="407.52" type="line" smooth="no"/>
      <point x="272.12" y="407.52"/>
      <point x="263.96" y="399.84"/>
      <point x="263.96" y="468.48" type="curve" smooth="yes"/>
      <point x="263.96" y="527.04"/>
      <point x="272.6" y="520.32"/>
      <point x="344.12" y="520.32" type="curve" smooth="no"/>
      <point x="344.12" y="0" type="line" smooth="no"/>
      <point x="456.36" y="0" type="line" smooth="no"/>
      <point x="456.36" y="520.095" type="line" smooth="no"/>
    </contour>
  </outline>
</glyph>
<glyph name="periodcentered" format="1">
  <advance width="282"/>
  <unicode hex="00b7"/>
  <outline>
    <contour>
      <point x="144" y="339" type="curve" smooth="yes"/>
      <point x="165.796" y="339.247"/>
      <point x="187.553" y="330.378"/>
      <point x="202.966" y="314.966" type="curve" smooth="yes"/>
      <point x="218.378" y="299.553"/>
      <point x="227.247" y="277.796"/>
      <point x="227" y="256" type="curve" smooth="yes"/>
      <point x="226.749" y="233.847"/>
      <point x="217.072" y="211.954"/>
      <point x="200.857" y="196.857" type="curve" smooth="yes"/>
      <point x="184.642" y="181.76"/>
      <point x="162.115" y="173.67"/>
      <point x="140" y="175" type="curve" smooth="yes"/>
      <point x="119.039" y="176.261"/>
      <point x="98.7014" y="185.931"/>
      <point x="84.4929" y="201.394" type="curve" smooth="yes"/>
      <point x="70.2843" y="216.856"/>
      <point x="62.3643" y="237.937"/>
      <point x="62.8763" y="258.93" type="curve" smooth="yes"/>
      <point x="63.3883" y="279.923"/>
      <point x="72.3267" y="300.592"/>
      <point x="87.2721" y="315.344" type="curve" smooth="yes"/>
      <point x="102.218" y="330.095"/>
      <point x="123.002" y="338.762"/>
    </contour>
  </outline>
</glyph>
<glyph name="cedilla" format="1">
  <advance width="1000"/>
  <unicode hex="00b8"/>
  <outline>
    <contour>
      <point x="243" y="-14.5" type="line" smooth="no"/>
      <point x="244.333" y="-21.833"/>
      <point x="244.667" y="-29.167"/>
      <point x="244" y="-36.5" type="curve" smooth="yes"/>
      <point x="243.333" y="-43.833"/>
      <point x="243" y="-51.167"/>
      <point x="243" y="-58.5" type="curve" smooth="no"/>
      <point x="241.667" y="-67.167"/>
      <point x="239" y="-75.167"/>
      <point x="235" y="-82.5" type="curve" smooth="yes"/>
      <point x="231.667" y="-89.167"/>
      <point x="226.167" y="-96"/>
      <point x="218.5" y="-103" type="curve" smooth="yes"/>
      <point x="210.833" y="-110"/>
      <point x="200.333" y="-115.833"/>
      <point x="187" y="-120.5" type="curve" smooth="no"/>
      <point x="185" y="-106.5"/>
      <point x="181.833" y="-95.5"/>
      <point x="177.5" y="-87.5" type="curve" smooth="yes"/>
      <point x="173.167" y="-79.5"/>
      <point x="168.833" y="-73.833"/>
      <point x="164.5" y="-70.5" type="curve" smooth="yes"/>
      <point x="160.167" y="-67.167"/>
      <point x="156.333" y="-65.167"/>
      <point x="153" y="-64.5" type="curve" smooth="yes"/>
      <point x="149.667" y="-63.833"/>
      <point x="147.667" y="-63.5"/>
      <point x="147" y="-63.5" type="curve" smooth="yes"/>
      <point x="139" y="-63.5" type="line" smooth="yes"/>
      <point x="136.333" y="-63.5"/>
      <point x="133.167" y="-63.667"/>
      <point x="129.5" y="-64" type="curve" smooth="yes"/>
      <point x="125.833" y="-64.333"/>
      <point x="122.333" y="-64.833"/>
      <point x="119" y="-65.5" type="curve" smooth="no"/>
      <point x="118.333" y="-62.167"/>
      <point x="117.833" y="-55.333"/>
      <point x="117.5" y="-45" type="curve" smooth="yes"/>
      <point x="117.167" y="-34.667"/>
      <point x="120.333" y="-18.833"/>
      <point x="127" y="2.5" type="curve" smooth="no"/>
    </contour>
  </outline>
</glyph>
<glyph name="questiondown" format="1">
  <advance width="607"/>
  <unicode hex="00bf"/>
  <outline>
    <contour>
      <point x="339.28" y="540.8" type="line" smooth="no"/>
      <point x="402.28" y="540.8" type="line" smooth="no"/>
      <point x="402.32" y="483.12" type="line" smooth="no"/>
      <point x="400.374" y="323.592"/>
      <point x="250.24" y="304.8"/>
      <point x="250.24" y="199.68" type="curve" smooth="no"/>
      <point x="250.24" y="199.68"/>
      <point x="248.348" y="143.388"/>
      <point x="294.4" y="144.96" type="curve" smooth="yes"/>
      <point x="348.28" y="146.8"/>
      <point x="347.32" y="216.04"/>
      <point x="347.32" y="216.04" type="curve" smooth="no"/>
      <point x="456.28" y="169.8" type="line" smooth="yes"/>
      <point x="457.163" y="169.407"/>
      <point x="467.28" y="0"/>
      <point x="270.681" y="0" type="curve" smooth="yes"/>
      <point x="170.84" y="0"/>
      <point x="110" y="91.2002"/>
      <point x="110" y="177.6" type="curve" smooth="yes"/>
      <point x="110" y="339.84"/>
      <point x="263.16" y="386.8"/>
      <point x="263.16" y="462.08" type="curve" smooth="yes"/>
      <point x="263.16" y="540.8" type="line" smooth="no"/>
      <point x="326.28" y="540.8" type="line" smooth="no"/>
      <point x="326.28" y="555.8" type="line" smooth="no"/>
      <point x="261.28" y="555.8" type="line" smooth="no"/>
      <point x="262.28" y="676.8" type="line" smooth="no"/>
      <point x="401.28" y="676.8" type="line" smooth="no"/>
      <point x="401.28" y="555.8" type="line" smooth="no"/>
      <point x="339.28" y="555.8" type="line" smooth="no"/>
    </contour>
  </outline>
</glyph>
<glyph name="Agrave" format="1">
  <advance width="507"/>
  <unicode hex="00c0"/>
  <outline>
    <contour>
      <point x="296" y="666.478" type="line" smooth="no"/>
      <point x="316.08" y="666.12" type="line" smooth="no"/>
      <point x="487" y="0" type="line" smooth="no"/>
      <point x="337.24" y="0" type="line" smooth="no"/>
      <point x="310.36" y="109.44" type="line" smooth="no"/>
      <point x="197.08" y="107.52" type="line" smooth="no"/>
      <point x="172.12" y="0" type="line" smooth="no"/>
      <point x="20.4395" y="0" type="line" smooth="no"/>
      <point x="192" y="667" type="line" smooth="no"/>
      <point x="108" y="765" type="line" smooth="no"/>
      <point x="247" y="765" type="line" smooth="no"/>
    </contour>
    <contour>
      <point x="222.04" y="211.2" type="line" smooth="no"/>
      <point x="289.24" y="213.12" type="line" smooth="no"/>
      <point x="253.721" y="337.92" type="line" smooth="no"/>
    </contour>
  </outline>
</glyph>
<glyph name="Acircumflex" format="1">
  <advance width="507"/>
  <unicode hex="00c2"/>
  <outline>
    <contour>
      <point x="222.04" y="211.2" type="line" smooth="no"/>
      <point x="289.24" y="213.12" type="line" smooth="no"/>
      <point x="253.721" y="337.92" type="line" smooth="no"/>
    </contour>
    <contour>
      <point x="189.08" y="730" type="line" smooth="no"/>
      <point x="317.08" y="781" type="line" smooth="no"/>
      <point x="437.08" y="730" type="line" smooth="no"/>
      <point x="394.08" y="650" type="line" smooth="no"/>
      <point x="316.08" y="687" type="line" smooth="no"/>
      <point x="274.754" y="668.797" type="line" smooth="no"/>
      <point x="317.08" y="669.12" type="line" smooth="no"/>
      <point x="487" y="0" type="line" smooth="no"/>
      <point x="337.24" y="0" type="line" smooth="no"/>
      <point x="310.36" y="109.44" type="line" smooth="no"/>
      <point x="197.08" y="107.52" type="line" smooth="no"/>
      <point x="172.12" y="0" type="line" smooth="no"/>
      <point x="20.4395" y="0" type="line" smooth="no"/>
      <point x="191.32" y="668.16" type="line" smooth="no"/>
      <point x="222.192" y="668.396" type="line" smooth="no"/>
    </contour>
  </outline>
</glyph>
<glyph name="Adieresis" format="1">
  <advance width="507"/>
  <unicode hex="00c4"/>
  <outline>
    <component base="uni0041"/>
    <contour>
      <point x="416.064" y="804.89" type="line" smooth="no"/>
      <point x="415.264" y="668.18" type="line" smooth="no"/>
      <point x="295.264" y="668.18" type="line" smooth="no"/>
      <point x="295.264" y="804.89" type="line" smooth="no"/>
    </contour>
    <contour>
      <point x="238.464" y="804.89" type="line" smooth="no"/>
      <point x="237.664" y="668.18" type="line" smooth="no"/>
      <point x="117.664" y="668.18" type="line" smooth="no"/>
      <point x="117.664" y="804.89" type="line" smooth="no"/>
    </contour>
  </outline>
</glyph>
<glyph name="AE" format="1">
  <advance width="711"/>
  <unicode hex="00c6"/>
  <outline>
    <contour>
      <point x="297" y="208" type="line" smooth="no"/>
      <point x="354.74" y="208.12" type="line" smooth="no"/>
      <point x="355" y="348" type="line" smooth="no"/>
    </contour>
    <contour>
      <point x="354" y="0" type="line" smooth="no"/>
      <point x="354.836" y="106.939" type="line" smooth="no"/>
      <point x="260" y="106" type="line" smooth="no"/>
      <point x="212.12" y="0" type="line" smooth="no"/>
      <point x="67.9404" y="0" type="line" smooth="no"/>
      <point x="354" y="666" type="line" smooth="no"/>
      <point x="653.5" y="668" type="line" smooth="no"/>
      <point x="651.5" y="545" type="line" smooth="no"/>
      <point x="496" y="541" type="line" smooth="no"/>
      <point x="497.5" y="415" type="line" smooth="no"/>
      <point x="653.5" y="415" type="line" smooth="no"/>
      <point x="651.5" y="284" type="line" smooth="no"/>
      <point x="497.5" y="280" type="line" smooth="no"/>
      <point x="497.5" y="127" type="line" smooth="no"/>
      <point x="653.5" y="125" type="line" smooth="no"/>
      <point x="649.5" y="0" type="line" smooth="no"/>
    </contour>
  </outline>
</glyph>
<glyph name="Egrave" format="1">
  <advance width="440"/>
  <unicode hex="00c8"/>
  <outline>
    <contour>
      <point x="273" y="667.478" type="line" smooth="no"/>
      <point x="224" y="766" type="line" smooth="no"/>
      <point x="85" y="766" type="line" smooth="no"/>
      <point x="170" y="668" type="line" smooth="no"/>
      <point x="69.7207" y="667.2" type="line" smooth="no"/>
      <point x="70.6807" y="0" type="line" smooth="no"/>
      <point x="371.16" y="0" type="line" smooth="no"/>
      <point x="375" y="124.8" type="line" smooth="no"/>
      <point x="219.48" y="126.72" type="line" smooth="no"/>
      <point x="219.48" y="280.32" type="line" smooth="no"/>
      <point x="373.08" y="284.16" type="line" smooth="no"/>
      <point x="375" y="414.72" type="line" smooth="no"/>
      <point x="219.48" y="414.72" type="line" smooth="no"/>
      <point x="217.561" y="541.44" type="line" smooth="no"/>
      <point x="373.08" y="545.28" type="line" smooth="no"/>
      <point x="375" y="668.16" type="line" smooth="no"/>
    </contour>
  </outline>
</glyph>
<glyph name="Edieresis" format="1">
  <advance width="440"/>
  <unicode hex="00cb"/>
  <outline>
    <contour>
      <point x="69.7207" y="667.2" type="line" smooth="no"/>
      <point x="375" y="668.16" type="line" smooth="no"/>
      <point x="373.08" y="545.28" type="line" smooth="no"/>
      <point x="217.561" y="541.44" type="line" smooth="no"/>
      <point x="219.48" y="414.72" type="line" smooth="no"/>
      <point x="375" y="414.72" type="line" smooth="no"/>
      <point x="373.08" y="284.16" type="line" smooth="no"/>
      <point x="219.48" y="280.32" type="line" smooth="no"/>
      <point x="219.48" y="126.72" type="line" smooth="no"/>
      <point x="375" y="124.8" type="line" smooth="no"/>
      <point x="371.16" y="0" type="line" smooth="no"/>
      <point x="70.6807" y="0" type="line" smooth="no"/>
    </contour>
    <contour>
      <point x="359.2" y="785.3" type="line" smooth="no"/>
      <point x="358.4" y="667.7" type="line" smooth="no"/>
      <point x="238.4" y="667.7" type="line" smooth="no"/>
      <point x="238.4" y="785.3" type="line" smooth="no"/>
    </contour>
    <contour>
      <point x="153.6" y="786.3" type="line" smooth="no"/>
      <point x="152.8" y="668.7" type="line" smooth="no"/>
      <point x="32.7998" y="668.7" type="line" smooth="no"/>
      <point x="32.7998" y="786.3" type="line" smooth="no"/>
    </contour>
  </outline>
</glyph>
<glyph name="Iacute" format="1">
  <advance width="384"/>
  <unicode hex="00cd"/>
  <outline>
    <contour>
      <point x="142.24" y="666.479" type="line" smooth="no"/>
      <point x="177.24" y="780" type="line" smooth="no"/>
      <point x="284.24" y="780" type="line" smooth="no"/>
      <point x="210.24" y="666" type="line" smooth="no"/>
      <point x="244" y="666.24" type="line" smooth="no"/>
      <point x="244" y="0" type="line" smooth="no"/>
      <point x="113.44" y="0" type="line" smooth="no"/>
      <point x="100" y="666.24" type="line" smooth="no"/>
    </contour>
  </outline>
</glyph>
<glyph name="Ntilde" format="1">
  <advance width="531"/>
  <unicode hex="00d1"/>
  <outline>
    <contour>
      <point x="152.423" y="735.614" type="line" smooth="no"/>
      <point x="156.387" y="739.697"/>
      <point x="162.226" y="743.819"/>
      <point x="169.94" y="747.981" type="curve" smooth="yes"/>
      <point x="177.656" y="752.144"/>
      <point x="185.487" y="755.936"/>
      <point x="193.43" y="759.359" type="curve" smooth="yes"/>
      <point x="201.373" y="762.783"/>
      <point x="208.754" y="765.681"/>
      <point x="215.571" y="768.053" type="curve" smooth="yes"/>
      <point x="222.39" y="770.424"/>
      <point x="226.881" y="771.86"/>
      <point x="229.05" y="772.363" type="curve" smooth="yes"/>
      <point x="239.889" y="774.876"/>
      <point x="251.17" y="776.436"/>
      <point x="262.892" y="777.042" type="curve" smooth="yes"/>
      <point x="274.613" y="777.648"/>
      <point x="286.544" y="778.041"/>
      <point x="298.689" y="778.22" type="curve" smooth="yes"/>
      <point x="310.832" y="778.398"/>
      <point x="323.172" y="778.885"/>
      <point x="335.706" y="779.679" type="curve" smooth="yes"/>
      <point x="348.24" y="780.475"/>
      <point x="360.74" y="782.317"/>
      <point x="373.206" y="785.207" type="curve" smooth="yes"/>
      <point x="384.046" y="787.72"/>
      <point x="392.243" y="791.731"/>
      <point x="397.799" y="797.237" type="curve" smooth="yes"/>
      <point x="403.355" y="802.744"/>
      <point x="408.657" y="807.665"/>
      <point x="413.705" y="812" type="curve" smooth="no"/>
      <point x="426" y="710.416" type="line" smooth="no"/>
      <point x="407.732" y="699.061" type="line" smooth="no"/>
      <point x="391.916" y="691.044" type="line" smooth="no"/>
      <point x="378.667" y="685.994" type="line" smooth="no"/>
      <point x="368.91" y="683.732"/>
      <point x="358.27" y="682.453"/>
      <point x="346.743" y="682.154" type="curve" smooth="yes"/>
      <point x="335.218" y="681.857"/>
      <point x="323.17" y="681.835"/>
      <point x="310.603" y="682.086" type="curve" smooth="yes"/>
      <point x="298.036" y="682.337"/>
      <point x="285.311" y="682.157"/>
      <point x="272.43" y="681.545" type="curve" smooth="yes"/>
      <point x="259.549" y="680.933"/>
      <point x="247.417" y="679.307"/>
      <point x="236.035" y="676.669" type="curve" smooth="yes"/>
      <point x="224.652" y="674.03"/>
      <point x="214.524" y="670.628"/>
      <point x="205.648" y="666.461" type="curve" smooth="yes"/>
      <point x="203.724" y="665.548" type="line" smooth="no"/>
      <point x="307" y="489.6" type="line" smooth="no"/>
      <point x="310.84" y="668.16" type="line" smooth="no"/>
      <point x="451" y="666.24" type="line" smooth="no"/>
      <point x="447.158" y="0.959961" type="line" smooth="no"/>
      <point x="314.68" y="0.959961" type="line" smooth="no"/>
      <point x="312.76" y="168.96" type="line" smooth="no"/>
      <point x="228.278" y="299.52" type="line" smooth="no"/>
      <point x="230.198" y="-1.91992" type="line" smooth="no"/>
      <point x="84.2803" y="-1.91992" type="line" smooth="no"/>
      <point x="80.4404" y="664.32" type="line" smooth="no"/>
      <point x="160.798" y="665.576" type="line" smooth="no"/>
    </contour>
  </outline>
</glyph>
<glyph name="Ograve" format="1">
  <advance width="494"/>
  <unicode hex="00d2"/>
  <outline>
    <contour>
      <point x="223" y="672" type="line" smooth="no"/>
      <point x="223.278" y="534" type="line" smooth="yes"/>
      <point x="223.28" y="533.04"/>
      <point x="233" y="546"/>
      <point x="253.519" y="545.28" type="curve" smooth="yes"/>
      <point x="281.341" y="544.304"/>
      <point x="293.838" y="518.4"/>
      <point x="293.838" y="496.32" type="curve" smooth="yes"/>
      <point x="293.838" y="188.16" type="line" smooth="yes"/>
      <point x="293.838" y="152.64"/>
      <point x="279.438" y="132.48"/>
      <point x="247.758" y="132.48" type="curve" smooth="yes"/>
      <point x="211.278" y="132.48"/>
      <point x="204.559" y="163.2"/>
      <point x="204.559" y="185.28" type="curve" smooth="yes"/>
      <point x="205.519" y="670.08" type="line" smooth="no"/>
      <point x="81.6777" y="643.2"/>
      <point x="58.6387" y="595.2"/>
      <point x="59.5986" y="380.16" type="curve" smooth="yes"/>
      <point x="61.5186" y="144" type="line" smooth="no"/>
      <point x="61.5186" y="144"/>
      <point x="67.2803" y="-5.84139"/>
      <point x="243.918" y="-6.71973" type="curve" smooth="yes"/>
      <point x="436.878" y="-7.67924"/>
      <point x="433.998" y="169.92"/>
      <point x="433.998" y="169.92" type="curve" smooth="no"/>
      <point x="433.998" y="513.6" type="line" smooth="yes"/>
      <point x="433.998" y="561.655"/>
      <point x="403.855" y="616.125"/>
      <point x="341.273" y="647.04" type="curve" smooth="no"/>
      <point x="277" y="770.5" type="line" smooth="no"/>
      <point x="138" y="770" type="line" smooth="no"/>
    </contour>
  </outline>
</glyph>
<glyph name="Oacute" format="1">
  <advance width="494"/>
  <unicode hex="00d3"/>
  <outline>
    <contour>
      <point x="282.5" y="766" type="line" smooth="no"/>
      <point x="410" y="766" type="line" smooth="no"/>
      <point x="320.079" y="656.096" type="line" smooth="no"/>
      <point x="397.063" y="627.838"/>
      <point x="433.998" y="566.795"/>
      <point x="433.998" y="513.6" type="curve" smooth="yes"/>
      <point x="433.998" y="169.92" type="line" smooth="no"/>
      <point x="433.998" y="169.92"/>
      <point x="436.878" y="-7.67924"/>
      <point x="243.918" y="-6.71973" type="curve" smooth="yes"/>
      <point x="67.2803" y="-5.84139"/>
      <point x="61.5186" y="144"/>
      <point x="61.5186" y="144" type="curve" smooth="no"/>
      <point x="59.5986" y="380.16" type="line" smooth="yes"/>
      <point x="58.6387" y="595.2"/>
      <point x="81.6777" y="643.2"/>
      <point x="205.519" y="670.08" type="curve" smooth="no"/>
      <point x="204.559" y="185.28" type="line" smooth="yes"/>
      <point x="204.559" y="163.2"/>
      <point x="211.278" y="132.48"/>
      <point x="247.758" y="132.48" type="curve" smooth="yes"/>
      <point x="279.438" y="132.48"/>
      <point x="293.838" y="152.64"/>
      <point x="293.838" y="188.16" type="curve" smooth="yes"/>
      <point x="293.838" y="496.32" type="line" smooth="yes"/>
      <point x="293.838" y="518.4"/>
      <point x="281.341" y="544.304"/>
      <point x="253.519" y="545.28" type="curve" smooth="yes"/>
      <point x="233" y="546"/>
      <point x="223.278" y="534.96"/>
      <point x="223.278" y="534" type="curve" smooth="yes"/>
      <point x="223.278" y="671.845" type="line" smooth="no"/>
    </contour>
  </outline>
</glyph>
<glyph name="Odieresis" format="1">
  <advance width="611"/>
  <unicode hex="00d6"/>
  <outline>
    <contour>
      <point x="492" y="513.6" type="curve" smooth="yes"/>
      <point x="492" y="169.92" type="line" smooth="no"/>
      <point x="492" y="169.92"/>
      <point x="494.88" y="-7.67969"/>
      <point x="301.92" y="-6.71973" type="curve" smooth="yes"/>
      <point x="125.282" y="-5.8418"/>
      <point x="119.52" y="144"/>
      <point x="119.52" y="144" type="curve" smooth="no"/>
      <point x="117.6" y="380.16" type="line" smooth="no"/>
      <point x="116.64" y="595.2"/>
      <point x="139.68" y="643.2"/>
      <point x="263.52" y="670.08" type="curve" smooth="no"/>
      <point x="262.56" y="185.28" type="line" smooth="no"/>
      <point x="262.56" y="163.2"/>
      <point x="269.28" y="132.48"/>
      <point x="305.76" y="132.48" type="curve" smooth="yes"/>
      <point x="337.44" y="132.48"/>
      <point x="351.84" y="152.64"/>
      <point x="351.84" y="188.16" type="curve" smooth="no"/>
      <point x="351.84" y="496.32" type="line" smooth="no"/>
      <point x="351.84" y="518.4"/>
      <point x="339.36" y="545.28"/>
      <point x="311.52" y="545.28" type="curve" smooth="yes"/>
      <point x="282.72" y="545.28"/>
      <point x="269.28" y="519.36"/>
      <point x="269.28" y="518.4" type="curve" smooth="no"/>
      <point x="269.28" y="672" type="line" smooth="no"/>
      <point x="425.76" y="693.12"/>
      <point x="492" y="585.6"/>
    </contour>
  </outline>
</glyph>
<glyph name="Ugrave" format="1">
  <advance width="608"/>
  <unicode hex="00d9"/>
  <outline>
    <contour>
      <point x="120.56" y="668.16" type="line" smooth="no"/>
      <point x="120.56" y="165.12" type="line" smooth="no"/>
      <point x="120.56" y="109.44"/>
      <point x="175.28" y="0"/>
      <point x="298.16" y="0.959961" type="curve" smooth="no"/>
      <point x="437.36" y="1.91992"/>
      <point x="489.2" y="99.8398"/>
      <point x="489.2" y="156.48" type="curve" smooth="yes"/>
      <point x="485.36" y="668.16" type="line" smooth="no"/>
      <point x="350" y="668.16" type="line" smooth="no"/>
      <point x="350.96" y="181.44" type="line" smooth="no"/>
      <point x="338.48" y="156.48"/>
      <point x="330.8" y="141.12"/>
      <point x="294.32" y="141.12" type="curve" smooth="yes"/>
      <point x="257.84" y="141.12"/>
      <point x="258.8" y="185.28"/>
      <point x="258.8" y="185.28" type="curve" smooth="no"/>
      <point x="257.84" y="668.16" type="line" smooth="no"/>
    </contour>
  </outline>
</glyph>
<glyph name="Yacute" format="1">
  <advance width="627"/>
  <unicode hex="00dd"/>
  <outline>
    <contour>
      <point x="55.04" y="666.24" type="line" smooth="no"/>
      <point x="218.24" y="668.16" type="line" smooth="no"/>
      <point x="314.24" y="489.6" type="line" smooth="no"/>
      <point x="408.32" y="668.16" type="line" smooth="no"/>
      <point x="567.68" y="662.4" type="line" smooth="no"/>
      <point x="387.2" y="341.76" type="line" smooth="no"/>
      <point x="387.2" y="0" type="line" smooth="no"/>
      <point x="237.44" y="0" type="line" smooth="no"/>
      <point x="237.44" y="343.68" type="line" smooth="no"/>
    </contour>
  </outline>
</glyph>
<glyph name="agrave" format="1">
  <advance width="617"/>
  <unicode hex="00e0"/>
  <outline>
    <contour>
      <point x="92.6084" y="0" type="line" smooth="no"/>
      <point x="227.93" y="501.399" type="line" smooth="no"/>
      <point x="363.252" y="498.551" type="line" smooth="no"/>
      <point x="519.938" y="0" type="line" smooth="no"/>
      <point x="388.891" y="0" type="line" smooth="no"/>
      <point x="299.152" y="247.851" type="line" smooth="no"/>
      <point x="277.785" y="162.385" type="line" smooth="no"/>
      <point x="324.791" y="160.961" type="line" smooth="no"/>
      <point x="350.431" y="84.041" type="line" smooth="no"/>
      <point x="247.872" y="81.1914" type="line" smooth="no"/>
      <point x="225.081" y="0" type="line" smooth="no"/>
    </contour>
  </outline>
</glyph>
<glyph name="aacute" format="1">
  <advance width="617"/>
  <unicode hex="00e1"/>
  <outline>
    <contour>
      <point x="363.252" y="498.551" type="line" smooth="no"/>
      <point x="519.938" y="0" type="line" smooth="no"/>
      <point x="388.891" y="0" type="line" smooth="no"/>
      <point x="299.152" y="247.851" type="line" smooth="no"/>
      <point x="277.785" y="162.385" type="line" smooth="no"/>
      <point x="324.791" y="160.961" type="line" smooth="no"/>
      <point x="350.431" y="84.041" type="line" smooth="no"/>
      <point x="247.872" y="81.1914" type="line" smooth="no"/>
      <point x="225.081" y="0" type="line" smooth="no"/>
      <point x="92.6084" y="0" type="line" smooth="no"/>
      <point x="227.93" y="501.399" type="line" smooth="no"/>
      <point x="254.5" y="500.84" type="line" smooth="no"/>
      <point x="299.147" y="589.34" type="line" smooth="no"/>
      <point x="410.531" y="589.34" type="line" smooth="no"/>
      <point x="335.839" y="500.156" type="line" smooth="no"/>
    </contour>
  </outline>
</glyph>
<glyph name="ae" format="1">
  <advance width="467"/>
  <unicode hex="00e6"/>
  <outline>
    <contour>
      <point x="234.349" y="0.797852" type="line" smooth="no"/>
      <point x="444.455" y="0.0244141" type="line" smooth="no"/>
      <point x="445.879" y="108.281" type="line" smooth="no"/>
      <point x="336.199" y="108.281" type="line" smooth="no"/>
      <point x="336.199" y="195.172" type="line" smooth="no"/>
      <point x="445.879" y="199.444" type="line" smooth="no"/>
      <point x="445.879" y="302.004" type="line" smooth="no"/>
      <point x="336.199" y="302.004" type="line" smooth="no"/>
      <point x="336.199" y="397.44" type="line" smooth="no"/>
      <point x="445.879" y="397.44" type="line" smooth="no"/>
      <point x="445.879" y="504.273" type="line" smooth="no"/>
      <point x="190" y="500" type="line" smooth="no"/>
      <point x="19.6715" y="0" type="line" smooth="no"/>
      <point x="152.143" y="0" type="line" smooth="no"/>
      <point x="178.934" y="81.1924" type="line" smooth="no"/>
      <point x="222.493" y="82.541" type="line" smooth="no"/>
      <point x="221.853" y="161.961" type="line" smooth="no"/>
      <point x="204.347" y="162.385" type="line" smooth="no"/>
      <point x="231.214" y="252.851" type="line" smooth="no"/>
    </contour>
  </outline>
</glyph>
<glyph name="ccedilla" format="1">
  <advance width="568"/>
  <unicode hex="00e7"/>
  <outline>
    <contour>
      <point x="205.501" y="11.584" type="line" smooth="no"/>
      <point x="165.373" y="-121.523" type="line" smooth="no"/>
      <point x="268.189" y="-121.523" type="line" smooth="no"/>
      <point x="341.697" y="12.4033" type="line" smooth="no"/>
      <point x="341.697" y="12.4033" type="line" smooth="no"/>
      <point x="462.437" y="56.3848"/>
      <point x="449.081" y="202.269"/>
      <point x="449.081" y="202.269" type="curve" smooth="no"/>
      <point x="316.609" y="200.845" type="line" smooth="no"/>
      <point x="316.609" y="168.083"/>
      <point x="319.458" y="135.321"/>
      <point x="279.573" y="135.321" type="curve" smooth="yes"/>
      <point x="242.539" y="135.321"/>
      <point x="243.963" y="179.479"/>
      <point x="243.963" y="179.479" type="curve" smooth="no"/>
      <point x="243.963" y="341.863" type="line" smooth="no"/>
      <point x="243.963" y="341.863"/>
      <point x="243.963" y="380.322"/>
      <point x="278.149" y="380.322" type="curve" smooth="yes"/>
      <point x="315.185" y="380.322"/>
      <point x="316.609" y="347.561"/>
      <point x="316.609" y="310.525" type="curve" smooth="no"/>
      <point x="450.505" y="316.224" type="line" smooth="no"/>
      <point x="450.505" y="316.224"/>
      <point x="459.031" y="505.583"/>
      <point x="280.998" y="502.824" type="curve" smooth="yes"/>
      <point x="97.2471" y="499.976"/>
      <point x="115.764" y="307.677"/>
      <point x="115.764" y="307.677" type="curve" smooth="no"/>
      <point x="118.613" y="146.717" type="line" smooth="no"/>
      <point x="118.613" y="146.717"/>
      <point x="127.394" y="46.2363"/>
      <point x="205.501" y="11.584" type="curve" smooth="no"/>
    </contour>
  </outline>
</glyph>
<glyph name="egrave" format="1">
  <advance width="487"/>
  <unicode hex="00e8"/>
  <outline>
    <contour>
      <point x="282.744" y="502.812" type="line" smooth="no"/>
      <point x="257.04" y="578.34" type="line" smooth="no"/>
      <point x="145.656" y="578.34" type="line" smooth="no"/>
      <point x="201.349" y="500.156" type="line" smooth="no"/>
      <point x="124.654" y="499.622" type="line" smooth="no"/>
      <point x="127.503" y="2.84863" type="line" smooth="no"/>
      <point x="361.109" y="-1.4248" type="line" smooth="no"/>
      <point x="362.533" y="106.832" type="line" smooth="no"/>
      <point x="252.853" y="106.832" type="line" smooth="no"/>
      <point x="252.853" y="193.723" type="line" smooth="no"/>
      <point x="362.533" y="197.995" type="line" smooth="no"/>
      <point x="362.533" y="300.555" type="line" smooth="no"/>
      <point x="252.853" y="300.555" type="line" smooth="no"/>
      <point x="252.853" y="395.991" type="line" smooth="no"/>
      <point x="362.533" y="395.991" type="line" smooth="no"/>
      <point x="362.533" y="502.824" type="line" smooth="no"/>
    </contour>
  </outline>
</glyph>
<glyph name="eacute" format="1">
  <advance width="487"/>
  <unicode hex="00e9"/>
  <outline>
    <contour>
      <point x="124.654" y="500.682" type="line" smooth="no"/>
      <point x="204.443" y="500.669" type="line" smooth="no"/>
      <point x="230.147" y="578.34" type="line" smooth="no"/>
      <point x="341.531" y="578.34" type="line" smooth="no"/>
      <point x="285.839" y="500.156" type="line" smooth="no"/>
      <point x="362.533" y="499.622" type="line" smooth="no"/>
      <point x="362.533" y="395.991" type="line" smooth="no"/>
      <point x="252.853" y="395.991" type="line" smooth="no"/>
      <point x="252.853" y="300.555" type="line" smooth="no"/>
      <point x="362.533" y="300.555" type="line" smooth="no"/>
      <point x="362.533" y="197.995" type="line" smooth="no"/>
      <point x="252.853" y="193.723" type="line" smooth="no"/>
      <point x="252.853" y="106.832" type="line" smooth="no"/>
      <point x="362.533" y="106.832" type="line" smooth="no"/>
      <point x="361.109" y="-1.4248" type="line" smooth="no"/>
      <point x="127.503" y="1.77832" type="line" smooth="no"/>
    </contour>
  </outline>
</glyph>
<glyph name="ecircumflex" format="1">
  <advance width="372"/>
  <unicode hex="00ea"/>
  <outline>
    <contour>
      <point x="109.428" y="499.259" type="line" smooth="no"/>
      <point x="70" y="498.551" type="line" smooth="no"/>
      <point x="72.8486" y="2.84863" type="line" smooth="no"/>
      <point x="306.455" y="-1.4248" type="line" smooth="no"/>
      <point x="307.879" y="106.832" type="line" smooth="no"/>
      <point x="198.199" y="106.832" type="line" smooth="no"/>
      <point x="198.199" y="193.723" type="line" smooth="no"/>
      <point x="307.879" y="197.995" type="line" smooth="no"/>
      <point x="307.879" y="300.555" type="line" smooth="no"/>
      <point x="198.199" y="300.555" type="line" smooth="no"/>
      <point x="198.199" y="395.991" type="line" smooth="no"/>
      <point x="307.879" y="395.991" type="line" smooth="no"/>
      <point x="307.879" y="502.824" type="line" smooth="no"/>
      <point x="154.059" y="500.061" type="line" smooth="no"/>
      <point x="206" y="534" type="line" smooth="no"/>
      <point x="268.5" y="510" type="line" smooth="no"/>
      <point x="309.899" y="583.8" type="line" smooth="no"/>
      <point x="196.5" y="621.6" type="line" smooth="no"/>
      <point x="83.0996" y="549.5" type="line" smooth="no"/>
    </contour>
  </outline>
</glyph>
<glyph name="igrave" format="1">
  <advance width="285"/>
  <unicode hex="00ec"/>
  <outline>
    <contour>
      <point x="184" y="500" type="line" smooth="no"/>
      <point x="203.576" y="499.976" type="line" smooth="no"/>
      <point x="205" y="0" type="line" smooth="no"/>
      <point x="79.6494" y="1.4248" type="line" smooth="no"/>
      <point x="82.499" y="499.627" type="line" smooth="no"/>
      <point x="100.766" y="499.957" type="line" smooth="no"/>
      <point x="28" y="589.34" type="line" smooth="no"/>
      <point x="139.384" y="589.34" type="line" smooth="no"/>
    </contour>
  </outline>
</glyph>
<glyph name="iacute" format="1">
  <advance width="285"/>
  <unicode hex="00ed"/>
  <outline>
    <contour>
      <point x="101" y="500" type="line" smooth="no"/>
      <point x="81.4238" y="499.976" type="line" smooth="no"/>
      <point x="80" y="0" type="line" smooth="no"/>
      <point x="205.351" y="1.4248" type="line" smooth="no"/>
      <point x="202.501" y="499.627" type="line" smooth="no"/>
      <point x="184.234" y="499.957" type="line" smooth="no"/>
      <point x="257" y="589.34" type="line" smooth="no"/>
      <point x="145.616" y="589.34" type="line" smooth="no"/>
    </contour>
  </outline>
</glyph>
<glyph name="icircumflex" format="1">
  <advance width="285"/>
  <unicode hex="00ee"/>
  <outline>
    <contour>
      <point x="150" y="499.186" type="line" smooth="no"/>
      <point x="203.576" y="499.976" type="line" smooth="no"/>
      <point x="205" y="0" type="line" smooth="no"/>
      <point x="79.6494" y="1.4248" type="line" smooth="no"/>
      <point x="82.499" y="497.127" type="line" smooth="no"/>
      <point x="103.404" y="497.311" type="line" smooth="no"/>
      <point x="74.5996" y="554.4" type="line" smooth="no"/>
      <point x="187.24" y="599.28" type="line" smooth="no"/>
      <point x="292.84" y="554.4" type="line" smooth="no"/>
      <point x="255" y="484" type="line" smooth="no"/>
      <point x="186.361" y="516.559" type="line" smooth="no"/>
    </contour>
  </outline>
</glyph>
<glyph name="idieresis" format="1">
  <advance width="285"/>
  <unicode hex="00ef"/>
  <outline>
    <contour>
      <point x="192.125" y="499.81" type="line" smooth="no"/>
      <point x="192.125" y="517.115" type="line" smooth="no"/>
      <point x="160.849" y="517.115" type="line" smooth="no"/>
      <point x="160.849" y="590.823" type="line" smooth="no"/>
      <point x="233.606" y="590.823" type="line" smooth="no"/>
      <point x="233.017" y="517.115" type="line" smooth="no"/>
      <point x="203.57" y="517.115" type="line" smooth="no"/>
      <point x="203.576" y="499.976" type="line" smooth="no"/>
      <point x="205" y="0" type="line" smooth="no"/>
      <point x="79.1494" y="1.4248" type="line" smooth="no"/>
      <point x="83.9805" y="496.117" type="line" smooth="no"/>
      <point x="84.4805" y="517.854" type="line" smooth="no"/>
      <point x="53.2041" y="517.854" type="line" smooth="no"/>
      <point x="53.2041" y="591.562" type="line" smooth="no"/>
      <point x="125.963" y="591.562" type="line" smooth="no"/>
      <point x="125.373" y="517.854" type="line" smooth="no"/>
      <point x="95.9258" y="517.854" type="line" smooth="no"/>
      <point x="96.0811" y="497.455" type="line" smooth="no"/>
    </contour>
  </outline>
</glyph>
<glyph name="ntilde" format="1">
  <advance width="503"/>
  <unicode hex="00f1"/>
  <outline>
    <contour>
      <point x="182.487" y="499.715" type="line" smooth="no"/>
      <point x="281.979" y="380.322" type="line" smooth="no"/>
      <point x="283.403" y="499.976" type="line" smooth="no"/>
      <point x="420.147" y="499.976" type="line" smooth="no"/>
      <point x="422.997" y="0" type="line" smooth="no"/>
      <point x="290.525" y="0" type="line" smooth="no"/>
      <point x="284.826" y="176.629" type="line" smooth="no"/>
      <point x="215.03" y="253.549" type="line" smooth="no"/>
      <point x="219.304" y="0" type="line" smooth="no"/>
      <point x="82.5586" y="0" type="line" smooth="no"/>
      <point x="79.71" y="499.551" type="line" smooth="no"/>
      <point x="149.595" y="499.522" type="line" smooth="no"/>
      <point x="141.148" y="563.474" type="line" smooth="no"/>
      <point x="144.41" y="567.084"/>
      <point x="149.736" y="571.213"/>
      <point x="156.125" y="574.862" type="curve" smooth="yes"/>
      <point x="162.516" y="578.512"/>
      <point x="169.004" y="581.832"/>
      <point x="175.591" y="584.82" type="curve" smooth="yes"/>
      <point x="182.179" y="587.809"/>
      <point x="188.303" y="590.334"/>
      <point x="193.963" y="592.395" type="curve" smooth="yes"/>
      <point x="199.621" y="594.454"/>
      <point x="203.352" y="595.701"/>
      <point x="205.154" y="596.132" type="curve" smooth="yes"/>
      <point x="214.166" y="598.285"/>
      <point x="223.555" y="599.585"/>
      <point x="233.32" y="600.033" type="curve" smooth="yes"/>
      <point x="243.086" y="600.481"/>
      <point x="253.031" y="600.735"/>
      <point x="263.154" y="600.797" type="curve" smooth="yes"/>
      <point x="273.278" y="600.858"/>
      <point x="283.56" y="601.193"/>
      <point x="294.001" y="601.803" type="curve" smooth="yes"/>
      <point x="304.443" y="602.412"/>
      <point x="314.845" y="603.954"/>
      <point x="325.209" y="606.432" type="curve" smooth="yes"/>
      <point x="334.221" y="608.586"/>
      <point x="341.013" y="612.097"/>
      <point x="345.589" y="616.963" type="curve" smooth="yes"/>
      <point x="350.165" y="621.829"/>
      <point x="354.533" y="626.176"/>
      <point x="358.697" y="630" type="curve" smooth="no"/>
      <point x="370" y="539.317" type="line" smooth="no"/>
      <point x="354.888" y="529.338" type="line" smooth="no"/>
      <point x="341.785" y="522.315" type="line" smooth="no"/>
      <point x="330.788" y="517.92" type="line" smooth="no"/>
      <point x="322.679" y="515.98"/>
      <point x="313.82" y="514.924"/>
      <point x="304.214" y="514.751" type="curve" smooth="yes"/>
      <point x="294.607" y="514.578"/>
      <point x="284.564" y="514.653"/>
      <point x="274.082" y="514.978" type="curve" smooth="yes"/>
      <point x="263.603" y="515.302"/>
      <point x="252.996" y="515.243"/>
      <point x="242.262" y="514.8" type="curve" smooth="yes"/>
      <point x="231.529" y="514.357"/>
      <point x="221.432" y="513.005"/>
      <point x="211.97" y="510.743" type="curve" smooth="yes"/>
      <point x="202.507" y="508.481"/>
      <point x="194.057" y="505.611"/>
      <point x="186.741" y="501.883" type="curve" smooth="yes"/>
    </contour>
  </outline>
</glyph>
<glyph name="oacute" format="1">
  <advance width="430"/>
  <unicode hex="00f3"/>
  <outline>
    <contour>
      <point x="239" y="504.333" type="line" smooth="no"/>
      <point x="239.133" y="373.2" type="line" smooth="no"/>
      <point x="239" y="373.167"/>
      <point x="233.667" y="381.747"/>
      <point x="214.795" y="381.747" type="curve" smooth="yes"/>
      <point x="187.731" y="381.747"/>
      <point x="184.883" y="346.137"/>
      <point x="184.883" y="347.561" type="curve" smooth="yes"/>
      <point x="184.883" y="148.141" type="line" smooth="no"/>
      <point x="184.883" y="148.141"/>
      <point x="182.034" y="122.501"/>
      <point x="219.068" y="122.501" type="curve" smooth="yes"/>
      <point x="246.133" y="122.501"/>
      <point x="256.104" y="141.019"/>
      <point x="256.104" y="141.019" type="curve" smooth="no"/>
      <point x="256.104" y="505.673" type="line" smooth="no"/>
      <point x="384.304" y="475.76"/>
      <point x="390" y="354.683"/>
      <point x="390" y="246.427" type="curve" smooth="yes"/>
      <point x="390" y="37.0361"/>
      <point x="308.657" y="0.384409"/>
      <point x="213.371" y="-5.69727" type="curve" smooth="yes"/>
      <point x="146.423" y="-9.97026"/>
      <point x="39.5908" y="29.9131"/>
      <point x="39.5908" y="272.066" type="curve" smooth="yes"/>
      <point x="39.5908" y="425.952"/>
      <point x="102.767" y="482.123"/>
      <point x="157.806" y="500.02" type="curve" smooth="no"/>
      <point x="206.616" y="594" type="line" smooth="no"/>
      <point x="317.5" y="593" type="line" smooth="no"/>
    </contour>
  </outline>
</glyph>
<glyph name="oslash" format="1">
  <advance width="416"/>
  <unicode hex="00f8"/>
  <outline>
    <contour>
      <point x="234.133" y="371.7" type="line" smooth="no"/>
      <point x="234" y="371.5"/>
      <point x="230" y="381.747"/>
      <point x="209.795" y="381.747" type="curve" smooth="yes"/>
      <point x="182.731" y="381.747"/>
      <point x="179.883" y="347.561"/>
      <point x="179.883" y="347.561" type="curve" smooth="no"/>
      <point x="179.883" y="285.71" type="line" smooth="no"/>
    </contour>
    <contour>
      <point x="239" y="217.5" type="line" smooth="no"/>
      <point x="187.396" y="136.542" type="line" smooth="no"/>
      <point x="190.959" y="129.752"/>
      <point x="199.374" y="122.501"/>
      <point x="219.068" y="122.501" type="curve" smooth="yes"/>
      <point x="246.133" y="122.501"/>
      <point x="256.104" y="141.019"/>
      <point x="256.104" y="141.019" type="curve" smooth="no"/>
      <point x="256.104" y="249.107" type="line" smooth="no"/>
      <point x="256.104" y="505.673" type="line" smooth="no"/>
      <point x="276.622" y="500.886"/>
      <point x="294.002" y="493.763"/>
      <point x="308.723" y="484.731" type="curve" smooth="no"/>
      <point x="325" y="510" type="line" smooth="no"/>
      <point x="416.5" y="510" type="line" smooth="no"/>
      <point x="364" y="424" type="line" smooth="no"/>
      <point x="389.111" y="373.284"/>
      <point x="390" y="308.5"/>
      <point x="390" y="246.427" type="curve" smooth="yes"/>
      <point x="390" y="37.0361"/>
      <point x="303.5" y="-5.69727"/>
      <point x="213.371" y="-5.69727" type="curve" smooth="yes"/>
      <point x="185.18" y="-5.69727"/>
      <point x="150.06" y="-1.49075"/>
      <point x="118.728" y="24.0431" type="curve" smooth="no"/>
      <point x="101" y="-3" type="line" smooth="no"/>
      <point x="9" y="-3" type="line" smooth="no"/>
      <point x="68.6485" y="94.0644" type="line" smooth="no"/>
      <point x="50.9788" y="135.506"/>
      <point x="39.5908" y="193.005"/>
      <point x="39.5908" y="272.066" type="curve" smooth="yes"/>
      <point x="39.5908" y="545.557"/>
      <point x="239.133" y="508.673"/>
      <point x="239.133" y="508.673" type="curve" smooth="no"/>
    </contour>
  </outline>
</glyph>
<glyph name="ugrave" format="1">
  <advance width="444"/>
  <unicode hex="00f9"/>
  <outline>
    <contour>
      <point x="343.811" y="500.52" type="line" smooth="no"/>
      <point x="300.5" y="588.34" type="line" smooth="no"/>
      <point x="189.116" y="588.34" type="line" smooth="no"/>
      <point x="261.882" y="499.457" type="line" smooth="no"/>
      <point x="262.661" y="180.902" type="line" smooth="no"/>
      <point x="262.661" y="180.902"/>
      <point x="271.208" y="126.773"/>
      <point x="225.626" y="126.773" type="curve" smooth="yes"/>
      <point x="180.044" y="126.773"/>
      <point x="190.016" y="195.146"/>
      <point x="190.016" y="223.635" type="curve" smooth="no"/>
      <point x="195.713" y="499.976" type="line" smooth="no"/>
      <point x="68.9385" y="499.976" type="line" smooth="no"/>
      <point x="60.3926" y="237.88" type="line" smooth="no"/>
      <point x="60.3926" y="170.932"/>
      <point x="46.1475" y="0"/>
      <point x="217.079" y="0" type="curve" smooth="yes"/>
      <point x="397.98" y="0"/>
      <point x="383.736" y="149.565"/>
      <point x="383.736" y="196.571" type="curve" smooth="no"/>
      <point x="383.736" y="499.976" type="line" smooth="no"/>
    </contour>
  </outline>
</glyph>
<glyph name="udieresis" format="1">
  <advance width="444"/>
  <unicode hex="00fc"/>
  <outline>
    <contour>
      <point x="383.736" y="499.976" type="line" smooth="no"/>
      <point x="383.736" y="196.571" type="line" smooth="no"/>
      <point x="383.736" y="149.565"/>
      <point x="397.98" y="0"/>
      <point x="217.079" y="0" type="curve" smooth="yes"/>
      <point x="46.1475" y="0"/>
      <point x="60.3926" y="170.932"/>
      <point x="60.3926" y="237.88" type="curve" smooth="no"/>
      <point x="68.9385" y="499.976" type="line" smooth="no"/>
      <point x="151.607" y="500.117" type="line" smooth="yes"/>
      <point x="151.607" y="518.354" type="line" smooth="no"/>
      <point x="120.331" y="518.354" type="line" smooth="no"/>
      <point x="120.331" y="592.062" type="line" smooth="no"/>
      <point x="193.09" y="592.062" type="line" smooth="no"/>
      <point x="192.5" y="518.354" type="line" smooth="no"/>
      <point x="163.053" y="518.354" type="line" smooth="no"/>
      <point x="163.208" y="499.955" type="line" smooth="no"/>
      <point x="195.713" y="499.976" type="line" smooth="no"/>
      <point x="190.016" y="223.635" type="line" smooth="no"/>
      <point x="190.016" y="195.146"/>
      <point x="180.044" y="126.773"/>
      <point x="225.626" y="126.773" type="curve" smooth="yes"/>
      <point x="271.208" y="126.773"/>
      <point x="262.661" y="180.902"/>
      <point x="262.661" y="180.902" type="curve" smooth="no"/>
      <point x="262.661" y="499.976" type="line" smooth="no"/>
      <point x="297.276" y="500.194" type="line" smooth="no"/>
      <point x="297.276" y="518" type="line" smooth="no"/>
      <point x="266" y="518" type="line" smooth="no"/>
      <point x="266" y="591.708" type="line" smooth="no"/>
      <point x="338.758" y="591.708" type="line" smooth="no"/>
      <point x="338.168" y="518" type="line" smooth="no"/>
      <point x="308.722" y="518" type="line" smooth="no"/>
      <point x="308.722" y="500.732" type="line" smooth="no"/>
    </contour>
  </outline>
</glyph>
<glyph name="OE" format="1">
  <advance width="611"/>
  <unicode hex="0152"/>
  <outline>
    <contour>
      <point x="300.92" y="-1.71973" type="line" smooth="yes"/>
      <point x="124.282" y="-0.841797"/>
      <point x="119.52" y="144"/>
      <point x="119.52" y="144" type="curve" smooth="no"/>
      <point x="117.6" y="380.16" type="line" smooth="no"/>
      <point x="117.6" y="540"/>
      <point x="130" y="648"/>
      <point x="297.52" y="665.08" type="curve" smooth="no"/>
      <point x="657" y="668.16" type="line" smooth="no"/>
      <point x="655.08" y="545.28" type="line" smooth="no"/>
      <point x="314" y="545" type="line" smooth="no"/>
      <point x="262" y="545"/>
      <point x="269" y="494"/>
      <point x="269" y="494" type="curve" smooth="yes"/>
      <point x="269" y="169" type="line" smooth="no"/>
      <point x="269" y="169"/>
      <point x="272" y="132.48"/>
      <point x="305.76" y="132.48" type="curve" smooth="no"/>
      <point x="352" y="132.48"/>
      <point x="353" y="189"/>
      <point x="351.84" y="188.16" type="curve" smooth="no"/>
      <point x="351.84" y="536.32" type="line" smooth="no"/>
      <point x="502" y="536" type="line" smooth="no"/>
      <point x="501.48" y="414.72" type="line" smooth="no"/>
      <point x="657" y="414.72" type="line" smooth="no"/>
      <point x="655.08" y="284.16" type="line" smooth="no"/>
      <point x="501.48" y="280.32" type="line" smooth="no"/>
      <point x="501.48" y="126.72" type="line" smooth="no"/>
      <point x="657" y="124.8" type="line" smooth="no"/>
      <point x="653.16" y="0" type="line" smooth="no"/>
    </contour>
  </outline>
</glyph>
<glyph name="oe" format="1">
  <advance width="568"/>
  <unicode hex="0153"/>
  <outline>
    <contour>
      <point x="243.908" y="153.87" type="line" smooth="no"/>
      <point x="243.908" y="153.87"/>
      <point x="240.363" y="122.501"/>
      <point x="213.299" y="122.501" type="curve" smooth="yes"/>
      <point x="176.265" y="122.501"/>
      <point x="179.113" y="157.779"/>
      <point x="179.113" y="157.779" type="curve" smooth="no"/>
      <point x="179.113" y="351.846" type="line" smooth="no"/>
      <point x="179.113" y="350.421"/>
      <point x="174.732" y="396.741"/>
      <point x="209.025" y="396.741" type="curve" smooth="yes"/>
      <point x="378.319" y="395.991" type="line" smooth="no"/>
      <point x="488" y="395.991" type="line" smooth="no"/>
      <point x="488" y="499.61" type="line" smooth="no"/>
      <point x="227.512" y="499.246" type="line" smooth="no"/>
      <point x="227.512" y="499.246"/>
      <point x="59.5254" y="510.866"/>
      <point x="59.5254" y="262.427" type="curve" smooth="yes"/>
      <point x="59.5254" y="20.2734"/>
      <point x="171.52" y="1.07031"/>
      <point x="224.737" y="-0.342773" type="curve" smooth="yes"/>
      <point x="486.575" y="-0.353516" type="line" smooth="no"/>
      <point x="488" y="106.832" type="line" smooth="no"/>
      <point x="378.319" y="106.832" type="line" smooth="no"/>
      <point x="378.319" y="193.723" type="line" smooth="no"/>
      <point x="488" y="197.995" type="line" smooth="no"/>
      <point x="488" y="300.555" type="line" smooth="no"/>
      <point x="378.319" y="300.555" type="line" smooth="no"/>
      <point x="378.319" y="383.418" type="line" smooth="yes"/>
      <point x="244.348" y="383.418" type="line" smooth="no"/>
    </contour>
  </outline>
</glyph>
<glyph name="emdash" format="1">
  <advance width="794"/>
  <unicode hex="2014"/>
  <outline>
    <contour>
      <point x="60" y="238" type="line" smooth="yes"/>
      <point x="734" y="238" type="line" smooth="yes"/>
      <point x="734" y="108" type="line" smooth="yes"/>
      <point x="60" y="108" type="line" smooth="yes"/>
    </contour>
  </outline>
</glyph>
<glyph name="guilsinglleft" format="1">
  <advance width="390"/>
  <unicode hex="2039"/>
  <outline>
    <contour>
      <point x="224" y="202" type="line" smooth="no"/>
      <point x="310" y="400" type="line" smooth="no"/>
      <point x="170" y="400" type="line" smooth="no"/>
      <point x="72" y="196" type="line" smooth="no"/>
      <point x="167" y="0" type="line" smooth="no"/>
      <point x="314" y="0" type="line" smooth="no"/>
    </contour>
  </outline>
</glyph>
<glyph name="guilsinglright" format="1">
  <advance width="390"/>
  <unicode hex="203a"/>
  <outline>
    <contour>
      <point x="162" y="202" type="line" smooth="no"/>
      <point x="76" y="400" type="line" smooth="no"/>
      <point x="216" y="400" type="line" smooth="no"/>
      <point x="314" y="196" type="line" smooth="no"/>
      <point x="219" y="0" type="line" smooth="no"/>
      <point x="72" y="0" type="line" smooth="no"/>
    </contour>
  </outline>
</glyph>
<glyph name="arrowleft" format="1">
  <advance width="742"/>
  <unicode hex="2190"/>
  <outline>
    <contour>
      <point x="242" y="298" type="line" smooth="yes"/>
      <point x="701" y="298" type="line" smooth="yes"/>
      <point x="658" y="229" type="line" smooth="yes"/>
      <point x="682" y="157" type="line" smooth="yes"/>
      <point x="220" y="158" type="line" smooth="yes"/>
      <point x="199" y="31" type="line" smooth="yes"/>
      <point x="55" y="228" type="line" smooth="yes"/>
      <point x="262" y="424" type="line" smooth="yes"/>
    </contour>
  </outline>
</glyph>
<glyph name="arrowup" format="1">
  <advance width="469"/>
  <unicode hex="2191"/>
  <outline>
    <contour>
      <point x="309" y="469" type="line" smooth="yes"/>
      <point x="225" y="0" type="line" smooth="yes"/>
      <point x="164" y="38" type="line" smooth="yes"/>
      <point x="81" y="0" type="line" smooth="yes"/>
      <point x="159" y="469" type="line" smooth="yes"/>
      <point x="42" y="469" type="line" smooth="yes"/>
      <point x="261" y="654" type="line" smooth="yes"/>
      <point x="431" y="469" type="line" smooth="yes"/>
    </contour>
  </outline>
</glyph>
